<svg xmlns="http://www.w3.org/2000/svg" width="21.923" height="21.757" viewBox="0 0 21.923 21.757">
  <g id="Group_875" data-name="Group 875" transform="translate(-333.779 -377.937)">
    <path id="Path_117" data-name="Path 117" d="M348.359,393.153a12.069,12.069,0,0,1,.458,1.365,1.857,1.857,0,0,1-.043.946,1.008,1.008,0,0,1-.531.522c-1.295.533-2.609,1.02-3.909,1.54-2.622,1.048-5.239,2.111-7.861,3.162a1.838,1.838,0,0,1-2.431-2.4q2.269-5.684,4.543-11.366c.046-.116.078-.238.114-.359a.956.956,0,0,1,1.017-.757,4.04,4.04,0,0,1,1.863.6c.24.127.471.273.724.421a1.738,1.738,0,0,0,.575-1.424c.029-.617-.016-1.237.01-1.855a4.574,4.574,0,0,1,2.489-4.022.813.813,0,0,1,1.172.28c.023.035.04.074.065.108.575.8.37,1.278-.367,1.687a2.3,2.3,0,0,0-1.155,2.069c-.017.429,0,.859,0,1.289a4.632,4.632,0,0,1-.982,3.227l.619.562c.572-.458,1.108-.936,1.693-1.344a5.992,5.992,0,0,1,2.369-.879,4.089,4.089,0,0,0,3.338-3.265.849.849,0,0,1,1.245-.652c.383.121.786.211.9.674a.815.815,0,0,1,.023.4,8.507,8.507,0,0,1-1.048,2.443,5.871,5.871,0,0,1-3.527,2.453,11.116,11.116,0,0,0-1.988.653,6.516,6.516,0,0,0-1.227,1c-.132.113-.148.225-.013.369.207.22.388.463.6.714a4.124,4.124,0,0,1,2.7-.649,17.552,17.552,0,0,1,2.018.449,3.171,3.171,0,0,0,2.234-.166.843.843,0,0,1,1.3.482c.058.123.121.245.17.371a.822.822,0,0,1-.43,1.1,5.218,5.218,0,0,1-3.908.333c-.493-.137-.99-.271-1.493-.359A1.905,1.905,0,0,0,348.359,393.153Zm-6.487-5.881a4.774,4.774,0,0,0-2.053-.845c-.453-.035-.643.157-.552.6a4.253,4.253,0,0,0,.383,1.154,17.5,17.5,0,0,0,6.294,6.571,7.727,7.727,0,0,0,1.7.694c.37.121.618-.062.629-.4a2.667,2.667,0,0,0-.412-1.389c-.543.545-.842.57-1.442.141-.068-.049-.137-.1-.2-.148a.831.831,0,0,1-.2-1.259c.177-.245.377-.474.583-.731l-.564-.688c-.544.486-.854.483-1.615-.069-.713-.518-.321-1.076.017-1.612l-.741-.661c-.556.444-.928.5-1.3.192C341.7,388.267,341.572,387.9,341.872,387.272Zm-4.17,3.48c-.238.6-.436,1.152-.677,1.684a.412.412,0,0,0,.124.558,21.648,21.648,0,0,0,5.868,3.941,1.213,1.213,0,0,0,1.117.028c.7-.323,1.423-.585,2.232-.91A19.122,19.122,0,0,1,337.7,390.752Zm16.02-7.192c-.021-.069-.024-.168-.059-.18a2.936,2.936,0,0,0-.738-.212c-.073-.006-.2.233-.247.377a4.63,4.63,0,0,1-2.119,2.953,6.864,6.864,0,0,1-1.7.614,5.947,5.947,0,0,0-4.092,2.8c-.2.34-.193.386.14.592.053.033.111.06.161.1.225.165.369.115.538-.117a9.749,9.749,0,0,1,1.054-1.275,5.185,5.185,0,0,1,2.637-1.157,5.379,5.379,0,0,0,4.153-3.7C353.547,384.093,353.634,383.824,353.723,383.56ZM342.8,397.485a21.45,21.45,0,0,1-6.137-4.129c-.226.565-.423,1.081-.64,1.588a.27.27,0,0,0,.1.368,18.046,18.046,0,0,0,4.589,2.868.372.372,0,0,0,.233.05C341.542,398,342.128,397.758,342.8,397.485Zm2.192-2.553a19.124,19.124,0,0,1-6.158-7.011c-.276.689-.545,1.336-.787,1.992a.431.431,0,0,0,.074.373c.5.507,1,1.018,1.534,1.484A17.281,17.281,0,0,0,344.993,394.932Zm1.392-14.209c-.12-.207-.22-.366-.307-.531a.275.275,0,0,0-.441-.12A4.035,4.035,0,0,0,343.8,382.1a6,6,0,0,0-.32,2.627,3.047,3.047,0,0,1-1.018,2.827c-.024.019-.061.045-.062.069,0,.119-.04.263.013.352a1.084,1.084,0,0,0,.352.352.345.345,0,0,0,.319,0,3.3,3.3,0,0,0,1.28-2.025c.087-.692.059-1.4.111-2.094a8.981,8.981,0,0,1,.2-1.579,2.783,2.783,0,0,1,1.4-1.66A2.581,2.581,0,0,0,346.385,380.722Zm6.372,12.224.02-.087a4.43,4.43,0,0,0,1.995-.474c.2-.1.261-.225.153-.425-.035-.064-.058-.134-.089-.2-.186-.4-.216-.414-.609-.228a3.357,3.357,0,0,1-2.2.242c-.663-.145-1.311-.371-1.98-.47a3.449,3.449,0,0,0-3.333,1.173c-.418.492-.4.5.123.884.232.172.383.139.538-.1a2.133,2.133,0,0,1,.988-.793,3.26,3.26,0,0,1,2.18-.046C351.274,392.618,352.018,392.773,352.757,392.946ZM340.1,398.575a19.737,19.737,0,0,1-4.393-2.819c-.246.614-.479,1.173-.688,1.74a.334.334,0,0,0,.095.3q1.18.832,2.384,1.63a.507.507,0,0,0,.4.024C338.609,399.18,339.314,398.889,340.1,398.575Zm-5.371-.274a1.215,1.215,0,0,0,.446,1.807c.651.334,1.176-.04,1.757-.266Z" transform="translate(0 -1.264)" fill="#0054a4" stroke="#0054a4" stroke-width="0.2"/>
    <path id="Path_118" data-name="Path 118" d="M575.822,378.037a1.34,1.34,0,0,1,1.337,1.341,1.344,1.344,0,1,1-2.688-.014A1.34,1.34,0,0,1,575.822,378.037Zm0,2.088a.745.745,0,0,0,.735-.744.756.756,0,0,0-.741-.742.749.749,0,0,0-.749.764A.738.738,0,0,0,575.826,380.125Z" transform="translate(-225.453 0)" fill="#0054a4" stroke="#0054a4" stroke-width="0.2"/>
    <path id="Path_119" data-name="Path 119" d="M612.44,616.709a1.225,1.225,0,0,1-1.245,1.22,1.248,1.248,0,0,1-1.219-1.256,1.269,1.269,0,0,1,1.255-1.23A1.24,1.24,0,0,1,612.44,616.709ZM610.6,616.7a.616.616,0,0,0,.612.622.63.63,0,1,0,.013-1.26A.61.61,0,0,0,610.6,616.7Z" transform="translate(-258.725 -222.472)" fill="#0054a4" stroke="#0054a4" stroke-width="0.2"/>
    <path id="Path_120" data-name="Path 120" d="M419,395.706a1.161,1.161,0,0,1-1.128,1.157,1.154,1.154,0,0,1-.009-2.307A1.163,1.163,0,0,1,419,395.706Zm-.619.049a.52.52,0,0,0-.48-.581.552.552,0,0,0-.586.521.546.546,0,0,0,.5.543A.5.5,0,0,0,418.386,395.755Z" transform="translate(-77.634 -15.481)" fill="#0054a4" stroke="#0054a4" stroke-width="0.2"/>
  </g>
</svg>
