<svg xmlns="http://www.w3.org/2000/svg" width="33.279" height="36.105" viewBox="0 0 33.279 36.105">
  <g id="Group_1229" data-name="Group 1229" transform="translate(-2024.32 -5903.165)">
    <path id="Path_658" data-name="Path 658" d="M490.043,322.2c-.548-.284-1.1-.555-1.64-.858a.7.7,0,0,0-.773,0c-.535.308-1.091.578-1.636.869a.975.975,0,0,1-1.13-.038,1.028,1.028,0,0,1-.377-1.075c.112-.622.218-1.245.337-1.865a.6.6,0,0,0-.193-.619c-.475-.442-.926-.909-1.393-1.359a.98.98,0,0,1-.317-1.046.955.955,0,0,1,.845-.69c.579-.088,1.156-.2,1.738-.255a.91.91,0,0,0,.857-.627c.193-.486.46-.943.688-1.415A1.016,1.016,0,0,1,489,313.2c.235.5.5.991.72,1.5a.84.84,0,0,0,.765.552c.6.069,1.186.181,1.778.274.058.246-.143.355-.271.5-.59.652-1.286,1.193-1.913,1.807a1.4,1.4,0,0,0-.424,1.419c.176.813.268,1.641.419,2.458C490.1,321.869,490.172,322.041,490.043,322.2Z" transform="translate(1553.421 5590.688)" fill="#fde757"/>
    <path id="Path_659" data-name="Path 659" d="M371.527,363.437c-.577-.295-1.162-.577-1.728-.891a.625.625,0,0,0-.684.01c-.553.309-1.116.6-1.682.885-.848.425-1.554-.032-1.472-.982a17.564,17.564,0,0,1,.318-2.01.574.574,0,0,0-.209-.6c-.471-.447-.926-.911-1.392-1.363a.953.953,0,0,1-.29-1.09,1.007,1.007,0,0,1,.881-.654c.657-.1,1.312-.2,1.971-.279a.522.522,0,0,0,.442-.347c.273-.572.567-1.134.84-1.706a1.029,1.029,0,0,1,.952-.7,1.061,1.061,0,0,1,.957.7c.276.587.579,1.162.857,1.748a.474.474,0,0,0,.417.3c.689.085,1.375.194,2.062.293.009.2-.166.283-.28.4-.7.7-1.386,1.4-2.091,2.087a1.058,1.058,0,0,0-.325,1.038c.154.863.334,1.722.47,2.588C371.568,363.051,371.676,363.249,371.527,363.437Z" transform="translate(1660.966 5553.284)" fill="#fde757"/>
    <path id="Path_660" data-name="Path 660" d="M608.206,363.415c-.535-.276-1.08-.536-1.6-.836a.722.722,0,0,0-.81.012c-.536.307-1.1.572-1.637.87a.979.979,0,0,1-1.464-1.062c.115-.622.185-1.253.319-1.87a.713.713,0,0,0-.272-.76c-.446-.406-.864-.842-1.3-1.262a.979.979,0,0,1-.327-1.083,1.028,1.028,0,0,1,.951-.69c.643-.083,1.282-.194,1.925-.272a.523.523,0,0,0,.437-.355c.275-.571.573-1.131.839-1.706a1.019,1.019,0,0,1,.956-.687,1.062,1.062,0,0,1,.954.7c.264.559.561,1.1.815,1.666a.6.6,0,0,0,.554.393c.73.089,1.455.224,2.181.341a28.087,28.087,0,0,0-2.709,2.566.839.839,0,0,0-.22.808c.136.9.3,1.8.433,2.694C608.259,363.057,608.348,363.245,608.206,363.415Z" transform="translate(1446.212 5553.282)" fill="#fde757"/>
    <path id="Path_669" data-name="Path 669" d="M435.605,393.153q-.315-1.693-.629-3.387a.693.693,0,0,1,.167-.647c.9-.887,1.751-1.818,2.7-2.65a.981.981,0,0,1,.5,1.75c-.42.431-.844.861-1.3,1.257a.741.741,0,0,0-.275.8c.137.648.236,1.3.326,1.961a.9.9,0,0,1-.457.942A.859.859,0,0,1,435.605,393.153Z" transform="translate(1596.887 5523.568)" fill="#fdc642"/>
    <path id="Path_670" data-name="Path 670" d="M672.387,393.706c-.186-1.1-.373-2.207-.556-3.31a.865.865,0,0,1,.278-.829c.746-.714,1.474-1.447,2.2-2.184a.77.77,0,0,1,.6-.276.964.964,0,0,1,.3,1.661c-.426.448-.869.883-1.335,1.288a.756.756,0,0,0-.261.816c.121.59.208,1.186.312,1.779a.988.988,0,0,1-.424,1.093A.914.914,0,0,1,672.387,393.706Z" transform="translate(1382.03 5522.991)" fill="#fdc642"/>
    <path id="Path_671" data-name="Path 671" d="M554.393,352.008c-.185-1.028-.375-2.056-.552-3.085a1.348,1.348,0,0,1,.42-1.291,29.738,29.738,0,0,0,2.351-2.291.883.883,0,0,1,.86.647.916.916,0,0,1-.249,1.018c-.484.5-.983.982-1.489,1.459a.484.484,0,0,0-.163.52c.132.633.21,1.278.339,1.912a1,1,0,0,1-.357,1.075A.929.929,0,0,1,554.393,352.008Z" transform="translate(1489.071 5560.876)" fill="#fdc642"/>
    <g id="Group_1180" data-name="Group 1180" transform="translate(2024.32 5917.265)">
      <path id="Path_662" data-name="Path 662" d="M361.78,672.12c2.91,0,5.821.008,8.731-.01.393,0,.514.121.482.524-.031.383-.008.77-.008,1.155-.1.312-.364.331-.61.332q-3.955.008-7.909,0c-.543,0-.705-.189-.708-.753C361.756,672.951,361.772,672.536,361.78,672.12Z" transform="translate(-361.757 -652.807)" fill="#00376b"/>
      <g id="Group_1179" data-name="Group 1179" transform="translate(0.01 0)">
        <path id="Path_656" data-name="Path 656" d="M371.184,551.776c-.056.242.071.511-.1.735-.2-.234-.138-.525-.143-.8-.015-.706-.015-.716-.7-.716q-3.805,0-7.611,0a1,1,0,0,1-.754-.154q-.006-5.894-.013-11.789c0-.423.2-.636.588-.636q4.053-.005,8.107,0c.377,0,.562.211.594.592.014.169.015.339.022.509a.7.7,0,0,1,.138.475c0,3.208.025,6.417-.011,9.625.028.547.011,1.1.011,1.643A.8.8,0,0,1,371.184,551.776Z" transform="translate(-361.866 -531.529)" fill="#0054a4"/>
        <path id="Path_661" data-name="Path 661" d="M473.855,551.058a4.039,4.039,0,0,1-1.371.085c-.245.02-.493.005-.74.006a.893.893,0,0,0-.048.5q-.005,4.128,0,8.256c0,.5-.049.572-.513.58-.949.018-1.9.013-2.846,0a.584.584,0,0,1-.447-.153q-.008-4.968-.016-9.936c0-.061.011-.122.016-.184,1.02,0,2.04.013,3.06-.005.421-.008.722.107.779.592.027.236.161.253.337.252C472.66,551.05,473.258,551.055,473.855,551.058Z" transform="translate(-458.577 -542.227)" fill="#eee6e3"/>
        <path id="Path_672" data-name="Path 672" d="M468.051,569.535c1.108,0,2.217-.012,3.325.009.343.007.449-.1.447-.468-.014-2.734-.009-5.468,0-8.2,0-.175-.073-.374.089-.522q-.006,5.051-.017,10.1c0,.314.111.379.384.391a5,5,0,0,1,1.633.085c-.538,0-1.076.006-1.614-.009-.247-.007-.406.046-.484.332-.1.357-.388.416-.7.416-1.018,0-2.036,0-3.054.007Q468.055,570.606,468.051,569.535Z" transform="translate(-458.74 -551.43)" fill="#d7d0cf"/>
        <g id="Group_1178" data-name="Group 1178" transform="translate(13.013)">
          <path id="Path_657" data-name="Path 657" d="M518.04,485.81a8.08,8.08,0,0,1-3.277-.351,9.2,9.2,0,0,1-2.339-1.674,7.219,7.219,0,0,0-1.649-.038c-.375.009-.489-.155-.5-.507-.016-.417.021-.832.021-1.248q0-4.048,0-8.1a1.272,1.272,0,0,1,.082-.677,5.638,5.638,0,0,1,1.335-.065,3.775,3.775,0,0,0,.822-.039,7.4,7.4,0,0,0,2.593-1.489,7.3,7.3,0,0,0,1.587-3.306c.3-1.115.442-2.264.629-3.4.087-.528.285-.685.788-.619a2.25,2.25,0,0,1,1.941,1.632,6.689,6.689,0,0,1,.057,3.561c-.265,1.359-.521,2.72-.781,4.08-.057.071,1.567.192,1.471.244a3.456,3.456,0,0,1-.91.074,1.343,1.343,0,0,0-1.191.812,1.437,1.437,0,0,0,.19,1.482,1.531,1.531,0,0,0,.491.379c.307.179.3.256,0,.46-.049.033-.1.058-.153.09a1.389,1.389,0,0,0-.113,2.29c.093.076.2.128.3.194.19.129.178.263,0,.395-.1.072-.2.129-.293.2a1.422,1.422,0,0,0,.123,2.329c.063.038.13.07.2.105.2.107.229.226.024.363-.062.041-.128.074-.193.11a1.313,1.313,0,0,0-.692,1.29,1.346,1.346,0,0,0,.737,1.173C519.445,485.629,518.032,485.62,518.04,485.81Z" transform="translate(-510.269 -464.285)" fill="#f6af80"/>
          <g id="Group_1177" data-name="Group 1177" transform="translate(6.185 8.642)">
            <path id="Path_663" data-name="Path 663" d="M608.064,595a2.04,2.04,0,0,1,.853,1.216,2.557,2.557,0,0,1-2.292,1.074c-1.828-.03-3.656.01-5.484-.017a1.934,1.934,0,0,1-1.933-1.2.916.916,0,0,1,.337-.807,1.927,1.927,0,0,1,1.461-.629c2.038.006,4.075,0,6.113.005A.984.984,0,0,1,608.064,595Z" transform="translate(-597.893 -591.554)" fill="#fec79e"/>
            <path id="Path_664" data-name="Path 664" d="M600.878,564.476l.089-.2c.066.3.3.2.468.2q2.645.011,5.291.006a1.333,1.333,0,1,1,.12,2.473c-1.81.024-3.62.033-5.429,0a1.808,1.808,0,0,1-1.809-1.143,1.3,1.3,0,0,1,.911-1.233C600.637,564.529,600.771,564.56,600.878,564.476Z" transform="translate(-598.264 -564.271)" fill="#fec79e"/>
            <path id="Path_665" data-name="Path 665" d="M608.869,624.707a.638.638,0,0,0,.089.393,1.834,1.834,0,0,1-1.714,1.149c-1.822.052-3.647.055-5.469,0a1.771,1.771,0,0,1-1.692-1.17c-.04-.345.182-.553.364-.782a2.463,2.463,0,0,1,1.8-.655c1.506-.024,3.013-.02,4.519,0a2.719,2.719,0,0,1,1.549.413A1.064,1.064,0,0,1,608.869,624.707Z" transform="translate(-598.69 -617.61)" fill="#fec79e"/>
            <path id="Path_666" data-name="Path 666" d="M607.361,654.995l.084.178a1.816,1.816,0,0,1-1.432,1.055,17.74,17.74,0,0,1-4.613-.013,1.529,1.529,0,0,1-1.4-1.182,1.088,1.088,0,0,1,.354-.695,2.121,2.121,0,0,1,1.56-.636c1.207,0,2.413,0,3.62,0a2.19,2.19,0,0,1,1.524.612C607.245,654.487,607.453,654.672,607.361,654.995Z" transform="translate(-598.619 -644.642)" fill="#fec79e"/>
            <path id="Path_667" data-name="Path 667" d="M587.32,575.85l-.295.5a3.981,3.981,0,0,0-.131.682,2,2,0,0,0,1,2.007c.139.084.356.086.37.332h-1.43a1.689,1.689,0,0,1-.938-2.647,2.217,2.217,0,0,1,.917-.622,1.623,1.623,0,0,1-1.219-1.574,1.727,1.727,0,0,1,1.158-1.71,1.766,1.766,0,0,1-1.163-1.694,1.664,1.664,0,0,1,1.254-1.59,1.642,1.642,0,0,1-1.248-1.7,1.586,1.586,0,0,1,1.529-1.6c.349-.018.7,0,1.049,0a2.106,2.106,0,0,0-1.241,1.213,3.254,3.254,0,0,0,.323,2.194.224.224,0,0,1-.029.238,1.456,1.456,0,0,0-.3.606,6.517,6.517,0,0,1-.063.889,3.515,3.515,0,0,0,.451,1.44c0,.255-.294.35-.3.6a2.326,2.326,0,0,0,.3,2.151A.234.234,0,0,1,587.32,575.85Z" transform="translate(-585.557 -566.027)" fill="#dc9976"/>
            <path id="Path_668" data-name="Path 668" d="M599.489,669.246a2.194,2.194,0,0,1-1.518-2.187,1.275,1.275,0,0,1,.28-.834,1.39,1.39,0,0,0,1.2,1.081,18.03,18.03,0,0,0,4.884.009,1.539,1.539,0,0,0,.952-.627c.092-.116.148-.263.321-.259a2.038,2.038,0,0,1-1.793,2.829C602.375,669.269,600.932,669.251,599.489,669.246Z" transform="translate(-596.783 -655.898)" fill="#f6af81"/>
            <path id="Path_673" data-name="Path 673" d="M598.506,639.656c0-.168-.128-.26-.211-.38a1.794,1.794,0,0,1-.088-2.054,1.872,1.872,0,0,0,1.781,1.112c1.651.01,3.3-.007,4.953.008a2.093,2.093,0,0,0,1.816-.8,1.68,1.68,0,0,1,.254-.223,2.067,2.067,0,0,1-1.525,2.863,1.815,1.815,0,0,0-1.711-1.129c-1.283-.034-2.567-.008-3.85-.01A2.231,2.231,0,0,0,598.506,639.656Z" transform="translate(-596.743 -629.833)" fill="#f6af81"/>
            <path id="Path_674" data-name="Path 674" d="M598.382,610.581a2.03,2.03,0,0,1-.388-2.329,2.172,2.172,0,0,0,2.088,1.12c1.816-.026,3.632-.013,5.448-.005a2.017,2.017,0,0,0,1.87-.878c.075-.115.159-.079.248-.034a2.115,2.115,0,0,1-.846,2.439,3.011,3.011,0,0,0-2.555-.924c-1.031.026-2.064.018-3.1,0A4.108,4.108,0,0,0,598.382,610.581Z" transform="translate(-596.622 -603.797)" fill="#f6af81"/>
            <path id="Path_675" data-name="Path 675" d="M598.238,580.7a3.123,3.123,0,0,1-.486-1.782,1.292,1.292,0,0,1,.192-.65,2.078,2.078,0,0,0,2.068,1.119c1.634-.021,3.269-.023,4.9,0a2,2,0,0,0,1.811-.889.245.245,0,0,1,.192-.125,2.484,2.484,0,0,1-.175,1.918,2.9,2.9,0,0,0-1.344-.207c-1.839.009-3.678.027-5.516-.009A2.223,2.223,0,0,0,598.238,580.7Z" transform="translate(-596.571 -576.85)" fill="#f6b081"/>
          </g>
        </g>
        <path id="Path_676" data-name="Path 676" d="M424.131,651.841a.89.89,0,0,1-.775-.806.8.8,0,0,1,.766-.836.79.79,0,0,1,.782.813A.8.8,0,0,1,424.131,651.841Z" transform="translate(-417.965 -632.931)" fill="#eee6e3"/>
      </g>
    </g>
  </g>
</svg>
