<svg xmlns="http://www.w3.org/2000/svg" xmlns:xlink="http://www.w3.org/1999/xlink" width="192" height="192" viewBox="0 0 192 192">
  <defs>
    <clipPath id="clip-path">
      <rect id="Rectangle_1394" data-name="Rectangle 1394" width="192" height="192" transform="translate(10540 -13732)" fill="none" stroke="#707070" stroke-width="1"/>
    </clipPath>
  </defs>
  <g id="Approve_leave" data-name="Approve leave" transform="translate(-10540 13732)" clip-path="url(#clip-path)">
    <g id="Approve_leave-2" data-name="Approve leave" transform="translate(468.959 -34.921)">
      <g id="Group_3011" data-name="Group 3011" transform="translate(10091 -13686)">
        <path id="Path_30403" data-name="Path 30403" d="M25.011,300.586c1.372-8.709,3.221-11.313,7.875-11.275s6.591,2.693,7.852,10.974h9.5c.065-1.238.11-2.463.2-3.686.319-4.489,3.4-7.478,7.611-7.4,4.127.081,7.2,3.287,7.356,7.693.033.953,0,1.91,0,3.133h8.721c1.55-3.338,2.67-6.563,4.51-9.3.716-1.067,3.054-1.435,4.656-1.442,4.549-.018,6.224,2.527,7.477,10.825h9.673c0-1.206-.057-2.436.01-3.658a7.475,7.475,0,0,1,14.95-.055c.065,1.144.01,2.294.01,3.325,2.63.6,5.022.8,7.123,1.691,6.654,2.816,10.1,8.024,10.138,15.241.084,15.261.029,30.524.03,45.788,0,1.165-.627,39.607-.655,41.19-.174,10.029-.071,20.064-.094,30.1-.024,10.608-6.429,17.156-17.116,17.245-13.341.11-26.683.029-40.024.029-16.33,0-32.66-.063-48.99.027-7.568.042-13.382-2.8-16.353-9.909a22.46,22.46,0,0,1-1.3-8.432C8.086,394.905,8.283,357.121,8,319.34c-.077-10.258,5.811-18.434,17.01-18.754m90.727,5.878c-1.054,7.745-2.787,10.353-7.26,10.344-1.693,0-4.114-.436-4.928-1.58-1.792-2.521-2.772-5.618-4.24-8.822H91.023c-1.505,8.136-3.158,10.373-7.634,10.49-4.513.118-6.225-2.073-8.2-10.7-2.254,0-4.585-.018-6.916.011-.726.008-1.451.14-2.134.212-1.5,8.14-3.1,10.484-7.561,10.4-1.6-.029-3.887-.432-4.644-1.515-1.78-2.546-2.826-5.6-4.478-9.114H41.336c-1.654,8.515-3.29,10.69-7.867,10.7-4.6.013-6.227-2.137-7.834-10.323-6.085-.822-10.815,3.778-10.821,10.739q-.045,58.113,0,116.227c.006,6.723,4.091,10.842,10.754,10.851q45.146.058,90.292,0c6.652-.008,10.714-4.124,10.772-10.824.069-7.79.022-15.582.01-23.374,0-.791.075-38,.057-40.221-.1-12.7-.048-25.4-.05-38.1,0-5.123.1-10.249-.038-15.368-.17-6.277-4.644-10.387-10.875-10.036m-82.306,5.025c.733-.865,1.459-1.321,1.47-1.794.107-4.347.135-8.7.042-13.043-.009-.445-.959-.871-1.472-1.305-.4.562-1.127,1.117-1.14,1.687-.093,4.139-.074,8.281,0,12.422.01.527.546,1.045,1.1,2.034m26.178-8.324c0-1.907.123-3.827-.062-5.716-.072-.733-.842-1.4-1.295-2.092-.428.622-1.209,1.234-1.228,1.869q-.173,5.876,0,11.759c.019.665.747,1.31,1.147,1.965.48-.688,1.3-1.34,1.374-2.071a55.982,55.982,0,0,0,.069-5.715m24.872.075h-.02c0-2.12.084-4.245-.059-6.354-.036-.537-.791-1.024-1.216-1.534-.444.5-1.259.984-1.273,1.493-.111,4.13-.13,8.265-.012,12.394.016.587.92,1.148,1.413,1.722.389-.666,1.057-1.308,1.114-2,.156-1.895.054-3.811.054-5.718m24.874.1h.011c0-2.119.083-4.242-.055-6.351-.037-.563-.748-1.082-1.15-1.621-.475.46-1.351.909-1.363,1.38q-.163,6.348-.008,12.7c.013.511.841,1,1.291,1.5.425-.524,1.175-1.024,1.215-1.577.148-2,.058-4.019.058-6.032" transform="translate(-8 -289)" fill="#0054a4"/>
        <path id="Path_30404" data-name="Path 30404" d="M75.417,381.3q-17.45,0-34.9,0c-.959,0-2.141.3-2.827-.146-1.107-.719-2.6-1.937-2.606-2.952s1.495-2.188,2.543-3.032c.467-.377,1.443-.146,2.189-.146q36.021-.007,72.042,0c.64,0,1.456-.207,1.883.1,1.026.748,2.623,1.768,2.6,2.64-.032,1.143-1.233,2.456-2.261,3.29-.6.489-1.846.239-2.8.24q-17.93.017-35.86.007" transform="translate(-12.962 -304.748)" fill="#0054a4"/>
        <path id="Path_30405" data-name="Path 30405" d="M75.723,349.431q-18.227,0-36.454,0c-2.119,0-4.355-.011-4.377-2.882-.021-2.8,2.091-3.026,4.282-3.024q36.453.021,72.909,0c2.143,0,4.357.057,4.378,2.889.02,2.758-2.07,3.033-4.282,3.027q-18.227-.042-36.454-.013" transform="translate(-12.927 -298.991)" fill="#0054a4"/>
        <path id="Path_30406" data-name="Path 30406" d="M65.462,406.994c8.637,0,17.275.027,25.912-.019,2.267-.012,4.252.405,4.239,3.1-.011,2.533-2,2.982-4.077,2.983q-26.391.006-52.783-.007c-2.1,0-3.965-.537-3.89-3.137.075-2.582,1.921-2.944,4.048-2.936,8.851.031,17.7.013,26.552.013" transform="translate(-12.922 -310.616)" fill="#0054a4"/>
        <path id="Path_30407" data-name="Path 30407" d="M60.967,444.933c-7.257,0-14.514-.02-21.771.012-2.2.009-4.26-.232-4.324-3.011s2.031-3.221,4.194-3.225q21.932-.038,43.862-.016c2.257,0,4.249.612,4.177,3.269-.074,2.692-2.129,3.008-4.367,2.992-7.257-.055-14.514-.02-21.771-.02" transform="translate(-12.923 -316.428)" fill="#0054a4"/>
        <path id="Path_30408" data-name="Path 30408" d="M178.957,448.214a33.488,33.488,0,1,1-33.488-33.488,33.487,33.487,0,0,1,33.488,33.488" transform="translate(-27.052 -312.036)" fill="#fff"/>
        <path id="Ellipse_321" data-name="Ellipse 321" d="M33.665-3.5A37.165,37.165,0,1,1-3.5,33.665,37.207,37.207,0,0,1,33.665-3.5Zm0,66.975A29.811,29.811,0,1,0,3.854,33.665,29.845,29.845,0,0,0,33.665,63.475Z" transform="translate(84.753 102.512)" fill="#0054a4"/>
        <path id="Path_30410" data-name="Path 30410" d="M143.541,467.211,134,453.555a2.858,2.858,0,1,1,4.686-3.275l6.116,8.752,18.967-14.581a2.859,2.859,0,0,1,3.485,4.532Z" transform="translate(-30.992 -317.374)" fill="#0054a4"/>
      </g>
    </g>
  </g>
</svg>
