<svg xmlns="http://www.w3.org/2000/svg" width="192" height="192" viewBox="0 0 192 192">
  <g id="Attendance_request" data-name="Attendance request" transform="translate(-6205 7441.746)">
    <path id="Path_30380" data-name="Path 30380" d="M122.2,199.125c-5.865-1.145-11.566.846-16.986-.713-5.223-1.5-6.346-3.951-5.541-9.009,1.823-11.462,8.965-17.33,21.614-17.3a40.625,40.625,0,0,1,11.476,1.533c8.048,2.432,13.845,11.846,12.509,19.5-.516,2.956-2.927,4.6-5.663,5.265-5.715,1.383-11.559-.405-17.41.721" transform="translate(6169.347 -7519.218)" fill="#0054a4"/>
    <path id="Path_30381" data-name="Path 30381" d="M122.192,325.144c-5.2-.828-10.572.195-15.57-1.241-7.831-2.249-7.875-5.3-6.987-10.187,1.868-10.287,9.03-16.443,20.327-16.776a46.956,46.956,0,0,1,8.081.465c12.511,1.816,16.795,10.406,17.2,19.823.125,2.92-2.007,4.471-4.533,5.688-4.313,2.078-9.787,1.61-18.517,2.228" transform="translate(6169.414 -7574.89)" fill="#0054a4"/>
    <path id="Path_30382" data-name="Path 30382" d="M122.382,73.107c-5.957-1.176-11.758.776-17.284-.808-5.093-1.459-6.134-3.9-5.465-8.773,1.013-7.374,4.315-13.4,12.281-15.945,9.123-2.909,18.272-2.891,26.269,2.9,5.659,4.1,7.084,10.161,7.062,16.446-.01,2.849-2.521,4.583-5.155,5.241-5.806,1.451-11.744-.263-17.709.939" transform="translate(6169.344 -7462.859)" fill="#0054a4"/>
    <path id="Path_30383" data-name="Path 30383" d="M22.142,308.867C10.073,308.559.22,298.885.006,287.133a22.248,22.248,0,0,1,20.987-22.388c3.234-.2,5.312,1.035,5.246,3.367-.078,2.791-1.932,3.692-4.565,3.893-8.441.646-14.067,6.833-13.937,15.155a14.418,14.418,0,0,0,14.2,14.261A14.612,14.612,0,0,0,37.5,288.174c.05-.424.08-.851.121-1.276.234-2.382,1.661-3.918,3.984-3.792a3.565,3.565,0,0,1,3.422,4.274,32.389,32.389,0,0,1-2.073,8.635c-3.464,7.973-12,13.076-20.807,12.852" transform="translate(6204.999 -7561.861)" fill="#0054a4"/>
    <path id="Path_30384" data-name="Path 30384" d="M22.711,174.893c7.839-.025,13.872-5.21,14.806-12.727.052-.416.091-.833.129-1.251.224-2.449,1.486-4.04,4.153-3.8,2.475.227,3.352,1.935,3.36,4.233.026,8.258-6.393,16.751-14.862,19.573-11.953,3.982-25.005-2.118-28.978-13.543C-2.723,155.761,3.943,143.3,16.255,139.72a25.224,25.224,0,0,1,6.442-.714c2.173-.045,3.818,1.377,3.467,3.279-.251,1.359-1.9,2.7-3.252,3.573-.981.629-2.534.371-3.79.67-7.967,1.9-12.383,8.5-11.205,16.681.96,6.67,7.339,11.707,14.794,11.683" transform="translate(6204.952 -7504.925)" fill="#0054a4"/>
    <path id="Path_30385" data-name="Path 30385" d="M22.8,58.129C10.564,57.355.4,47.9.012,36.437c-.385-11.431,9.031-21.9,20.406-22.658,2.42-.162,5.021-.439,5.791,2.673.541,2.185-1.25,3.623-4.916,4.195C14.01,21.781,8.891,26.241,7.9,32.314,6.729,39.468,9.813,45.6,16.068,48.569,25.31,52.95,36.154,47.2,37.432,37.246c.082-.635.114-1.277.2-1.91.307-2.189,1.491-3.619,3.835-3.53,2.514.1,3.7,1.7,3.61,4.053C44.774,43.94,41.1,50.291,33.974,54.236c-3.392,1.877-7.431,2.631-11.177,3.893" transform="translate(6205 -7449.849)" fill="#0054a4"/>
    <path id="Path_30386" data-name="Path 30386" d="M235.968,205.273q-14.206,0-28.413-.006c-3.419-.006-5.667-1.424-5.393-3.562.354-2.771,2.612-3.444,5.277-3.444q28.579,0,57.157.011c3.352,0,5.575,1.544,5.476,3.623s-2.239,3.371-5.691,3.375q-14.206.017-28.413,0" transform="translate(6126.917 -7534.038)" fill="#0054a4"/>
    <path id="Path_30387" data-name="Path 30387" d="M236.446,324q14.025,0,28.05,0c3.549.005,5.567,1.255,5.612,3.4.047,2.2-2.2,3.657-5.754,3.659q-28.216.015-56.431,0c-.55,0-1.1.028-1.649-.023-2.37-.225-4.1-1.333-4.054-3.567s1.859-3.36,4.2-3.442c3.295-.116,6.6-.039,9.9-.039q10.065,0,20.13,0" transform="translate(6126.891 -7585.651)" fill="#0054a4"/>
    <path id="Path_30388" data-name="Path 30388" d="M236.073,79.517c-9.678,0-19.357-.023-29.035.016-2.563.011-4.714-.4-4.918-3.205-.159-2.185,1.769-3.593,4.973-3.6q29.035-.034,58.069-.022c2.672,0,4.839.9,4.8,3.432-.04,2.477-2.144,3.415-4.854,3.4-9.678-.057-19.357-.022-29.035-.022" transform="translate(6126.928 -7473.682)" fill="#0054a4"/>
    <path id="Path_30389" data-name="Path 30389" d="M227.309,176.088c6.843,0,13.687.023,20.53-.013,2.664-.014,4.849.576,5.129,3.409.21,2.121-1.778,3.511-5,3.519q-20.53.048-41.059.013c-.326,0-.653,0-.977-.027-2.414-.185-4.43-1.053-4.317-3.556.108-2.415,2-3.355,4.516-3.35q10.592.022,21.182,0" transform="translate(6127.103 -7525.191)" fill="#0054a4"/>
    <path id="Path_30390" data-name="Path 30390" d="M227.2,308.115c-6.741,0-13.483.023-20.224-.008-3.421-.016-5.346-1.348-5.39-3.6-.042-2.183,1.957-3.516,5.392-3.519,13.591-.011,27.183.013,40.774-.018,2.538-.006,4.593.614,5.165,3.131.5,2.213-1.634,3.974-4.84,4-6.959.049-13.918.015-20.876.016" transform="translate(6127.11 -7576.5)" fill="#0054a4"/>
    <path id="Path_30391" data-name="Path 30391" d="M227.492,50.266c6.73,0,13.46-.019,20.189,0,3.465.013,5.387,1.319,5.342,3.531-.044,2.193-1.98,3.453-5.463,3.457q-20.027.023-40.054.006a16.085,16.085,0,0,1-1.627-.026c-2.455-.252-4.271-1.4-4.191-3.768.078-2.286,1.98-3.188,4.31-3.194,7.164-.02,14.328-.007,21.493-.01" transform="translate(6127.076 -7464.681)" fill="#0054a4"/>
    <path id="Path_30392" data-name="Path 30392" d="M28.162,157.077c6.4-5.983,12.2-11.4,18-16.807.763-.712,1.509-1.448,2.337-2.09a3.856,3.856,0,0,1,5.507.3c1.613,1.541,1.663,3.337.056,4.837C46.727,150.166,39.373,157,31.886,163.7a4.472,4.472,0,0,1-6.408-.123c-2.089-1.9-4.149-3.823-6.219-5.739-1.622-1.5-1.961-3.251-.393-4.811,1.679-1.67,3.759-1.458,5.5.031a53.05,53.05,0,0,1,3.8,4.02" transform="translate(6198.803 -7504.177)" fill="#0054a4"/>
    <path id="Path_30393" data-name="Path 30393" d="M28.072,282.79c6.515-6.031,12.414-11.492,18.315-16.95.613-.567,1.227-1.135,1.871-1.671,1.956-1.625,3.958-1.6,5.755.13,1.733,1.666,1.534,3.465-.181,5.057-7.2,6.681-14.4,13.365-21.674,19.974a4.275,4.275,0,0,1-6.323-.01c-2.1-1.891-4.295-3.687-6.428-5.544-1.767-1.539-2.178-3.379-.482-5.037s3.772-1.38,5.486.152c1.235,1.1,2.269,2.4,3.66,3.9" transform="translate(6198.805 -7561.167)" fill="#0054a4"/>
    <path id="Path_30394" data-name="Path 30394" d="M28.1,30.687c6.361-5.464,12.466-10.709,18.572-15.952a26.077,26.077,0,0,1,2.4-2.005,3.881,3.881,0,0,1,5.262.494c1.475,1.48,1.236,3.22-.253,4.585C46.313,24.93,38.54,32.047,30.593,38.994c-.692.605-3.1.46-3.957-.187A88.854,88.854,0,0,1,19.224,32.1c-1.7-1.616-1.444-3.3.216-4.739a3.72,3.72,0,0,1,5.238-.01c1.424,1.214,2.674,2.6,3.42,3.339" transform="translate(6198.729 -7449.147)" fill="#0054a4"/>
    <path id="Path_30395" data-name="Path 30395" d="M129.3,143.2c-5.516.01-9.964-4.132-9.881-9.2.08-4.9,4.537-8.957,9.845-8.965,5.428-.008,10.076,4.3,9.952,9.231-.124,4.912-4.578,8.925-9.917,8.935" transform="translate(6162.414 -7497.495)" fill="#0054a4"/>
    <path id="Path_30396" data-name="Path 30396" d="M129.126,18.118c-5.36-.049-9.71-4.095-9.71-9.027,0-5.052,4.547-9.176,10.019-9.089,5.32.085,9.772,4.22,9.776,9.081,0,5.02-4.536,9.086-10.085,9.035" transform="translate(6162.413 -7441.747)" fill="#0054a4"/>
    <path id="Path_30397" data-name="Path 30397" d="M129.258,250.918c5.514,0,10.071,4.2,9.949,9.171-.119,4.9-4.59,8.948-9.908,8.961-5.477.014-9.962-4.169-9.884-9.217.076-4.93,4.473-8.912,9.843-8.915" transform="translate(6162.414 -7553.584)" fill="#0054a4"/>
  </g>
</svg>
