<svg xmlns="http://www.w3.org/2000/svg" width="22.058" height="20.945" viewBox="0 0 22.058 20.945">
  <g id="Group_874" data-name="Group 874" transform="translate(-365.241 -371.365)">
    <path id="Path_116" data-name="Path 116" d="M381.169,385.7a5.666,5.666,0,0,1-2.716-2.473l-.708.3a6.861,6.861,0,0,1,.381,1.2,1.391,1.391,0,0,1-1.207,1.589c-.29.071-.342.191-.34.43.01,1.6.005,3.193.005,4.789,0,.08,0,.16,0,.239,0,.2-.05.4-.324.408-.3.007-.35-.2-.35-.413q0-1.736,0-3.472c0-.627,0-1.253,0-1.872-1.652-.359-1.941-1.521-1.11-2.875l-.755-.327a5.731,5.731,0,0,1-2.686,2.458,6.329,6.329,0,0,1,.241.826,1.1,1.1,0,0,1-.884,1.269c-.2.061-.265.144-.263.335.01,1.2.006,2.394,0,3.592,0,.1.018.224-.039.288a.494.494,0,0,1-.335.177c-.1-.01-.214-.141-.278-.242-.043-.068-.013-.175-.013-.265q0-1.781,0-3.562c0-.127.019-.232-.178-.3a1.2,1.2,0,0,1-.851-1.791c.045-.1.1-.2.137-.278a6.166,6.166,0,0,1-3.542-5.286,3.535,3.535,0,0,1,3.044-3.669c.5-.115,1.013-.171,1.5-.25a12.028,12.028,0,0,1,.261-1.521,4.546,4.546,0,0,1,3.057-3.009,8.784,8.784,0,0,1,6.487.163c.06.025.115.059.174.085.23.1.4.237.249.49s-.36.171-.566.068a7.139,7.139,0,0,0-3.278-.7,7.864,7.864,0,0,0-2.9.506,3.937,3.937,0,0,0-2.689,4.307,8.045,8.045,0,0,0,2.354,4.719,4.822,4.822,0,0,0,2.38,1.394,3.709,3.709,0,0,0,2.7-.394,5.921,5.921,0,0,1-.547-2.309,3.665,3.665,0,0,1,3.139-3.588c.278-.058.561-.1.844-.133.192-.025.279-.089.28-.286a3.711,3.711,0,0,0-.885-2.455c-.046-.056-.1-.108-.144-.164-.13-.152-.171-.308.01-.449a.352.352,0,0,1,.52.05,4.051,4.051,0,0,1,1.085,2.05c.076.39.1.787.144,1.111a19.468,19.468,0,0,1,2.233.558,3.458,3.458,0,0,1,2.309,3.933,7.065,7.065,0,0,1-.8,2.233c-.12.21-.217.474-.578.344-.234-.084-.239-.262-.036-.616a5.273,5.273,0,0,0,.78-2.509,2.843,2.843,0,0,0-2.159-2.911,5.79,5.79,0,0,0-4.124.109,2.777,2.777,0,0,0-1.894,2.917,5.738,5.738,0,0,0,2.055,3.937,2.919,2.919,0,0,0,2.461.78,3.264,3.264,0,0,0,1.585-.758c.106-.087.19-.217.313-.261a.663.663,0,0,1,.463-.02.25.25,0,0,1,.01.439c-.46.337-.939.652-1.413.972a.892.892,0,0,1-.171.071c.086.247.186.478.245.718a1.112,1.112,0,0,1-.852,1.367c-.235.069-.3.165-.295.376q.016,1.826,0,3.651a.527.527,0,0,1-.21.358.391.391,0,0,1-.339-.074.554.554,0,0,1-.1-.358c-.007-1.207,0-2.414,0-3.622,0-.126.02-.232-.177-.3a1.184,1.184,0,0,1-.869-1.714C381.043,385.967,381.107,385.842,381.169,385.7Zm-7.742-2.774c-.02-.049-.021-.061-.028-.067a8.816,8.816,0,0,1-3.375-5.438.339.339,0,0,0-.258-.185,3.928,3.928,0,0,0-.753.073,3.343,3.343,0,0,0-2.8,1.973,3.5,3.5,0,0,0,.083,2.464,5.631,5.631,0,0,0,2.291,3.063,2.636,2.636,0,0,0,2.164.375A4.5,4.5,0,0,0,373.427,382.93Zm2.818,2.841c.974,0,1.405-.551,1.077-1.386a4.423,4.423,0,0,0-.2-.406.363.363,0,0,0-.427-.187,3.566,3.566,0,0,1-.854,0c-.236-.03-.382.015-.477.207-.063.127-.137.25-.188.381C374.842,385.218,375.272,385.771,376.245,385.771Zm-6.1.163c-.6,0-.818.191-.819.723,0,.385.278.582.815.577.516-.005.769-.2.765-.59C370.9,386.127,370.689,385.933,370.143,385.934Zm12.255,0c-.6,0-.811.192-.809.726,0,.381.264.572.783.572s.791-.191.8-.563C383.175,386.146,382.952,385.933,382.4,385.934Z" transform="translate(0 0)" fill="#0054a4" stroke="#0054a4" stroke-width="0.2"/>
  </g>
</svg>
