<svg xmlns="http://www.w3.org/2000/svg" xmlns:xlink="http://www.w3.org/1999/xlink" width="192" height="192" viewBox="0 0 192 192">
  <defs>
    <clipPath id="clip-path">
      <rect id="Rectangle_1389" data-name="Rectangle 1389" width="192" height="192" transform="translate(10939 -14388)" fill="none" stroke="#707070" stroke-width="1"/>
    </clipPath>
  </defs>
  <g id="Cancel_leave" data-name="Cancel leave" transform="translate(-10939 14388)" clip-path="url(#clip-path)">
    <g id="Cancel_Request" data-name="Cancel Request" transform="translate(590.509 -790.726)">
      <path id="Path_30403" data-name="Path 30403" d="M24.215,300.044c1.308-8.3,3.071-10.784,7.507-10.747s6.283,2.567,7.485,10.461h9.051c.062-1.18.105-2.348.188-3.514.3-4.279,3.243-7.128,7.255-7.049,3.934.077,6.864,3.133,7.012,7.333.032.909,0,1.82,0,2.987h8.313c1.478-3.182,2.545-6.256,4.3-8.869.683-1.017,2.911-1.368,4.438-1.374,4.336-.017,5.933,2.409,7.127,10.318h9.22c0-1.15-.054-2.322.009-3.487a7.126,7.126,0,0,1,14.251-.052c.062,1.091.009,2.187.009,3.169,2.507.573,4.787.765,6.79,1.612,6.343,2.684,9.625,7.648,9.663,14.528.08,14.547.027,29.1.029,43.645,0,1.11-.6,37.754-.624,39.262-.166,9.56-.068,19.125-.09,28.688-.023,10.112-6.128,16.354-16.315,16.438-12.717.105-25.435.028-38.151.028-15.566,0-31.132-.06-46.7.026-7.214.04-12.756-2.667-15.587-9.445a21.409,21.409,0,0,1-1.24-8.037C8.082,389.95,8.269,353.934,8,317.92c-.073-9.778,5.539-17.571,16.214-17.876m86.482,5.6c-1.005,7.383-2.656,9.869-6.921,9.86-1.614,0-3.922-.416-4.7-1.506-1.708-2.4-2.642-5.356-4.041-8.409h-7.9c-1.435,7.755-3.011,9.888-7.277,10-4.3.112-5.934-1.976-7.819-10.2-2.149,0-4.371-.017-6.592.01-.692.008-1.383.134-2.034.2-1.426,7.759-2.959,9.993-7.207,9.918-1.528-.027-3.705-.412-4.427-1.444-1.7-2.427-2.694-5.342-4.269-8.687H39.776c-1.577,8.116-3.136,10.19-7.5,10.2-4.382.012-5.936-2.037-7.467-9.84-5.8-.783-10.309,3.6-10.314,10.236q-.043,55.394,0,110.788c.005,6.408,3.9,10.335,10.25,10.343q43.033.055,86.067,0c6.341-.008,10.212-3.931,10.268-10.317.065-7.426.021-14.853.009-22.28,0-.754.072-36.224.055-38.339-.1-12.106-.046-24.212-.047-36.319,0-4.883.1-9.769-.037-14.648-.162-5.983-4.427-9.9-10.366-9.567m-78.455,4.79c.7-.824,1.39-1.259,1.4-1.71.1-4.143.128-8.29.04-12.433-.009-.424-.914-.83-1.4-1.244-.379.536-1.074,1.064-1.087,1.608-.089,3.945-.07,7.894,0,11.84.009.5.52,1,1.047,1.939M57.195,302.5c0-1.818.118-3.648-.059-5.448-.069-.7-.8-1.331-1.234-1.994-.408.593-1.152,1.176-1.17,1.781q-.165,5.6,0,11.209c.018.634.712,1.249,1.093,1.873.458-.656,1.237-1.278,1.31-1.974a53.362,53.362,0,0,0,.065-5.448m23.708.072h-.019c0-2.02.08-4.046-.056-6.057-.034-.512-.754-.976-1.159-1.462-.424.473-1.2.938-1.214,1.423-.106,3.936-.124,7.878-.012,11.814.016.56.877,1.095,1.347,1.641.371-.635,1.007-1.247,1.062-1.908.149-1.806.051-3.633.051-5.451m23.71.093h.011c0-2.02.079-4.044-.052-6.054-.035-.536-.713-1.032-1.1-1.545-.453.438-1.288.867-1.3,1.316q-.155,6.05-.008,12.106c.012.487.8.954,1.231,1.431.4-.5,1.12-.976,1.158-1.5.141-1.907.055-3.831.055-5.75" transform="translate(10364 -13871.137)" fill="#0054a4"/>
      <path id="Path_30404" data-name="Path 30404" d="M73.53,381q-16.633,0-33.268,0c-.914,0-2.041.285-2.695-.139-1.055-.685-2.477-1.846-2.484-2.814s1.425-2.086,2.424-2.89c.445-.359,1.376-.139,2.087-.139q34.335-.007,68.671,0c.61,0,1.388-.2,1.8.1.978.713,2.5,1.686,2.478,2.516-.03,1.089-1.176,2.341-2.155,3.136-.575.466-1.76.228-2.67.229q-17.091.016-34.182.007" transform="translate(10358.003 -13890.169)" fill="#0054a4"/>
      <path id="Path_30405" data-name="Path 30405" d="M73.813,349.155q-17.374,0-34.748,0c-2.02,0-4.151-.011-4.172-2.748-.02-2.665,1.993-2.885,4.081-2.883q34.748.02,69.5,0c2.043,0,4.153.055,4.173,2.754.019,2.629-1.973,2.891-4.082,2.885q-17.374-.04-34.748-.012" transform="translate(10358.045 -13883.212)" fill="#0054a4"/>
      <path id="Path_30406" data-name="Path 30406" d="M64.03,406.993c8.233,0,16.466.026,24.7-.018,2.161-.012,4.053.386,4.041,2.958-.011,2.414-1.9,2.842-3.887,2.843q-25.156.006-50.313-.007c-2,0-3.78-.512-3.708-2.99.072-2.461,1.831-2.806,3.859-2.8,8.436.03,16.873.012,25.309.012" transform="translate(10358.052 -13897.262)" fill="#0054a4"/>
      <path id="Path_30407" data-name="Path 30407" d="M59.746,444.641c-6.917,0-13.835-.019-20.752.012-2.1.009-4.061-.221-4.122-2.871s1.935-3.071,4-3.074q20.905-.036,41.81-.016c2.151,0,4.05.583,3.982,3.116-.07,2.566-2.029,2.867-4.163,2.852-6.917-.052-13.835-.019-20.752-.019" transform="translate(10358.05 -13904.285)" fill="#0054a4"/>
      <path id="Path_30408" data-name="Path 30408" d="M175.823,446.647A31.921,31.921,0,1,1,143.9,414.726a31.92,31.92,0,0,1,31.921,31.921" transform="translate(10340.974 -13898.979)" fill="#fff"/>
      <path id="Ellipse_321" data-name="Ellipse 321" d="M32-3.5A35.5,35.5,0,1,1-3.5,32,35.54,35.54,0,0,1,32-3.5Zm0,64A28.5,28.5,0,1,0,3.5,32,28.532,28.532,0,0,0,32,60.5Z" transform="translate(10452.982 -13484.411)" fill="#0054a4"/>
      <g id="Group_3015" data-name="Group 3015" transform="translate(10462.668 -13452.332) rotate(-45)">
        <path id="Line_128" data-name="Line 128" d="M2.336,31.407A2.336,2.336,0,0,1,0,29.071V2.336a2.336,2.336,0,1,1,4.671,0V29.071A2.336,2.336,0,0,1,2.336,31.407Z" transform="translate(13.368 0)" fill="#0054a4"/>
        <path id="Line_129" data-name="Line 129" d="M29.071,4.671H2.336A2.336,2.336,0,1,1,2.336,0H29.071a2.336,2.336,0,0,1,0,4.671Z" transform="translate(0 13.368)" fill="#0054a4"/>
      </g>
    </g>
  </g>
</svg>
