<svg xmlns="http://www.w3.org/2000/svg" xmlns:xlink="http://www.w3.org/1999/xlink" width="192" height="192" viewBox="0 0 192 192">
  <defs>
    <clipPath id="clip-path">
      <rect id="Rectangle_1395" data-name="Rectangle 1395" width="192" height="192" transform="translate(10761 -13536)" fill="none" stroke="#707070" stroke-width="1"/>
    </clipPath>
    <clipPath id="clip-path-2">
      <rect id="Rectangle_1382" data-name="Rectangle 1382" width="38.539" height="38.682" fill="#0054a4"/>
    </clipPath>
  </defs>
  <g id="Change_request" data-name="Change request" transform="translate(-10761 13536)" clip-path="url(#clip-path)">
    <g id="Change_Request-2" data-name="Change Request" transform="translate(366.4 -298.712)">
      <g id="Group_3019" data-name="Group 3019" transform="translate(10410 -13231.137)">
        <path id="Path_30403" data-name="Path 30403" d="M25.718,301.068c1.429-9.071,3.355-11.784,8.2-11.744s6.865,2.8,8.179,11.431h9.891c.068-1.29.115-2.566.205-3.839.332-4.676,3.543-7.789,7.927-7.7,4.3.084,7.5,3.423,7.662,8.013.035.993.005,1.989.005,3.263h9.083c1.615-3.477,2.781-6.836,4.7-9.691.746-1.111,3.181-1.495,4.849-1.5,4.738-.019,6.483,2.632,7.788,11.275h10.075c0-1.257-.06-2.537.01-3.81a7.786,7.786,0,0,1,15.572-.057c.068,1.192.01,2.39.01,3.463,2.739.626,5.231.835,7.419,1.762,6.931,2.933,10.518,8.358,10.559,15.875.088,15.9.03,31.794.031,47.692,0,1.213-.653,41.254-.682,42.9-.181,10.446-.074,20.9-.1,31.348-.026,11.049-6.7,17.87-17.828,17.962-13.9.115-27.793.031-41.689.031-17.009,0-34.019-.065-51.027.028-7.883.043-13.939-2.915-17.033-10.321a23.393,23.393,0,0,1-1.355-8.782C8.089,399.31,8.294,359.954,8,320.6c-.08-10.684,6.053-19.2,17.718-19.534m94.5,6.122c-1.1,8.068-2.9,10.784-7.562,10.774-1.764,0-4.285-.454-5.133-1.645-1.867-2.626-2.887-5.852-4.416-9.189H94.475c-1.568,8.474-3.29,10.8-7.952,10.926-4.7.122-6.484-2.159-8.544-11.147-2.348,0-4.776-.019-7.2.011-.756.009-1.511.146-2.223.22-1.559,8.478-3.234,10.92-7.875,10.838-1.669-.03-4.049-.45-4.837-1.578-1.854-2.652-2.944-5.838-4.665-9.493H42.722C41,315.775,39.3,318.041,34.528,318.055c-4.788.014-6.486-2.226-8.159-10.753-6.338-.856-11.265,3.935-11.271,11.186q-.047,60.53,0,121.06c.006,7,4.261,11.293,11.2,11.3q47.023.06,94.047,0c6.928-.009,11.159-4.3,11.22-11.274.071-8.114.023-16.23.01-24.346,0-.824.078-39.582.06-41.894-.105-13.228-.05-26.457-.052-39.686,0-5.336.1-10.675-.04-16.007-.177-6.538-4.837-10.819-11.328-10.454M34.49,312.423c.764-.9,1.519-1.376,1.531-1.869.111-4.528.14-9.059.043-13.585-.009-.464-1-.907-1.533-1.359-.414.585-1.174,1.163-1.188,1.758-.1,4.311-.077,8.626,0,12.938.01.549.568,1.088,1.144,2.118m27.266-8.67c0-1.987.128-3.986-.065-5.953-.075-.763-.877-1.455-1.348-2.179-.446.648-1.259,1.285-1.279,1.947q-.18,6.12-.005,12.248c.02.693.778,1.365,1.194,2.047.5-.716,1.352-1.4,1.431-2.157a58.308,58.308,0,0,0,.071-5.953m25.906.078H87.64c0-2.208.088-4.421-.061-6.619-.037-.559-.824-1.067-1.267-1.6-.463.517-1.312,1.025-1.326,1.555-.116,4.3-.135,8.609-.013,12.909.017.612.958,1.2,1.472,1.793.4-.693,1.1-1.363,1.16-2.085.162-1.974.056-3.97.056-5.956m25.908.1h.012c0-2.207.087-4.419-.057-6.615-.038-.586-.779-1.127-1.2-1.689-.5.479-1.407.947-1.42,1.438q-.17,6.612-.009,13.228c.014.532.876,1.043,1.345,1.564.442-.546,1.223-1.067,1.266-1.643.154-2.084.06-4.186.06-6.283" transform="translate(-8 -289)" fill="#0054a4"/>
        <path id="Path_30404" data-name="Path 30404" d="M77.094,381.56q-18.176,0-36.352,0c-1,0-2.23.311-2.944-.152-1.153-.749-2.707-2.017-2.715-3.075s1.557-2.279,2.648-3.158c.487-.392,1.5-.152,2.28-.152q37.519-.008,75.038,0c.666,0,1.517-.216,1.962.108,1.069.779,2.733,1.842,2.708,2.75-.033,1.19-1.285,2.558-2.355,3.427-.629.51-1.923.249-2.918.25q-18.676.018-37.352.008" transform="translate(-12.042 -301.828)" fill="#0054a4"/>
        <path id="Path_30405" data-name="Path 30405" d="M77.421,349.676q-18.985,0-37.97,0c-2.207,0-4.536-.012-4.559-3-.022-2.912,2.178-3.152,4.46-3.15q37.969.022,75.94,0c2.232,0,4.538.06,4.56,3.009.021,2.873-2.156,3.159-4.46,3.153q-18.985-.043-37.97-.014" transform="translate(-12.014 -297.139)" fill="#0054a4"/>
        <path id="Path_30406" data-name="Path 30406" d="M66.735,406.995c9,0,17.993.028,26.99-.02,2.362-.013,4.429.422,4.415,3.233-.012,2.638-2.08,3.106-4.247,3.107q-27.489.006-54.978-.008c-2.191,0-4.13-.56-4.052-3.268.078-2.689,2-3.066,4.216-3.058,9.219.032,18.437.014,27.656.014" transform="translate(-12.009 -306.609)" fill="#0054a4"/>
        <path id="Path_30407" data-name="Path 30407" d="M62.052,445.193c-7.559,0-15.118-.02-22.676.013-2.292.009-4.437-.242-4.5-3.137s2.115-3.355,4.369-3.359q22.844-.04,45.686-.017c2.351,0,4.426.637,4.351,3.4-.077,2.8-2.217,3.133-4.549,3.116-7.559-.057-15.118-.021-22.676-.021" transform="translate(-12.011 -311.343)" fill="#0054a4"/>
        <path id="Path_30408" data-name="Path 30408" d="M181.743,449.606a34.88,34.88,0,1,1-34.88-34.88,34.88,34.88,0,0,1,34.88,34.88" transform="translate(-23.52 -307.766)" fill="#fff"/>
        <path id="Ellipse_321" data-name="Ellipse 321" d="M34.358-3.5A37.858,37.858,0,1,1-3.5,34.358,37.9,37.9,0,0,1,34.358-3.5Zm0,69.761a31.9,31.9,0,1,0-31.9-31.9A31.939,31.939,0,0,0,34.358,66.261Z" transform="translate(88.984 107.481)" fill="#0054a4"/>
      </g>
      <g id="Group_3021" data-name="Group 3021" transform="translate(10514.353 -13108.379)">
        <g id="Group_3020" data-name="Group 3020" clip-path="url(#clip-path-2)">
          <path id="Path_30412" data-name="Path 30412" d="M3.2,206.816c-.067.711-.125,1.293-.176,1.874-.1,1.067-.74,1.69-1.669,1.607a1.548,1.548,0,0,1-1.34-1.9c.249-2.593.462-5.191.744-7.78a1.453,1.453,0,0,1,2.405-1.045q3.217,2.268,6.4,4.583a1.479,1.479,0,0,1,.392,2.156,1.509,1.509,0,0,1-2.179.275A19.979,19.979,0,0,0,5.9,205.367c.128.193.245.393.384.577a15.516,15.516,0,0,0,13.675,6.631c5.959-.274,10.4-3.216,13.384-8.372.084-.145.155-.3.24-.441a1.5,1.5,0,1,1,2.653,1.416,18.777,18.777,0,0,1-5.191,6.348A18.924,18.924,0,0,1,3.61,207.371c-.1-.149-.216-.292-.413-.556" transform="translate(0 -176.968)" fill="#0054a4"/>
          <path id="Path_30413" data-name="Path 30413" d="M49.442,10.331A13.288,13.288,0,0,0,45.965,6.4,15.983,15.983,0,0,0,22.077,11.46c-.062.115-.122.23-.186.343a1.508,1.508,0,1,1-2.663-1.4A19.011,19.011,0,0,1,51.8,8.246c.112.162.228.321.434.611.069-.748.125-1.335.177-1.921a1.525,1.525,0,1,1,3.01.273c-.245,2.594-.46,5.191-.741,7.781a1.46,1.46,0,0,1-2.428,1.07q-3.192-2.255-6.356-4.549a1.487,1.487,0,0,1-.407-2.194,1.513,1.513,0,0,1,2.183-.248c.306.211.606.433.908.649l.861.613" transform="translate(-16.894 0.001)" fill="#0054a4"/>
        </g>
      </g>
    </g>
  </g>
</svg>
