<svg id="Checkin" xmlns="http://www.w3.org/2000/svg" width="18.759" height="20" viewBox="0 0 18.759 20">
  <path id="Path_6565" data-name="Path 6565" d="M329.9,477.705H327.83c-1.719,0-3.439,0-5.158,0a.872.872,0,0,1-.816-1.334.927.927,0,0,1,.876-.424q3.4.005,6.8,0h.287l.061-.077c-.295-.274-.6-.535-.881-.826a.832.832,0,0,1-.119-1,.879.879,0,0,1,.886-.445.892.892,0,0,1,.533.28c.768.765,1.539,1.527,2.3,2.3a.85.85,0,0,1,0,1.3q-1.138,1.161-2.3,2.3a.877.877,0,1,1-1.242-1.236C329.31,478.272,329.581,478.02,329.9,477.705Z" transform="translate(-321.717 -466.826)"/>
  <path id="Path_6566" data-name="Path 6566" d="M429.51,423.788" transform="translate(-423.189 -419.945)" fill="none" stroke="#000" stroke-miterlimit="10" stroke-width="30"/>
  <path id="Path_6567" data-name="Path 6567" d="M408.554,378.243h-9.1a2.632,2.632,0,0,1-2.629-2.629v-2.335a.938.938,0,0,1,1.876,0v2.335a.753.753,0,0,0,.752.752h9.1a.753.753,0,0,0,.752-.752V360.871a.753.753,0,0,0-.752-.752h-9.1a.753.753,0,0,0-.752.752v2.119a.938.938,0,0,1-1.876,0v-2.119a2.632,2.632,0,0,1,2.629-2.629h9.1a2.631,2.631,0,0,1,2.629,2.629v14.743A2.631,2.631,0,0,1,408.554,378.243Z" transform="translate(-392.423 -358.243)"/>
</svg>
