<svg id="Checkout" xmlns="http://www.w3.org/2000/svg" width="18.759" height="19.999" viewBox="0 0 18.759 19.999">
  <path id="Path_6565" data-name="Path 6565" d="M324.71,477.7h2.073c1.719,0,3.439,0,5.158,0a.872.872,0,0,0,.816-1.334.927.927,0,0,0-.876-.424q-3.4.005-6.8,0H324.8l-.061-.077c.295-.274.6-.535.881-.826a.831.831,0,0,0,.119-1,.879.879,0,0,0-.886-.445.892.892,0,0,0-.533.28c-.768.765-1.539,1.527-2.3,2.3a.85.85,0,0,0,0,1.3q1.138,1.161,2.3,2.3a.877.877,0,1,0,1.242-1.236C325.3,478.272,325.033,478.02,324.71,477.7Z" transform="translate(-321.717 -466.827)"/>
  <path id="Path_6566" data-name="Path 6566" d="M429.51,423.788" transform="translate(-423.189 -419.945)" fill="none" stroke="#000" stroke-miterlimit="10" stroke-width="30"/>
  <path id="Path_6567" data-name="Path 6567" d="M408.554,378.242h-9.1a2.631,2.631,0,0,1-2.629-2.628v-2.335a.938.938,0,0,1,1.876,0v2.335a.753.753,0,0,0,.752.752h9.1a.753.753,0,0,0,.752-.752V360.871a.753.753,0,0,0-.752-.752h-9.1a.753.753,0,0,0-.752.752v2.119a.938.938,0,0,1-1.876,0v-2.119a2.632,2.632,0,0,1,2.629-2.628h9.1a2.631,2.631,0,0,1,2.629,2.628v14.742A2.631,2.631,0,0,1,408.554,378.242Z" transform="translate(-392.423 -358.243)"/>
</svg>
