<svg xmlns="http://www.w3.org/2000/svg" width="34.863" height="41.898" viewBox="0 0 34.863 41.898">
  <g id="Group_1280" data-name="Group 1280" transform="translate(-289.8 -305.801)">
    <path id="Path_78" data-name="Path 78" d="M1335.719,1008.227c0-.6,0-1.115,0-1.632,0-.93.2-1.131,1.119-1.131h14.929c1.219,0,2.439-.03,3.656.019a1.622,1.622,0,0,1,1,.406q4.641,4.6,9.224,9.255a1.572,1.572,0,0,1,.407,1q.033,12.83.016,25.66c0,.79-.209,1-.987,1.006-1.016.008-2.031,0-3.126,0,0,1.03,0,2,0,2.973,0,.993-.186,1.174-1.2,1.174h-28c-.994,0-1.151-.154-1.152-1.141q0-18.226,0-36.452c0-.98.16-1.133,1.16-1.134Zm28.933,33.161v-24.861h-8.426c-1.054,0-1.2-.147-1.2-1.224q0-3.867,0-7.733v-.681H1337.17v34.5Zm-4.139,1.419h-23.549c-1.1,0-1.245-.147-1.246-1.243v-31.894h-2.714v35.845h27.508Zm-4.031-34.724v7.017h7.067Z" transform="translate(-1041.603 -699.455)" fill="#0054a4" stroke="#0054a4" stroke-width="0.4"/>
    <path id="Path_79" data-name="Path 79" d="M1444.18,1220.257h-7.794a3.778,3.778,0,0,1-.538-.019.679.679,0,0,1,.036-1.354,4.564,4.564,0,0,1,.479-.018h15.886c.473,0,.839.161.889.684.039.421-.335.7-.924.7Q1448.2,1220.262,1444.18,1220.257Z" transform="translate(-1132.812 -887.274)" fill="#0054a4" stroke="rgba(0,0,0,0)" stroke-width="1"/>
    <path id="Path_80" data-name="Path 80" d="M1444.108,1149.663h7.732a4.743,4.743,0,0,1,.539.012.672.672,0,0,1,.683.694c-.006.42-.3.634-.7.674-.158.015-.319.011-.479.011h-15.524c-.837,0-1.181-.2-1.2-.677-.016-.5.34-.714,1.217-.714Z" transform="translate(-1132.74 -826.371)" fill="#0054a4" stroke="rgba(0,0,0,0)" stroke-width="1"/>
    <path id="Path_81" data-name="Path 81" d="M1444.292,1254.831q-3.867,0-7.734,0c-.219,0-.49.049-.644-.058a1.08,1.08,0,0,1-.48-.655c-.013-.2.248-.472.456-.609a1.29,1.29,0,0,1,.644-.059q7.824,0,15.648,0h.3c.465,0,.812.2.821.68s-.331.7-.8.7c-.879,0-1.759,0-2.638,0Z" transform="translate(-1132.983 -917.702)" fill="#0054a4" stroke="rgba(0,0,0,0)" stroke-width="1"/>
    <path id="Path_82" data-name="Path 82" d="M1444.427,1185.559q-3.861,0-7.722,0c-.2,0-.449.065-.587-.03-.249-.17-.6-.441-.594-.666s.362-.475.606-.661c.1-.078.309-.024.469-.024h15.683c.06,0,.12,0,.18,0,.587.014.97.281.928.7-.056.551-.442.689-.941.688C1449.774,1185.556,1447.1,1185.559,1444.427,1185.559Z" transform="translate(-1133.063 -856.731)" fill="#0054a4" stroke="rgba(0,0,0,0)" stroke-width="1"/>
    <path id="Path_83" data-name="Path 83" d="M1444.38,1116.383q-3.921,0-7.841,0c-.2,0-.451.053-.584-.046-.216-.16-.488-.426-.487-.647s.274-.489.495-.636c.157-.1.425-.054.644-.054q7.782,0,15.563,0h.12c.691.008,1.061.252,1.057.7s-.367.686-1.065.687Q1448.331,1116.385,1444.38,1116.383Z" transform="translate(-1133.013 -795.854)" fill="#0054a4" stroke="rgba(0,0,0,0)" stroke-width="1"/>
    <path id="Path_84" data-name="Path 84" d="M1400.68,1060.159c0-.638,0-1.276,0-1.915a.712.712,0,0,1,.81-.807c1.276,0,2.553-.008,3.829,0,.6,0,.853.238.859.827.016,1.3.01,2.593,0,3.889a.733.733,0,0,1-.825.809c-1.3,0-2.593,0-3.89,0a.713.713,0,0,1-.788-.83C1400.685,1061.475,1400.68,1060.817,1400.68,1060.159Zm4.071-1.286h-2.686v2.675h2.686Z" transform="translate(-1102.395 -745.201)" fill="#0054a4" stroke="rgba(0,0,0,0)" stroke-width="1"/>
    <path id="Path_85" data-name="Path 85" d="M1402.461,1218.738a2,2,0,0,1,.751.07c.232.121.543.4.532.6a.879.879,0,0,1-.508.67,4.785,4.785,0,0,1-1.66,0,.872.872,0,0,1-.482-.678c-.007-.2.295-.482.525-.59A2.433,2.433,0,0,1,1402.461,1218.738Z" transform="translate(-1102.762 -887.163)" fill="#0054a4" stroke="rgba(0,0,0,0)" stroke-width="1"/>
    <path id="Path_86" data-name="Path 86" d="M1402.126,1253.368c.257,0,.563-.087.761.022.256.141.587.44.586.669s-.35.577-.6.637a5.193,5.193,0,0,1-1.419.03.626.626,0,0,1-.659-.688.647.647,0,0,1,.68-.674c.216-.018.435,0,.654,0Z" transform="translate(-1102.495 -917.612)" fill="#0054a4" stroke="rgba(0,0,0,0)" stroke-width="1"/>
    <path id="Path_87" data-name="Path 87" d="M1402.343,1151a1.942,1.942,0,0,1-.743-.072c-.226-.121-.521-.405-.51-.6a.876.876,0,0,1,.5-.666,4.485,4.485,0,0,1,1.6-.008.863.863,0,0,1,.549.634c0,.22-.305.518-.548.644A2.286,2.286,0,0,1,1402.343,1151Z" transform="translate(-1102.758 -826.305)" fill="#0054a4" stroke="rgba(0,0,0,0)" stroke-width="1"/>
    <path id="Path_88" data-name="Path 88" d="M1402.154,1185.657c-.237,0-.477.018-.713,0a.633.633,0,0,1-.643-.7.616.616,0,0,1,.635-.649,12.735,12.735,0,0,1,1.425,0c.417.023.717.308.634.694-.055.253-.375.5-.635.64-.183.1-.465.02-.7.02Z" transform="translate(-1102.501 -856.839)" fill="#0054a4" stroke="rgba(0,0,0,0)" stroke-width="1"/>
    <path id="Path_89" data-name="Path 89" d="M1402.33,1116.351c-.238,0-.525.085-.7-.02-.236-.14-.528-.424-.529-.649a.844.844,0,0,1,.518-.638,4.468,4.468,0,0,1,1.591,0,.853.853,0,0,1,.539.632c0,.226-.3.539-.539.65A2.309,2.309,0,0,1,1402.33,1116.351Z" transform="translate(-1102.767 -795.84)" fill="#0054a4" stroke="rgba(0,0,0,0)" stroke-width="1"/>
  </g>
</svg>
