<svg xmlns="http://www.w3.org/2000/svg" xmlns:xlink="http://www.w3.org/1999/xlink" width="192" height="192" viewBox="0 0 192 192">
  <defs>
    <clipPath id="clip-path">
      <rect id="Rectangle_1388" data-name="Rectangle 1388" width="192" height="192" transform="translate(10292 -14246)" fill="none" stroke="#707070" stroke-width="1"/>
    </clipPath>
  </defs>
  <g id="Draft_leave" data-name="Draft leave" transform="translate(-10292 14246)" clip-path="url(#clip-path)">
    <g id="Draft_leave-2" data-name="Draft leave" transform="translate(189.436 -55.78)">
      <path id="Path_30398" data-name="Path 30398" d="M17.852,12.159C19.293,3.019,21.233.286,26.117.327s6.917,2.826,8.241,11.517h9.966c.068-1.3.115-2.585.207-3.868C44.865,3.264,48.1.128,52.518.214c4.331.085,7.557,3.449,7.72,8.074.035,1,.005,2,.005,3.288h9.152c1.627-3.5,2.8-6.887,4.733-9.764C74.879.693,77.333.306,79.014.3c4.774-.019,6.532,2.653,7.847,11.36H97.013c0-1.266-.06-2.556.01-3.839a7.845,7.845,0,0,1,15.69-.057c.069,1.2.01,2.407.01,3.489,2.76.631,5.271.842,7.476,1.775,6.983,2.956,10.6,8.421,10.639,16,.088,16.017.029,32.035.031,48.053,0,1.222,0,2.446,0,4.489,1.245-1.125,2.032-1.788,2.764-2.506,4.233-4.159,8.4-8.384,12.691-12.484,4.6-4.4,10.735-4.373,15.31.005a28.656,28.656,0,0,1,4.054,4.457c2.778,4.115,2,8.776-1.933,12.72-10.523,10.542-21.107,21.022-31.531,31.661a7.841,7.841,0,0,0-2.041,4.887c-.183,10.526-.075,21.057-.1,31.586-.026,11.134-6.747,18.005-17.964,18.1-14,.116-28,.031-42,.031-17.139,0-34.276-.066-51.414.028-7.943.044-14.045-2.937-17.162-10.4A23.568,23.568,0,0,1,.175,150.8C.09,111.145.3,71.492,0,31.842-.08,21.076,6.1,12.5,17.852,12.159m95.216,6.168c-1.107,8.129-2.925,10.866-7.62,10.855-1.777,0-4.318-.458-5.171-1.658-1.881-2.645-2.909-5.9-4.45-9.258h-8.7c-1.579,8.538-3.314,10.886-8.011,11.009-4.736.123-6.533-2.176-8.609-11.232-2.367,0-4.812-.018-7.259.011-.761.009-1.522.147-2.239.222-1.57,8.543-3.258,11-7.935,10.92-1.682-.029-4.08-.453-4.874-1.59-1.868-2.672-2.966-5.882-4.7-9.564H34.985c-1.736,8.937-3.453,11.22-8.256,11.233-4.824.014-6.536-2.242-8.221-10.834-6.386-.862-11.35,3.964-11.356,11.27Q7.1,90.7,7.154,151.688c.007,7.055,4.294,11.378,11.286,11.388q47.38.06,94.759,0c6.98-.009,11.243-4.328,11.3-11.359.072-8.176.024-16.353.011-24.53,0-.83-.119-1.66-.183-2.489l-.962-.657c-1.893,2.17-3.7,4.425-5.714,6.475a8.284,8.284,0,0,1-3.555,2.328c-5.311,1.328-10.67,2.487-16.047,3.524-3.131.6-4.715-1.115-4.055-4.26,1.031-4.924,2.053-9.858,3.374-14.707a11.482,11.482,0,0,1,2.78-4.781q10.9-11.181,22.079-22.1a7,7,0,0,0,2.343-5.545c-.106-13.328-.051-26.658-.052-39.987,0-5.376.1-10.756-.04-16.128-.178-6.587-4.874-10.9-11.413-10.533m28.455,62.949L106.5,116.185c2.5,2.7,5.195,5.606,7.332,7.914l35.1-34.929c-2.42-2.578-5.088-5.42-7.41-7.893m4.417-5.485,8.316,8.912c7.394-6.014,8.249-8.158,4.781-11.821-4.853-5.123-6.18-4.809-13.1,2.909M26.689,23.6c.771-.908,1.533-1.386,1.545-1.883.111-4.562.141-9.127.043-13.688-.01-.467-1.006-.914-1.545-1.37-.417.591-1.183,1.172-1.2,1.771-.1,4.343-.077,8.691,0,13.036.009.553.572,1.1,1.152,2.134m27.473-8.736c0-2,.129-4.016-.065-6-.075-.769-.884-1.466-1.358-2.2-.45.653-1.269,1.3-1.288,1.961q-.181,6.167-.005,12.341c.02.7.783,1.376,1.2,2.062.5-.722,1.362-1.407,1.442-2.173a58.508,58.508,0,0,0,.071-6m26.1.079h-.021c0-2.224.087-4.455-.062-6.669-.038-.563-.831-1.075-1.277-1.61-.465.522-1.321,1.033-1.336,1.567-.117,4.334-.137,8.674-.014,13.008.018.615.966,1.205,1.483,1.806.409-.7,1.11-1.373,1.17-2.1.163-1.989.056-4,.056-6m26.106.1h.012c0-2.223.087-4.451-.057-6.665-.039-.591-.785-1.135-1.207-1.7-.5.482-1.418.953-1.431,1.448q-.171,6.662-.009,13.328c.014.536.883,1.051,1.355,1.576.446-.55,1.232-1.075,1.275-1.655.156-2.1.062-4.218.062-6.33M101.218,129.3l6.121-1.505-4.711-5.07c-.477,2.225-.87,4.055-1.41,6.575" transform="translate(10115 -14179)" fill="#0054a4"/>
      <path id="Path_30399" data-name="Path 30399" d="M69.412,92.61q-18.313,0-36.627,0c-1.006,0-2.247.314-2.967-.153-1.161-.754-2.728-2.032-2.735-3.1s1.569-2.3,2.668-3.182c.49-.4,1.515-.153,2.3-.153q37.8-.008,75.606,0c.671,0,1.528-.218,1.977.109,1.077.785,2.753,1.856,2.728,2.77-.033,1.2-1.294,2.578-2.373,3.453-.633.513-1.937.251-2.939.252q-18.819.018-37.636.008" transform="translate(10111.133 -14191.274)" fill="#0054a4"/>
      <path id="Path_30400" data-name="Path 30400" d="M69.743,60.723q-19.128,0-38.258,0c-2.224,0-4.571-.012-4.594-3.025-.022-2.934,2.194-3.176,4.493-3.174q38.257.022,76.516,0c2.249,0,4.572.059,4.595,3.032.021,2.895-2.172,3.183-4.494,3.177q-19.128-.044-38.258-.014" transform="translate(10111.159 -14186.787)" fill="#0054a4"/>
      <path id="Path_30401" data-name="Path 30401" d="M58.976,117.995c9.065,0,18.129.028,27.194-.02,2.38-.013,4.462.425,4.449,3.257-.012,2.658-2.1,3.13-4.279,3.13q-27.7.006-55.395-.008c-2.207,0-4.162-.564-4.083-3.292.079-2.71,2.016-3.089,4.248-3.082,9.288.033,18.577.014,27.865.014" transform="translate(10111.163 -14195.849)" fill="#0054a4"/>
      <path id="Path_30402" data-name="Path 30402" d="M54.258,156.242c-7.616,0-15.232-.021-22.848.013-2.309.009-4.471-.243-4.538-3.16s2.131-3.381,4.4-3.384q23.017-.04,46.033-.017c2.368,0,4.459.642,4.384,3.43-.077,2.825-2.234,3.157-4.583,3.14-7.616-.057-15.232-.021-22.848-.021" transform="translate(10111.163 -14200.379)" fill="#0054a4"/>
    </g>
  </g>
</svg>
