<svg xmlns="http://www.w3.org/2000/svg" xmlns:xlink="http://www.w3.org/1999/xlink" width="192" height="192" viewBox="0 0 192 192">
  <defs>
    <clipPath id="clip-path">
      <rect id="Rectangle_1392" data-name="Rectangle 1392" width="192" height="192" transform="translate(10620 -13446)" fill="none" stroke="#707070" stroke-width="1"/>
    </clipPath>
    <clipPath id="clip-path-2">
      <rect id="Rectangle_1383" data-name="Rectangle 1383" width="79.753" height="80.14" fill="#0054a4"/>
    </clipPath>
  </defs>
  <g id="In_Review_leave" data-name="In Review leave" transform="translate(-10620 13446)" clip-path="url(#clip-path)">
    <g id="In_Review_leave-2" data-name="In Review leave" transform="translate(-21.991 -268.863)">
      <g id="Group_3019" data-name="Group 3019" transform="translate(10658.991 -13169.137)">
        <path id="Path_30403" data-name="Path 30403" d="M24.944,300.54c1.367-8.675,3.209-11.268,7.844-11.23s6.565,2.682,7.821,10.931h9.458c.065-1.233.11-2.454.2-3.672.317-4.471,3.388-7.449,7.581-7.366,4.111.081,7.172,3.274,7.327,7.663.033.949,0,1.9,0,3.121h8.686c1.544-3.325,2.659-6.537,4.492-9.267.713-1.063,3.042-1.429,4.637-1.436,4.531-.018,6.2,2.517,7.447,10.782h9.635c0-1.2-.057-2.426.01-3.644a7.446,7.446,0,0,1,14.891-.054c.065,1.14.01,2.285.01,3.312,2.62.6,5,.8,7.095,1.685,6.628,2.805,10.058,7.992,10.1,15.181.084,15.2.028,30.4.03,45.606,0,1.16-.625,39.45-.652,41.027-.173,9.99-.071,19.985-.094,29.977-.024,10.566-6.4,17.088-17.049,17.176-13.288.11-26.578.029-39.866.029-16.265,0-32.531-.063-48.8.027-7.538.042-13.329-2.787-16.288-9.87a22.371,22.371,0,0,1-1.3-8.4c-.081-37.634.116-75.268-.165-112.9C7.924,309,13.789,300.859,24.944,300.54m90.368,5.854c-1.05,7.715-2.776,10.312-7.232,10.3-1.686,0-4.1-.434-4.908-1.573-1.785-2.511-2.761-5.6-4.223-8.787H90.694c-1.5,8.1-3.146,10.332-7.6,10.448-4.495.117-6.2-2.065-8.17-10.66-2.245,0-4.567-.018-6.888.011-.723.008-1.445.14-2.126.211-1.49,8.108-3.092,10.443-7.531,10.364-1.6-.028-3.872-.43-4.626-1.509-1.773-2.536-2.815-5.583-4.461-9.078H41.2c-1.647,8.481-3.277,10.648-7.836,10.661-4.579.013-6.2-2.128-7.8-10.282-6.061-.818-10.772,3.763-10.778,10.7q-.045,57.883,0,115.767c.006,6.7,4.075,10.8,10.711,10.808q44.967.057,89.935,0c6.625-.008,10.671-4.108,10.73-10.781.068-7.76.022-15.521.01-23.281,0-.788.075-37.852.057-40.062-.1-12.65-.048-25.3-.05-37.951,0-5.1.1-10.208-.038-15.307-.169-6.252-4.626-10.346-10.832-10m-81.981,5c.731-.862,1.453-1.316,1.464-1.787.107-4.33.134-8.663.041-12.992-.009-.443-.955-.867-1.466-1.3-.4.56-1.123,1.112-1.136,1.681-.093,4.122-.073,8.249,0,12.372.01.525.543,1.041,1.094,2.026m26.074-8.291c0-1.9.123-3.811-.062-5.693-.072-.73-.839-1.391-1.289-2.083-.426.62-1.2,1.229-1.223,1.861q-.172,5.853,0,11.713c.019.662.744,1.3,1.142,1.957.478-.685,1.293-1.335,1.368-2.062a55.761,55.761,0,0,0,.068-5.692m24.773.075h-.02c0-2.111.084-4.228-.059-6.329-.036-.534-.788-1.02-1.211-1.528-.443.495-1.254.98-1.268,1.487-.111,4.113-.129,8.232-.012,12.345.016.585.916,1.144,1.407,1.715.387-.663,1.053-1.3,1.11-1.994.155-1.887.054-3.8.054-5.7m24.776.1h.011c0-2.11.083-4.226-.054-6.326-.037-.561-.745-1.078-1.145-1.615-.473.458-1.346.905-1.358,1.375q-.162,6.322-.008,12.65c.013.508.838,1,1.286,1.5.423-.522,1.17-1.02,1.211-1.571.147-1.993.058-4,.058-6.008" transform="translate(-8 -289)" fill="#0054a4"/>
        <path id="Path_30404" data-name="Path 30404" d="M75.257,381.271q-17.381,0-34.763,0c-.955,0-2.132.3-2.816-.146-1.1-.716-2.589-1.929-2.6-2.94s1.489-2.18,2.533-3.02c.465-.375,1.438-.146,2.18-.146q35.878-.007,71.757,0c.637,0,1.451-.207,1.876.1,1.022.745,2.613,1.761,2.59,2.629-.032,1.138-1.228,2.446-2.252,3.277-.6.487-1.839.238-2.79.239q-17.859.017-35.719.007" transform="translate(-13.05 -305.026)" fill="#0054a4"/>
        <path id="Path_30405" data-name="Path 30405" d="M75.562,349.408q-18.155,0-36.31,0c-2.11,0-4.338-.011-4.36-2.871-.021-2.785,2.083-3.014,4.265-3.013q36.309.021,72.62,0c2.135,0,4.339.057,4.361,2.878.02,2.747-2.062,3.021-4.265,3.015q-18.155-.042-36.31-.013" transform="translate(-13.014 -299.167)" fill="#0054a4"/>
        <path id="Path_30406" data-name="Path 30406" d="M65.341,406.994c8.6,0,17.206.027,25.81-.019,2.258-.012,4.235.4,4.222,3.092-.011,2.523-1.989,2.97-4.061,2.971q-26.287.006-52.574-.007c-2.095,0-3.95-.535-3.875-3.125.075-2.572,1.913-2.932,4.032-2.925,8.816.031,17.631.013,26.447.013" transform="translate(-13.008 -310.997)" fill="#0054a4"/>
        <path id="Path_30407" data-name="Path 30407" d="M60.864,444.908c-7.228,0-14.457-.02-21.685.012-2.192.009-4.243-.231-4.307-3s2.022-3.209,4.178-3.212q21.845-.038,43.689-.016c2.248,0,4.232.609,4.16,3.256-.073,2.681-2.12,3-4.35,2.98-7.228-.055-14.457-.02-21.685-.02" transform="translate(-13.01 -316.912)" fill="#0054a4"/>
        <path id="Path_30408" data-name="Path 30408" d="M171.088,444.279a29.553,29.553,0,1,1-29.553-29.553,29.553,29.553,0,0,1,29.553,29.553" transform="translate(-32.526 -318.719)" fill="#fff"/>
      </g>
      <g id="Group_3024" data-name="Group 3024" transform="translate(10737.132 -13073.287)">
        <g id="Group_3023" data-name="Group 3023" clip-path="url(#clip-path-2)">
          <path id="Path_30414" data-name="Path 30414" d="M48.346,57.489a31.389,31.389,0,0,1-43-8.553C-3.056,36.489-1.421,19.225,9.311,9,20.9-2.05,37.516-3.037,50.24,6.665a31.351,31.351,0,0,1,6.938,41.9c.266.282.542.59.833.883q9.75,9.784,19.5,19.568c2.163,2.174,2.789,4.836,1.753,7.27a6.119,6.119,0,0,1-9.72,2.313c-3.489-3.2-6.751-6.653-10.1-10.006q-5.15-5.152-10.283-10.32c-.268-.269-.55-.526-.814-.779M31.085,3.184a28.142,28.142,0,1,0,28.074,28.1,28.133,28.133,0,0,0-28.074-28.1m26.483,59.2c1.229,1.2,2.564,2.471,3.868,3.773,3.245,3.239,6.457,6.512,9.72,9.732,1.774,1.751,4.337,1.31,5.225-.864a3.176,3.176,0,0,0-.933-3.665Q68.873,64.779,62.3,58.193a1.446,1.446,0,0,0-.3-.217l-4.436,4.41m2-6.507-4.3-4.293L51.252,55.55,55.5,59.81l4.067-3.932" transform="translate(0 0)" fill="#0054a4"/>
          <path id="Path_30415" data-name="Path 30415" d="M76.641,52.155A24.947,24.947,0,1,1,51.6,27.144,25.02,25.02,0,0,1,76.641,52.155M29.849,52.2a21.812,21.812,0,1,0,21.8-21.888A22.027,22.027,0,0,0,29.849,52.2" transform="translate(-20.56 -20.864)" fill="#0054a4"/>
          <path id="Path_30416" data-name="Path 30416" d="M130.119,54.126c7.64.679,13.2,4.367,16.455,11.4a3.981,3.981,0,0,1,.172.429,1.668,1.668,0,0,1-.772,2.25c-.833.345-1.618-.081-2.133-1.066a24.746,24.746,0,0,0-1.98-3.5,15.162,15.162,0,0,0-11.8-6.31l-.116,0c-1.378-.071-2.125-.646-2.113-1.631.012-1.03.834-1.59,2.286-1.569" transform="translate(-98.262 -41.605)" fill="#0054a4"/>
          <path id="Path_30417" data-name="Path 30417" d="M204.994,130.2a1.649,1.649,0,0,1-1.561,1.557,1.717,1.717,0,0,1-1.564-1.564,1.563,1.563,0,0,1,3.125.007" transform="translate(-155.171 -98.885)" fill="#0054a4"/>
        </g>
      </g>
    </g>
  </g>
</svg>
