<svg xmlns="http://www.w3.org/2000/svg" width="23" height="35" viewBox="0 0 23 35">
  <g id="Group_1230" data-name="Group 1230" transform="translate(-253 -175)">
    <path id="Rectangle_190" data-name="Rectangle 190" d="M4,0H4A4,4,0,0,1,8,4V20a0,0,0,0,1,0,0H0a0,0,0,0,1,0,0V4A4,4,0,0,1,4,0Z" transform="translate(253 190)" fill="red"/>
    <path id="Rectangle_191" data-name="Rectangle 191" d="M3.5,0h0A3.5,3.5,0,0,1,7,3.5V26a0,0,0,0,1,0,0H0a0,0,0,0,1,0,0V3.5A3.5,3.5,0,0,1,3.5,0Z" transform="translate(261 184)" fill="#ffa72c"/>
    <path id="Rectangle_192" data-name="Rectangle 192" d="M4,0H4A4,4,0,0,1,8,4V35a0,0,0,0,1,0,0H0a0,0,0,0,1,0,0V4A4,4,0,0,1,4,0Z" transform="translate(268 175)" fill="#00a94f"/>
  </g>
</svg>
