<svg xmlns="http://www.w3.org/2000/svg" width="41.908" height="43.092" viewBox="0 0 41.908 43.092">
  <g id="Leave_req" data-name="Leave req" transform="translate(-468.815 -434.294)">
    <path id="Path_30418" data-name="Path 30418" d="M490.906,561.231v2.7c-.367.023-.678.06-.989.06-5.325,0-10.651.027-15.976-.021a7.107,7.107,0,0,1-2.7-.528,3.894,3.894,0,0,1-2.179-5.059,18.682,18.682,0,0,1,16.215-12.275,19.646,19.646,0,0,1,12.3,3.237,3.263,3.263,0,0,1,.85.814c-2.018-.084-4,.43-6-.306a15.9,15.9,0,0,0-19.144,6.357c-.732,1.1-1.359,2.24-.683,3.583.695,1.382,2.026,1.432,3.333,1.435,4.539.011,9.078,0,13.617,0Z" transform="translate(0 -87.8)" fill="#0054a4"/>
    <path id="Path_30419" data-name="Path 30419" d="M525.61,444.367a10.1,10.1,0,1,1-20.208.006,10.1,10.1,0,0,1,20.208-.006Zm-10.161-7.284a7.291,7.291,0,1,0,7.328,7.249A7.326,7.326,0,0,0,515.449,437.084Z" transform="translate(-28.739 0)" fill="#0054a4"/>
    <path id="Path_30420" data-name="Path 30420" d="M603.685,562.85l-7.562,8.837-1.577-2.509,4.477-4.211-.155-.378h-11.7v-2.8H599.42c-1.228-1.32-2.323-2.464-3.379-3.642-1.492-1.665-1.411-.959-.3-2.882.159-.276.352-.533.606-.916Z" transform="translate(-92.962 -94.301)" fill="#0054a4"/>
  </g>
</svg>
