<svg xmlns="http://www.w3.org/2000/svg" xmlns:xlink="http://www.w3.org/1999/xlink" width="92" height="92" viewBox="0 0 92 92">
  <defs>
    <clipPath id="clip-path">
      <rect id="Rectangle_1397" data-name="Rectangle 1397" width="92" height="92" transform="translate(11191 -14061)" fill="none" stroke="#707070" stroke-width="1"/>
    </clipPath>
    <clipPath id="clip-path-2">
      <rect id="Rectangle_1396" data-name="Rectangle 1396" width="84.991" height="85" fill="#0054a4"/>
    </clipPath>
  </defs>
  <g id="Leave_request_92x92" data-name="Leave request 92x92" transform="translate(-11191 14061)" clip-path="url(#clip-path)">
    <g id="Group_3027" data-name="Group 3027" transform="translate(11194.504 -14057.5)">
      <g id="Group_3026" data-name="Group 3026" clip-path="url(#clip-path-2)">
        <path id="Path_30421" data-name="Path 30421" d="M78.04,82.215h60.04V2.8H77.889V4.375q0,20.516,0,41.032c0,1.712-.389,2.4-1.366,2.433-1.013.033-1.385-.6-1.385-2.353q0-21.6,0-43.191C75.137.31,75.436,0,77.4,0q30.558,0,61.116,0c2.011,0,2.385.369,2.386,2.357q0,40.142,0,80.285c0,1.986-.377,2.356-2.387,2.356Q107.956,85,77.4,85c-2.053,0-2.953-1.379-2.167-3.3a1.314,1.314,0,0,1,2.191-.415,6.294,6.294,0,0,1,.618.934" transform="translate(-55.911 0)" fill="#0054a4"/>
        <path id="Path_30422" data-name="Path 30422" d="M144.335,35.126c0-1.476-.019-2.782,0-4.086a4.015,4.015,0,0,1,3.91-4.175c2.831-.11,5.672-.1,8.5-.008a4.116,4.116,0,0,1,4.02,4.242c.044,1.3.008,2.595.008,4.027,1.806,0,3.446-.007,5.085,0,2.839.014,4.423,1.564,4.431,4.365q.018,6.6,0,13.2a4.028,4.028,0,0,1-4.266,4.319q-13.521.032-27.043,0a4.146,4.146,0,0,1-4.3-4.348q-.045-6.6,0-13.2a4.1,4.1,0,0,1,4.4-4.334c1.687-.011,3.374,0,5.25,0m4.167,19h8.019V37.9H148.5Zm9.545-19.063c0-1.37.019-2.593-.006-3.816a1.516,1.516,0,0,0-1.661-1.658c-2.577-.019-5.156-.065-7.728.043-.519.022-1.4.625-1.448,1.043a35.328,35.328,0,0,0-.07,4.388Zm4.027,2.84h-2.655V54.169h2.655ZM140.139,54.136v-16.2c-2.24-.27-2.657.1-2.657,2.238q0,5.825,0,11.65c0,2.28.293,2.542,2.658,2.317M165,37.913V54.165c2.341.136,2.606-.109,2.607-2.344q0-5.843,0-11.687c0-2.089-.394-2.434-2.606-2.221M143.055,54.151h2.486V37.876h-2.486Z" transform="translate(-100.458 -19.98)" fill="#0054a4"/>
        <path id="Path_30423" data-name="Path 30423" d="M73.566,156.17a20.617,20.617,0,0,1-1.011,2.819c-1.356,2.582-2.838,5.1-4.2,7.677a5.1,5.1,0,0,0-.571,2.145c-.15,4.789-.894,9.435-3.2,13.708a14,14,0,0,1-6.417,6.283,3.623,3.623,0,0,0-1.144.95c-1.809,2.128-3.59,4.28-5.38,6.424-.163.2-.319.4-.491.583a1.31,1.31,0,0,1-2.008.227,1.33,1.33,0,0,1-.064-2.032q3.279-3.962,6.594-7.894a1.78,1.78,0,0,1,.688-.538c4.015-1.469,6.094-4.7,7.125-8.513.864-3.193,1.06-6.564,1.6-9.848a8.8,8.8,0,0,1,.745-2.618c1.348-2.587,2.8-5.122,4.232-7.663a3.179,3.179,0,0,0,.207-3.147c-.783-1.571-2.29-1.691-3.273-.242-2.661,3.923-5.289,7.867-7.931,11.8-.212.316-.434.627-.641.946-.548.843-1.1,1.735-2.306,1.039-.826-.478-.8-1.333.005-2.536q2.224-3.324,4.455-6.644,1.945-2.9,3.9-5.791c1.481-2.191,3.257-3.019,5.2-2.434a5.868,5.868,0,0,1,3.885,5.3" transform="translate(-36.286 -112.414)" fill="#0054a4"/>
        <path id="Path_30424" data-name="Path 30424" d="M18.01,153.049a10.8,10.8,0,0,1-.926,1.332c-1.2,1.248-2.414,2.49-3.673,3.68a7.328,7.328,0,0,0-2.442,5.632c.036,4.017-.027,8.036.074,12.052a12.991,12.991,0,0,1-3,9.153c-1.9,2.258-3.589,4.7-5.356,7.077-.552.742-1.222,1.125-2.051.558-.9-.612-.759-1.395-.161-2.188,1.986-2.632,3.916-5.307,5.951-7.9a8.775,8.775,0,0,0,1.857-5.657c-.007-4.568,0-9.135-.012-13.7a8.752,8.752,0,0,1,2.394-6.106c1.486-1.618,3.047-3.175,4.663-4.663a2.239,2.239,0,0,1,1.673-.385c.354.056.621.665,1,1.116" transform="translate(0 -113.322)" fill="#0054a4"/>
        <path id="Path_30425" data-name="Path 30425" d="M156.5,275.781c-3.161,3.245-6.316,2.925-6.919-1.557-.595.67-1.076,1.306-1.654,1.838a8.706,8.706,0,0,1-2.086,1.6c-1.749.81-3.033-.05-3.105-1.971-.035-.917-.006-1.837-.006-3.077-.736.718-1.322,1.28-1.9,1.851-.928.923-1.792,1.922-2.8,2.749a3.056,3.056,0,0,1-1.842.624,1.513,1.513,0,0,1-1.162-.886,1.98,1.98,0,0,1,.548-1.512c.906-.91,1.956-1.673,2.924-2.524.918-.807,1.758-1.709,2.717-2.462a2.717,2.717,0,0,1,3.086-.43c1.075.569,1.23,1.643,1.3,2.719.03.462.005.927.005,1.776.522-.6.848-.976,1.184-1.348s.671-.763,1.039-1.11c1.509-1.423,4.051-1.625,4.543,1.466.083.524.185,1.044.325,1.824.861-.761,1.526-1.38,2.225-1.958,1.641-1.358,2.471-1.126,3.824.5a5.038,5.038,0,0,0,2.534,1.154,12.85,12.85,0,0,0,2.4.151,1.34,1.34,0,0,1,1.426,1.45,1.291,1.291,0,0,1-1.467,1.254c-2.55-.026-5.107-.013-7.145-2.128" transform="translate(-100.723 -201.208)" fill="#0054a4"/>
        <path id="Path_30426" data-name="Path 30426" d="M178.926,169.972c-5.032,0-10.064-.012-15.1.01-1,0-1.889-.187-1.892-1.335,0-1.122.86-1.392,1.868-1.391,10.149.011,20.3-.008,30.445.044a2.915,2.915,0,0,1,1.747.889c.19.182.037,1.052-.24,1.309a2.349,2.349,0,0,1-1.484.454c-5.116.031-10.233.019-15.349.019" transform="translate(-120.804 -124.772)" fill="#0054a4"/>
        <path id="Path_30427" data-name="Path 30427" d="M216.939,199.779c3.217,0,6.434.018,9.651-.011,1.016-.009,1.887.24,1.857,1.374-.029,1.09-.9,1.39-1.9,1.388-6.476-.012-12.952.021-19.428-.05a3.172,3.172,0,0,1-1.819-1c-.167-.158.056-1.016.348-1.294a2.194,2.194,0,0,1,1.391-.387c3.3-.031,6.6-.016,9.9-.016" transform="translate(-153.106 -149.025)" fill="#0054a4"/>
        <path id="Path_30428" data-name="Path 30428" d="M146.414,234.631c-3.177,0-6.353-.016-9.53.009-1.032.008-1.912-.18-2.052-1.374-.1-.863.733-1.43,2-1.431q9.657-.008,19.314,0c1.257,0,2.1.585,1.991,1.444-.139,1.1-.934,1.367-1.94,1.36-3.261-.023-6.523-.009-9.784-.009" transform="translate(-100.577 -172.944)" fill="#0054a4"/>
        <path id="Path_30429" data-name="Path 30429" d="M249.614,234.629c-1.651,0-3.3-.008-4.952,0-.964.007-1.744-.3-1.75-1.375-.006-1.058.754-1.424,1.719-1.425,3.386,0,6.772,0,10.157,0,.976,0,1.75.391,1.765,1.4s-.748,1.415-1.734,1.406c-1.735-.015-3.47,0-5.206,0" transform="translate(-181.21 -172.943)" fill="#0054a4"/>
        <path id="Path_30430" data-name="Path 30430" d="M151.325,199.817c1.308,0,2.617,0,3.925,0,.844,0,1.405.378,1.454,1.241a1.3,1.3,0,0,1-1.385,1.474q-4.05.071-8.1,0a1.3,1.3,0,0,1-1.391-1.468c.045-.863.6-1.248,1.447-1.247q2.025,0,4.051,0" transform="translate(-108.783 -149.061)" fill="#0054a4"/>
      </g>
    </g>
  </g>
</svg>
