<svg xmlns="http://www.w3.org/2000/svg" xmlns:xlink="http://www.w3.org/1999/xlink" width="96" height="96" viewBox="0 0 96 96">
  <defs>
    <clipPath id="clip-path">
      <rect id="Rectangle_1379" data-name="Rectangle 1379" width="96" height="96" transform="translate(6570 -7330)" fill="none" stroke="#707070" stroke-width="1"/>
    </clipPath>
  </defs>
  <g id="Logout" transform="translate(-6570 7330)" clip-path="url(#clip-path)">
    <g id="Group_2986" data-name="Group 2986" transform="translate(-116.837 -261.44)">
      <path id="Path_30380" data-name="Path 30380" d="M6746.06-6963.965h-38.921a7.122,7.122,0,0,1-2.621-1.511,7.265,7.265,0,0,1-1.525-2.636v-79.624a5,5,0,0,1,.953-3.184c1.037-1.037,3.193-.961,3.193-.961h38.921a2.6,2.6,0,0,1,2.6,2.6,2.6,2.6,0,0,1-2.6,2.6h-34.943a3.235,3.235,0,0,0-2.263.8,4.584,4.584,0,0,0-.668,2.61v70.42a3.911,3.911,0,0,0,1.118,2.81,6.694,6.694,0,0,0,3.5.891h33.253a2.6,2.6,0,0,1,2.6,2.6A2.6,2.6,0,0,1,6746.06-6963.965Z" transform="translate(-10.819 -12.636)" fill="#0054a4"/>
      <path id="Path_30381" data-name="Path 30381" d="M6742.38-6989.183a2.59,2.59,0,0,1-1.8-.723,2.6,2.6,0,0,1-.076-3.67l21.132-22.023-21.1-21.112a2.6,2.6,0,0,1,0-3.673,2.6,2.6,0,0,1,3.671,0l22.891,22.91.037,3.632-22.891,23.858A2.585,2.585,0,0,1,6742.38-6989.183Z" transform="translate(9.945 -5.641)" fill="#0054a4"/>
      <path id="Path_30382" data-name="Path 30382" d="M6776.117-7021.791H6722.7a2.6,2.6,0,0,1-2.612-2.6,2.605,2.605,0,0,1,2.612-2.6h53.414a2.606,2.606,0,0,1,2.614,2.6A2.6,2.6,0,0,1,6776.117-7021.791Z" transform="translate(-1.23 3.583)" fill="#0054a4"/>
    </g>
  </g>
</svg>
