<svg xmlns="http://www.w3.org/2000/svg" width="192" height="50.328" viewBox="0 0 192 50.328">
  <g id="Group_2517" data-name="Group 2517" transform="translate(8279.051 9792)">
    <path id="Rectangle_853_-_Outline" data-name="Rectangle 853 - Outline" d="M13.03,2.424A10.618,10.618,0,0,0,2.424,13.03V37.3A10.618,10.618,0,0,0,13.03,47.9H37.3A10.618,10.618,0,0,0,47.9,37.3V13.03A10.618,10.618,0,0,0,37.3,2.424H13.03M13.03,0H37.3a13.03,13.03,0,0,1,13.03,13.03V37.3A13.03,13.03,0,0,1,37.3,50.328H13.03A13.03,13.03,0,0,1,0,37.3V13.03A13.03,13.03,0,0,1,13.03,0Z" transform="translate(-8279.051 -9792)" fill="#fff"/>
    <path id="Subtraction_5" data-name="Subtraction 5" d="M20.88,28.673H7.273A7.273,7.273,0,0,1,0,21.4V7.273A7.273,7.273,0,0,1,7.273,0H20.88a7.273,7.273,0,0,1,7.272,7.273V21.4a7.273,7.273,0,0,1-7.272,7.273ZM9.652,18.543l-2.057,3.3.324.417a7.8,7.8,0,0,0,2.564,2.169,6.9,6.9,0,0,0,3.211.774,5.992,5.992,0,0,0,4.528-1.732,6.624,6.624,0,0,0,1.641-4.751V5.031H9.4V8.878h6.426v9.764a2.906,2.906,0,0,1-.567,1.952,1.984,1.984,0,0,1-1.589.6,3.614,3.614,0,0,1-1.688-.455,5.57,5.57,0,0,1-1.658-1.391Z" transform="translate(-8267.708 -9780.883)" fill="#fff"/>
    <g id="Group_2220" data-name="Group 2220" transform="translate(-8218.528 -9786.848)">
      <rect id="Rectangle_133" data-name="Rectangle 133" width="131.477" height="1.066" transform="translate(0 29.381)" fill="#fff"/>
      <path id="Path_153" data-name="Path 153" d="M14.283-16.1a7.951,7.951,0,0,1-1.937,5.721A7.1,7.1,0,0,1,6.959-8.347,8.28,8.28,0,0,1,3.086-9.28,9.5,9.5,0,0,1-.048-11.934l1.655-2.654A8.51,8.51,0,0,0,4.16-12.455a5.874,5.874,0,0,0,2.764.735,3.677,3.677,0,0,0,2.923-1.166A4.88,4.88,0,0,0,10.867-16.2v-14.24H2.17V-33.6H14.283ZM28.367-33.6h3.38V-8.491h-3.38Zm35.563,0h3.345V-8.491H63.86L49.775-27.933V-8.491H46.4V-33.6h3.415L63.93-14.123Zm16.408,0h19.824v2.547L84.388-11.612h15.951L100.3-8.491H79.881v-2.547L95.655-30.479H80.3Zm51.091,0L122.2-17.1v8.609h-3.38v-8.465L109.458-33.6h3.451l7.606,12.806L127.979-33.6Z" transform="translate(0.048 33.6)" fill="#fff"/>
      <path id="Path_152" data-name="Path 152" d="M3.233-7.724a2.338,2.338,0,0,1,1.6.5,1.77,1.77,0,0,1,.565,1.4,1.878,1.878,0,0,1-.569,1.461,2.282,2.282,0,0,1-1.6.519H1.858V-2.09H1.1V-7.724ZM3.2-4.545a1.654,1.654,0,0,0,1.09-.318A1.154,1.154,0,0,0,4.671-5.8a1.111,1.111,0,0,0-.379-.913,1.684,1.684,0,0,0-1.09-.31l-1.343.008v2.471ZM8.819-7.772a2.921,2.921,0,0,1,1.466.378,2.814,2.814,0,0,1,1.055,1.034,2.79,2.79,0,0,1,.387,1.445,2.833,2.833,0,0,1-.387,1.453,2.826,2.826,0,0,1-1.055,1.046,2.9,2.9,0,0,1-1.466.382,2.9,2.9,0,0,1-1.466-.382A2.826,2.826,0,0,1,6.3-3.462a2.833,2.833,0,0,1-.387-1.453A2.79,2.79,0,0,1,6.3-6.359,2.822,2.822,0,0,1,7.349-7.394,2.915,2.915,0,0,1,8.819-7.772Zm.008.692a2.078,2.078,0,0,0-1.07.29,2.181,2.181,0,0,0-.786.785,2.105,2.105,0,0,0-.292,1.091A2.126,2.126,0,0,0,6.97-3.82a2.2,2.2,0,0,0,.786.793,2.057,2.057,0,0,0,1.07.294,2.016,2.016,0,0,0,1.063-.294,2.192,2.192,0,0,0,.774-.793,2.149,2.149,0,0,0,.288-1.095,2.127,2.127,0,0,0-.288-1.091,2.169,2.169,0,0,0-.774-.785A2.037,2.037,0,0,0,8.827-7.08ZM19.4-7.724h.79L18.315-2.09h-.79l-1.43-4.652L14.641-2.09h-.782L11.995-7.724h.814l1.462,4.8,1.454-4.8h.758l1.462,4.8Zm1.612,0h3.84v.7H21.767v1.738h2.757v.7H21.767V-2.79h3.176v.7H21.009Zm8.73,5.634-1.1-1.771q-.19.016-.308.016H26.926V-2.09h-.758V-7.724h2.165a2.408,2.408,0,0,1,1.624.495,1.756,1.756,0,0,1,.573,1.4,2.025,2.025,0,0,1-.312,1.151,1.75,1.75,0,0,1-.9.676L30.608-2.09ZM28.332-4.545a1.654,1.654,0,0,0,1.09-.318A1.154,1.154,0,0,0,29.8-5.8a1.111,1.111,0,0,0-.379-.913,1.684,1.684,0,0,0-1.09-.31H26.926v2.479ZM31.88-7.724h3.84v.7H32.638v1.738H35.4v.7H32.638V-2.79h3.176v.7H31.88Zm7.411,0a2.924,2.924,0,0,1,1.458.366,2.668,2.668,0,0,1,1.023,1.01,2.831,2.831,0,0,1,.371,1.441,2.808,2.808,0,0,1-.375,1.441,2.689,2.689,0,0,1-1.031,1.01,2.962,2.962,0,0,1-1.469.366H37.039V-7.724Zm.016,4.934a2.042,2.042,0,0,0,1.047-.274A1.99,1.99,0,0,0,41.1-3.82,2.155,2.155,0,0,0,41.368-4.9a2.147,2.147,0,0,0-.277-1.087,2.031,2.031,0,0,0-.754-.761,2.077,2.077,0,0,0-1.063-.278H37.8V-2.79Zm8.351-4.934a2.131,2.131,0,0,1,1.331.374,1.233,1.233,0,0,1,.486,1.034,1.262,1.262,0,0,1-.269.817,1.3,1.3,0,0,1-.735.447,1.43,1.43,0,0,1,.9.471,1.414,1.414,0,0,1,.328.954A1.341,1.341,0,0,1,49.17-2.5,2.38,2.38,0,0,1,47.7-2.09h-2.4V-7.724Zm-.04,2.39a1.255,1.255,0,0,0,.794-.221.758.758,0,0,0,.28-.632.738.738,0,0,0-.28-.62,1.238,1.238,0,0,0-.794-.209H46.053v1.682Zm0,2.535a1.611,1.611,0,0,0,.964-.237.794.794,0,0,0,.348-.688.769.769,0,0,0-.348-.668,1.669,1.669,0,0,0-.964-.241H46.053V-2.8Zm7.466-4.926-2.07,3.7V-2.09h-.758v-1.9l-2.1-3.734h.774L52.634-4.85l1.675-2.873ZM62.075-2.09,61.49-3.458H58.575L58-2.09h-.8l2.457-5.634h.79L62.9-2.09Zm-3.2-2.068H61.2L60.029-6.895ZM63.7-7.724h.9l2.022,3.96,2.007-3.96h.909V-2.09H68.83l-.008-4.5-1.967,3.9h-.466l-1.983-3.9v4.5h-.7Zm11.582,0-2.07,3.7V-2.09h-.758v-1.9l-2.1-3.734h.774L72.835-4.85,74.51-7.724Zm4.045,1.175a3.154,3.154,0,0,0-.8-.374,2.664,2.664,0,0,0-.762-.125,1.387,1.387,0,0,0-.77.189.59.59,0,0,0-.288.519.691.691,0,0,0,.174.487,1.23,1.23,0,0,0,.427.3q.253.109.7.254a7.842,7.842,0,0,1,.909.338,1.578,1.578,0,0,1,.593.479,1.342,1.342,0,0,1,.245.841A1.424,1.424,0,0,1,79.5-2.8a1.649,1.649,0,0,1-.719.559,2.687,2.687,0,0,1-1.063.2,3.041,3.041,0,0,1-1.185-.241,3.207,3.207,0,0,1-1-.644l.34-.668a2.85,2.85,0,0,0,.889.608,2.413,2.413,0,0,0,.96.213A1.513,1.513,0,0,0,78.6-3a.693.693,0,0,0,.32-.6.706.706,0,0,0-.174-.491,1.225,1.225,0,0,0-.438-.306,7.368,7.368,0,0,0-.715-.249,7.221,7.221,0,0,1-.9-.33,1.561,1.561,0,0,1-.589-.475,1.325,1.325,0,0,1-.241-.829,1.345,1.345,0,0,1,.245-.8,1.55,1.55,0,0,1,.687-.531,2.645,2.645,0,0,1,1.027-.185,3.262,3.262,0,0,1,.976.149,3.241,3.241,0,0,1,.849.4Zm4.053-1.223a2.921,2.921,0,0,1,1.466.378A2.814,2.814,0,0,1,85.9-6.359a2.79,2.79,0,0,1,.387,1.445A2.833,2.833,0,0,1,85.9-3.462a2.826,2.826,0,0,1-1.055,1.046,2.9,2.9,0,0,1-1.466.382,2.9,2.9,0,0,1-1.466-.382,2.826,2.826,0,0,1-1.055-1.046,2.833,2.833,0,0,1-.387-1.453,2.79,2.79,0,0,1,.387-1.445,2.823,2.823,0,0,1,1.051-1.034A2.915,2.915,0,0,1,83.382-7.772Zm.008.692a2.078,2.078,0,0,0-1.07.29,2.181,2.181,0,0,0-.786.785,2.105,2.105,0,0,0-.292,1.091,2.127,2.127,0,0,0,.292,1.095,2.2,2.2,0,0,0,.786.793,2.057,2.057,0,0,0,1.07.294,2.016,2.016,0,0,0,1.063-.294,2.192,2.192,0,0,0,.774-.793,2.149,2.149,0,0,0,.288-1.095,2.127,2.127,0,0,0-.288-1.091,2.169,2.169,0,0,0-.774-.785A2.037,2.037,0,0,0,83.39-7.08Zm3.99-.644h3.6l-.008.7H88.138v1.851H90.69v.7H88.138V-2.09H87.38Zm3.776,0h4.321v.708H93.692V-2.09h-.758V-7.015H91.156Zm5.19,0h3.84v.7H97.1v1.738h2.757v.7H97.1V-2.79h3.176v.7H96.346Zm9.164,1.352a2.284,2.284,0,0,0-.735-.527,2.071,2.071,0,0,0-.861-.189,2.072,2.072,0,0,0-1.074.29,2.129,2.129,0,0,0-.774.785,2.15,2.15,0,0,0-.284,1.091,2.157,2.157,0,0,0,.284,1.087,2.12,2.12,0,0,0,.774.789,2.072,2.072,0,0,0,1.074.29,2.13,2.13,0,0,0,.853-.181,2.463,2.463,0,0,0,.743-.495l.458.507a3.08,3.08,0,0,1-.972.656,2.82,2.82,0,0,1-1.122.237,2.818,2.818,0,0,1-1.446-.382,2.8,2.8,0,0,1-1.035-1.042,2.871,2.871,0,0,1-.379-1.457,2.812,2.812,0,0,1,.383-1.445,2.793,2.793,0,0,1,1.047-1.034,2.9,2.9,0,0,1,1.462-.378,2.927,2.927,0,0,1,1.118.221,2.759,2.759,0,0,1,.936.624Zm1.517-1.352h.758v2.511h3.16V-7.724h.766V-2.09h-.766V-4.512h-3.16V-2.09h-.758Zm6.3,4.781a.4.4,0,0,1,.3.129.459.459,0,0,1,.123.33.474.474,0,0,1-.123.334.4.4,0,0,1-.3.133.409.409,0,0,1-.308-.133.465.465,0,0,1-.126-.334.451.451,0,0,1,.126-.33A.415.415,0,0,1,113.324-2.943Zm5.609-3.429A2.283,2.283,0,0,0,118.2-6.9a2.071,2.071,0,0,0-.861-.189,2.072,2.072,0,0,0-1.074.29,2.129,2.129,0,0,0-.774.785,2.15,2.15,0,0,0-.284,1.091,2.157,2.157,0,0,0,.284,1.087,2.12,2.12,0,0,0,.774.789,2.072,2.072,0,0,0,1.074.29,2.131,2.131,0,0,0,.853-.181,2.463,2.463,0,0,0,.743-.495l.458.507a3.08,3.08,0,0,1-.972.656,2.82,2.82,0,0,1-1.122.237,2.818,2.818,0,0,1-1.446-.382,2.8,2.8,0,0,1-1.035-1.042,2.872,2.872,0,0,1-.379-1.457,2.812,2.812,0,0,1,.383-1.445,2.793,2.793,0,0,1,1.047-1.034,2.9,2.9,0,0,1,1.462-.378,2.927,2.927,0,0,1,1.118.221,2.759,2.759,0,0,1,.936.624Zm3.808-1.4a2.921,2.921,0,0,1,1.465.378,2.814,2.814,0,0,1,1.055,1.034,2.79,2.79,0,0,1,.387,1.445,2.833,2.833,0,0,1-.387,1.453,2.826,2.826,0,0,1-1.055,1.046,2.9,2.9,0,0,1-1.465.382,2.9,2.9,0,0,1-1.466-.382,2.826,2.826,0,0,1-1.055-1.046,2.833,2.833,0,0,1-.387-1.453,2.79,2.79,0,0,1,.387-1.445,2.822,2.822,0,0,1,1.051-1.034A2.915,2.915,0,0,1,122.742-7.772Zm.008.692a2.078,2.078,0,0,0-1.071.29,2.181,2.181,0,0,0-.786.785,2.105,2.105,0,0,0-.292,1.091,2.126,2.126,0,0,0,.292,1.095,2.2,2.2,0,0,0,.786.793,2.057,2.057,0,0,0,1.071.294,2.016,2.016,0,0,0,1.063-.294,2.192,2.192,0,0,0,.774-.793,2.148,2.148,0,0,0,.288-1.095,2.127,2.127,0,0,0-.288-1.091,2.169,2.169,0,0,0-.774-.785A2.037,2.037,0,0,0,122.749-7.08Zm3.99-.644h.9l2.022,3.96,2.007-3.96h.909V-2.09h-.711l-.008-4.5-1.967,3.9h-.466l-1.983-3.9v4.5h-.7Z" transform="translate(-1.1 42.072)" fill="#fff"/>
    </g>
  </g>
</svg>
