<svg xmlns="http://www.w3.org/2000/svg" width="103.044" height="103.044" viewBox="0 0 103.044 103.044">
  <g id="Group_997" data-name="Group 997" transform="translate(-57.701 -226.809)">
    <path id="Path_148" data-name="Path 148" d="M51.522,0A51.522,51.522,0,1,1,0,51.522,51.522,51.522,0,0,1,51.522,0Z" transform="translate(57.701 226.809)" fill="#eaf5ff"/>
    <rect id="Rectangle_130" data-name="Rectangle 130" width="50.526" height="64.811" rx="7" transform="translate(83.96 245.926)" fill="#fff"/>
    <line id="Line_3" data-name="Line 3" x2="31.548" transform="translate(92.391 262.547)" fill="none"/>
    <path id="Path_141" data-name="Path 141" d="M137.73,285.059H118.248a1.612,1.612,0,0,1,0-3.225H137.73a1.612,1.612,0,0,1,0,3.225Z" transform="translate(-27.261 -25.453)" fill="#0054a4"/>
    <path id="Path_142" data-name="Path 142" d="M154.322,305.546H118.248a1.612,1.612,0,0,1,0-3.225h36.074a1.612,1.612,0,0,1,0,3.225Z" transform="translate(-27.261 -34.929)" fill="#d4d4d4"/>
    <path id="Path_143" data-name="Path 143" d="M154.322,326.034H118.248a1.612,1.612,0,0,1,0-3.225h36.074a1.612,1.612,0,1,1,0,3.225Z" transform="translate(-27.261 -44.406)" fill="#d4d4d4"/>
    <path id="Path_144" data-name="Path 144" d="M154.322,346.521H118.248a1.612,1.612,0,0,1,0-3.225h36.074a1.612,1.612,0,0,1,0,3.225Z" transform="translate(-27.261 -53.883)" fill="#d4d4d4"/>
    <path id="Path_145" data-name="Path 145" d="M154.322,367.008H118.248a1.612,1.612,0,0,1,0-3.225h36.074a1.612,1.612,0,1,1,0,3.225Z" transform="translate(-27.261 -63.359)" fill="#d4d4d4"/>
    <rect id="Rectangle_131" data-name="Rectangle 131" width="23.212" height="6.843" rx="3.422" transform="matrix(0.682, 0.731, -0.731, 0.682, 138.689, 305.501)" fill="#0054a4"/>
    <path id="Path_149" data-name="Path 149" d="M20.737,0A20.737,20.737,0,1,1,0,20.737,20.737,20.737,0,0,1,20.737,0Z" transform="translate(103.235 272.139)" fill="#fff"/>
    <path id="Path_149_-_Outline" data-name="Path 149 - Outline" d="M20.737-1.5A22.23,22.23,0,0,1,36.46,36.46,22.237,22.237,0,1,1,12.081.248,22.1,22.1,0,0,1,20.737-1.5Zm0,41.473A19.237,19.237,0,1,0,1.5,20.737,19.258,19.258,0,0,0,20.737,39.973Z" transform="translate(103.235 272.139)" fill="#0054a4"/>
    <g id="Group_996" data-name="Group 996" transform="translate(114.851 283.854)">
      <path id="Path_146" data-name="Path 146" d="M181.757,335.768,168,350.656a1.678,1.678,0,0,1-2.464-2.278l13.762-14.887a1.678,1.678,0,1,1,2.464,2.278Z" transform="translate(-164.523 -332.952)" fill="#0054a4"/>
      <path id="Path_147" data-name="Path 147" d="M164.578,336.908l14.887,13.763a1.678,1.678,0,1,0,2.278-2.464l-14.887-13.763a1.678,1.678,0,0,0-2.278,2.464Z" transform="translate(-164.039 -333.436)" fill="#0054a4"/>
    </g>
  </g>
</svg>
