<svg xmlns="http://www.w3.org/2000/svg" width="33.091" height="38.154" viewBox="0 0 33.091 38.154">
  <g id="Group_1231" data-name="Group 1231" transform="translate(-396.586 -361.049)">
    <path id="Path_6558" data-name="Path 6558" d="M423.48,393.649c-.42,1.193-.812,2.311-1.207,3.429q-.158.449-.324.894a1.827,1.827,0,0,1-3.356.195c-.818-1.651-1.614-3.314-2.417-4.974-.647-1.338-1.309-2.67-1.929-4.021a.951.951,0,0,0-.93-.594c-.862-.1-1.186.293-1.516,1-1.312,2.821-2.682,5.616-4.049,8.411a1.8,1.8,0,0,1-2.655.924,2.1,2.1,0,0,1-.773-.93c-.494-1.21-.912-2.451-1.361-3.679-.074-.2-.159-.4-.257-.639-1.119.39-2.2.774-3.284,1.14a4.57,4.57,0,0,1-1.09.276,1.581,1.581,0,0,1-1.6-2.24c.657-1.464,1.385-2.9,2.085-4.341.89-1.837,1.774-3.678,2.68-5.507a.779.779,0,0,0-.045-.862,13.769,13.769,0,1,1,25.238-9.688,13.346,13.346,0,0,1-1.82,9.594.97.97,0,0,0-.076,1.072c1.51,3.057,2.994,6.126,4.485,9.191.087.178.166.36.245.542a1.507,1.507,0,0,1-.2,1.624,1.473,1.473,0,0,1-1.586.582c-1.012-.271-2-.642-2.993-.972C424.353,393.949,423.962,393.813,423.48,393.649Zm-10.369-6.911a11.881,11.881,0,1,0-11.877-11.91A11.913,11.913,0,0,0,413.11,386.738Zm-7.071,10.5,4.274-8.891a14.04,14.04,0,0,1-7.3-4.157l-4.3,8.863c1.243-.437,2.331-.8,3.407-1.2a1.569,1.569,0,0,1,1.885.451,4.267,4.267,0,0,1,.712,1.216C405.176,394.7,405.573,395.9,406.039,397.236Zm9.9-8.883,4.277,8.86c.474-1.352.9-2.585,1.338-3.817a2.007,2.007,0,0,1,2.9-1.415c.979.347,1.964.677,3.07,1.057l-4.291-8.834A14.034,14.034,0,0,1,415.942,388.353Z" transform="translate(0 0)" fill="#00a94f"/>
    <path id="Path_6559" data-name="Path 6559" d="M466.554,423.909c-.516,0-1.032.005-1.547,0a1.825,1.825,0,0,1-1.946-1.337,1.956,1.956,0,0,1,.747-2.311c.865-.664,1.727-1.333,2.619-1.959a.618.618,0,0,0,.263-.842c-.362-1.027-.71-2.06-1.033-3.1a1.79,1.79,0,0,1,.587-2.127,1.857,1.857,0,0,1,2.311.109c.835.6,1.687,1.188,2.489,1.834a.688.688,0,0,0,1.021-.017c.814-.632,1.66-1.223,2.5-1.823a1.849,1.849,0,0,1,2.31-.073,1.8,1.8,0,0,1,.544,2.148c-.319,1-.646,2-1,2.987a.575.575,0,0,0,.232.754c.924.718,1.832,1.455,2.738,2.2a1.946,1.946,0,0,1,.619,2.3,1.8,1.8,0,0,1-1.821,1.263c-1.111.017-2.222.02-3.332,0a.577.577,0,0,0-.666.49c-.279.908-.6,1.8-.922,2.7a1.64,1.64,0,0,1-1.6,1.262,1.807,1.807,0,0,1-1.757-1.183c-.346-.885-.684-1.776-.957-2.686a.7.7,0,0,0-.848-.582C467.588,423.939,467.07,423.909,466.554,423.909Zm5.017,2.327c.366-1.09.674-2.02.991-2.947.357-1.046.686-1.285,1.784-1.287s2.182.008,3.273.006c.2,0,.392-.03.716-.057-.234-.214-.343-.325-.463-.421-.914-.731-1.834-1.454-2.744-2.189a1.751,1.751,0,0,1-.632-2.113c.112-.359.236-.715.352-1.073.22-.68.438-1.362.707-2.2-1.044.755-1.936,1.412-2.841,2.051a1.791,1.791,0,0,1-2.357-.012c-.4-.289-.8-.585-1.2-.876L467.611,414c.263,1.157.638,2.218.971,3.291a1.857,1.857,0,0,1-.746,2.3c-.849.653-1.711,1.288-2.564,1.936-.14.106-.261.237-.519.474h.717c1.151,0,2.3-.011,3.452,0a1.353,1.353,0,0,1,1.513,1.067C470.8,424.066,471.152,425.067,471.571,426.236Z" transform="translate(-58.452 -44.777)" fill="#00a94f"/>
  </g>
</svg>
