<svg id="Group_6576" data-name="Group 6576" xmlns="http://www.w3.org/2000/svg" xmlns:xlink="http://www.w3.org/1999/xlink" width="114.823" height="114.813" viewBox="0 0 114.823 114.813">
  <defs>
    <clipPath id="clip-path">
      <rect id="Rectangle_542" data-name="Rectangle 542" width="114.823" height="114.813" fill="#2b4bb6"/>
    </clipPath>
  </defs>
  <g id="Group_6575" data-name="Group 6575" clip-path="url(#clip-path)">
    <path id="Path_30091" data-name="Path 30091" d="M13.24,99.478c-1.142,0-2.175.005-3.208,0C4.054,99.441.015,95.43.009,89.456Q-.014,65,0,40.546q0-11.312,0-22.625C.014,11.628,3.987,7.685,10.312,7.666c.936,0,1.872,0,3.007,0-.046-2.619.175-5.187,2.61-6.607A7.18,7.18,0,0,1,19.682.086c3.381.165,5.045,2.6,5.345,7.579H32.58c-.137-2.494-.038-4.914,2.148-6.357A7.432,7.432,0,0,1,38.4.066c3.456-.1,4.989,2,5.756,7.5h7.352c.664-5.459,2.483-7.689,6.1-7.556,3.511.129,5.281,2.451,5.657,7.659h7.591c-.182-2.549,0-5.007,2.256-6.449A7.311,7.311,0,0,1,76.815.07c3.414-.012,4.911,2.107,5.573,7.484h7.439c-.036-2.421.184-4.926,2.478-6.39a7.142,7.142,0,0,1,3.556-1.1c3.4-.047,4.866,1.965,5.783,7.6,1.119,0,2.271-.013,3.423,0a9.479,9.479,0,0,1,9.731,9.651q.049,36.266,0,72.533a9.474,9.474,0,0,1-9.745,9.624c-1.037.012-2.075,0-3.171,0,.878,2.3,1.8,4.418,2.483,6.61a20.571,20.571,0,0,1,.819,4.563,3.717,3.717,0,0,1-3.763,4.148c-.442.025-.887.009-1.331.009H14.915c-4.13,0-5.48-1.426-4.94-5.466a27.508,27.508,0,0,1,1.213-4.985c.533-1.606,1.306-3.133,2.053-4.879m97.751-72.686h-2.12q-51.49,0-102.98-.04c-1.711,0-2.108.463-2.1,2.128.058,19.964.038,39.927.039,59.891,0,.444-.008.888.022,1.33A5.532,5.532,0,0,0,8.909,95.56a48.846,48.846,0,0,0,6.477.084,2.469,2.469,0,0,0,1.457-.908A42.708,42.708,0,0,1,34.257,82.877c4.537-1.677,9.272-2.818,14.092-4.251L42.3,64.7c-1.826,1.436-3.326,2.733-4.952,3.846a5.7,5.7,0,0,1-2.891,1.184,15,15,0,0,0-11.238,4.894,3.51,3.51,0,0,1-2.488,1.093c-1.226-.139-1.34-1.419-1.419-2.506a23.932,23.932,0,0,1,3.464-14.637C28.74,48.927,37.583,44.136,48.8,44.032a24.231,24.231,0,0,1,18.931,8.191,3.615,3.615,0,0,1,.911,2.575c-.192,1.26-1.439,1.259-2.551,1.245A14.693,14.693,0,0,0,54.736,61a4.972,4.972,0,0,1-2.545,1.178c-2.02.416-4.08.644-6.352.982,2.134,4.911,4.146,9.4,6.019,13.947a2.013,2.013,0,0,0,2.336,1.473,59.765,59.765,0,0,1,20.551,2.234c2.79.847,5.531,1.856,8.357,2.812.512-.812.965-1.637,1.522-2.385a1.776,1.776,0,0,1,2.629-.489,1.707,1.707,0,0,1,.587,2.461c-.421.75-.826,1.51-1.081,1.979,3.18,2.516,6.567,4.587,9.133,7.405a9.065,9.065,0,0,0,7.918,3.152c5.111-.228,7.18-2.109,7.18-7.2q0-29.78,0-59.559Zm-56.7,55.746c.449,1.074.815,2.057,1.265,3,.607,1.273.627,2.368-.789,3.085-1.117.566-2.048.025-2.763-1.582-.624-1.4-1.227-2.811-1.835-4.207-.651.033-1.153.011-1.639.089A55.824,55.824,0,0,0,31.2,88.409c-6.508,3.429-12.073,7.917-15.323,14.69a65.01,65.01,0,0,0-2.605,7.716H101.45C99.843,100.257,93.28,93.8,84.714,88.847c-2.2,2.641-2.2,2.64-.435,5.285.462.691.906,1.395,1.387,2.073.759,1.07.815,2.145-.307,2.9-1.192.807-2.191.316-2.935-.844a32.679,32.679,0,0,0-2.338-3.428,2.845,2.845,0,0,0-1.84-.987c-3.6-.093-7.236.24-10.8-.124-3.758-.383-6.411.6-7.868,4.2a2.581,2.581,0,0,1-.269.42c-.713,1.083-1.7,1.54-2.831.812s-1.143-1.8-.4-2.892c.9-1.331,1.83-2.643,2.661-4.016a4.707,4.707,0,0,1,4.424-2.393c4.657.039,9.315.012,13.973.012,2.6,0,2.786-.137,3.679-2.742-5.261-3.152-20.516-5.836-26.514-4.584M25.078,11.568c-.578,5.244-2.09,7.382-5.511,7.439a7.3,7.3,0,0,1-3.737-1c-2.331-1.424-2.586-3.925-2.49-6.426a38.72,38.72,0,0,0-4.663.034,4.928,4.928,0,0,0-4.539,4.034c-.4,2.341-.089,4.8-.089,7.223H110.866a57.946,57.946,0,0,0-.055-6.7,5,5,0,0,0-4.149-4.442,32.375,32.375,0,0,0-5.034-.321c-.791,5.624-2.244,7.652-5.675,7.612a7.508,7.508,0,0,1-3.84-1.2c-2.159-1.426-2.29-3.867-2.3-6.256H82.69a28.146,28.146,0,0,1-1.528,5.123A4.415,4.415,0,0,1,76.7,19.033a8.346,8.346,0,0,1-3.687-1.19c-2.174-1.435-2.313-3.85-2.182-6.294H63.34A15.177,15.177,0,0,1,62.8,15.18a6.545,6.545,0,0,1-2.14,2.84,6.452,6.452,0,0,1-3.4,1.015c-3.447.058-4.878-1.87-5.789-7.448h-7.36c-.561,5.368-2.2,7.465-5.784,7.5s-5.129-1.907-5.913-7.517ZM49.907,58.519c-2.4-4.122-5.224-7.3-9.951-8.2-1.366-.26-2.516.014-3.007,1.347a28.8,28.8,0,0,0-1.874,6.268,12.476,12.476,0,0,0,1.147,6.5,28.61,28.61,0,0,1,13.685-5.908m-18.8-4.086a22.5,22.5,0,0,0-7.877,14.526l8.758-3.25q-.435-5.565-.88-11.276m14.824-6.475L53.591,56.3,62,52.135a22.886,22.886,0,0,0-16.072-4.177M40.207,9.489c0-1.161.021-2.322-.006-3.482-.028-1.2-.571-2.07-1.847-2.113-1.379-.047-1.99.887-2.021,2.125q-.091,3.562,0,7.128c.033,1.242.68,2.19,2.026,2.127A1.9,1.9,0,0,0,40.2,13.136c.016-1.216,0-2.431,0-3.647m34.409,0c0,1.271-.037,2.543.011,3.813a1.865,1.865,0,0,0,1.832,1.976,1.791,1.791,0,0,0,1.981-1.811c.112-2.592.113-5.195,0-7.786a1.776,1.776,0,0,0-1.986-1.8,1.826,1.826,0,0,0-1.829,1.96c-.052,1.214-.012,2.431-.013,3.647M21,9.55c0-1.22,0-2.44,0-3.66a1.756,1.756,0,0,0-1.919-2,1.737,1.737,0,0,0-1.79,1.968c-.016,2.44-.006,4.879-.007,7.319,0,1.243.588,2.1,1.843,2.1,1.233,0,1.879-.8,1.875-2.067,0-1.22,0-2.44,0-3.66m72.816-.145c0,1.331-.025,2.662.007,3.992a1.75,1.75,0,0,0,1.881,1.884A1.692,1.692,0,0,0,97.5,13.488q.067-3.908,0-7.817a1.674,1.674,0,0,0-1.793-1.786,1.717,1.717,0,0,0-1.887,1.86c-.03,1.219-.007,2.44-.007,3.659m-38.3.2c0,1.214-.02,2.429.005,3.642a1.826,1.826,0,0,0,1.917,2.027,1.777,1.777,0,0,0,1.845-1.925c.036-2.538.044-5.078-.008-7.615a1.733,1.733,0,0,0-1.9-1.851A1.764,1.764,0,0,0,55.53,5.8c-.041,1.268-.009,2.538-.013,3.808" transform="translate(0 0)" fill="#2b4bb6"/>
    <path id="Path_30092" data-name="Path 30092" d="M240.021,114.024c.476-.454.913-.873,1.353-1.289.952-.9,2.014-1.054,2.928-.087a1.776,1.776,0,0,1-.253,2.782c-1.221.985-1.469,1.969-.318,3.315.457,0,1.062,0,1.667,0,1.227.007,2.074.572,2.14,1.826.072,1.364-.8,1.973-2.087,2.054-.331.021-.718-.1-.985.037-.475.239-1.07.539-1.255.968a2.131,2.131,0,0,0,.188,1.549c.229.476.967.793,1.032,1.243.112.781.157,1.894-.293,2.34-.43.427-1.545.3-2.323.183-.406-.062-.685-.736-1.113-.941a2.131,2.131,0,0,0-1.541-.26,2.64,2.64,0,0,0-1.015,1.379c-.175.437.1,1.133-.153,1.444-.507.621-1.3,1.52-1.868,1.45-.7-.085-1.378-.978-1.882-1.658-.242-.326.077-1.024-.1-1.449a2.357,2.357,0,0,0-1.064-1.19,1.908,1.908,0,0,0-1.426.2c-.472.248-.783.968-1.239,1.045-.767.129-1.882.2-2.312-.236s-.368-1.552-.242-2.323c.075-.457.784-.775,1.035-1.247a1.885,1.885,0,0,0,.223-1.406,2.415,2.415,0,0,0-1.2-1.077c-.424-.186-1.115.118-1.449-.124-.684-.5-1.567-1.141-1.716-1.86-.229-1.1.659-1.779,1.794-1.936a3.482,3.482,0,0,1,.664-.011c.849.047,1.539.039,1.967-1,.407-.993-.106-1.419-.654-1.961a7.217,7.217,0,0,1-.565-.607c-.692-.864-.787-1.916.116-2.474a4.852,4.852,0,0,1,2.534-.179c.252.011.448.511.734.629a4.487,4.487,0,0,0,1.8.5c1-.052,1.058-.85,1.054-1.694-.009-1.763.728-2.765,1.923-2.779s2.1,1.024,1.946,2.747c-.133,1.515.853,1.694,1.961,2.1m-.119,6.6a3.818,3.818,0,0,0-3.827-3.771,3.872,3.872,0,0,0-3.743,3.885,3.8,3.8,0,0,0,3.86,3.733,3.729,3.729,0,0,0,3.711-3.847" transform="translate(-149.939 -72.848)" fill="#2b4bb6"/>
  </g>
</svg>
