<svg xmlns="http://www.w3.org/2000/svg" xmlns:xlink="http://www.w3.org/1999/xlink" width="192" height="192" viewBox="0 0 192 192">
  <defs>
    <clipPath id="clip-path">
      <rect id="Rectangle_1391" data-name="Rectangle 1391" width="192" height="192" transform="translate(10812 -13782)" fill="none" stroke="#707070" stroke-width="1"/>
    </clipPath>
  </defs>
  <g id="Reject_leave" data-name="Reject leave" transform="translate(-10812 13782)" clip-path="url(#clip-path)">
    <g id="Reject_leave-2" data-name="Reject leave" transform="translate(212.515 -311.29)">
      <path id="Path_30403" data-name="Path 30403" d="M25.13,300.667c1.382-8.77,3.244-11.392,7.931-11.354s6.638,2.712,7.907,11.051H50.53c.066-1.247.111-2.481.2-3.712.321-4.52,3.426-7.531,7.664-7.447,4.156.081,7.251,3.31,7.407,7.747.034.96,0,1.923,0,3.155h8.782c1.561-3.362,2.689-6.609,4.542-9.369.721-1.074,3.075-1.445,4.688-1.452,4.58-.018,6.267,2.545,7.529,10.9h9.741c0-1.215-.058-2.453.01-3.684a7.528,7.528,0,0,1,15.055-.055c.066,1.152.01,2.31.01,3.348,2.648.605,5.058.808,7.173,1.7,6.7,2.836,10.169,8.08,10.209,15.348.085,15.368.029,30.738.03,46.108,0,1.173-.632,39.884-.66,41.478-.175,10.1-.072,20.2-.095,30.307-.025,10.683-6.474,17.277-17.236,17.365-13.435.111-26.87.03-40.3.03-16.444,0-32.889-.063-49.333.027-7.621.042-13.476-2.818-16.467-9.979a22.617,22.617,0,0,1-1.31-8.491c-.081-38.048.117-76.1-.167-114.143-.077-10.33,5.852-18.563,17.129-18.885m91.363,5.919c-1.062,7.8-2.806,10.426-7.311,10.416-1.705,0-4.143-.439-4.962-1.591-1.8-2.539-2.792-5.658-4.27-8.884H91.6c-1.516,8.193-3.181,10.446-7.688,10.563-4.544.118-6.269-2.087-8.26-10.777-2.27,0-4.617-.018-6.964.011-.731.008-1.461.141-2.149.213-1.507,8.2-3.126,10.558-7.614,10.478-1.614-.029-3.914-.435-4.677-1.526-1.792-2.564-2.846-5.644-4.51-9.177H41.569c-1.666,8.574-3.313,10.765-7.922,10.778-4.629.013-6.271-2.152-7.889-10.4-6.128-.827-10.891,3.8-10.9,10.814q-.046,58.52,0,117.041c.006,6.77,4.12,10.918,10.829,10.927q45.462.058,90.924,0c6.7-.008,10.789-4.153,10.848-10.9.069-7.845.022-15.692.01-23.537,0-.8.076-38.268.058-40.5-.1-12.789-.049-25.579-.05-38.369,0-5.159.1-10.321-.039-15.475-.171-6.321-4.677-10.46-10.952-10.107m-82.883,5.06c.739-.871,1.469-1.33,1.48-1.807.108-4.377.136-8.758.042-13.134-.009-.448-.966-.877-1.482-1.314-.4.566-1.135,1.124-1.148,1.7-.094,4.168-.074,8.339,0,12.508.01.53.549,1.052,1.106,2.048m26.361-8.382c0-1.921.124-3.853-.063-5.756-.072-.738-.848-1.406-1.3-2.106-.431.627-1.217,1.243-1.236,1.882q-.174,5.917,0,11.841c.019.67.752,1.319,1.155,1.979.484-.693,1.307-1.35,1.383-2.085a56.373,56.373,0,0,0,.069-5.755m25.046.076H85c0-2.134.085-4.274-.059-6.4-.036-.54-.8-1.031-1.225-1.545-.447.5-1.268.991-1.282,1.5-.112,4.159-.131,8.323-.012,12.481.016.591.926,1.156,1.423,1.734.392-.67,1.064-1.318,1.122-2.016.157-1.908.054-3.838.054-5.758m25.048.1h.012c0-2.134.084-4.272-.055-6.4-.037-.567-.753-1.09-1.158-1.633-.479.463-1.36.915-1.373,1.39q-.164,6.392-.008,12.789c.013.514.847,1.008,1.3,1.512.428-.528,1.183-1.031,1.224-1.588.149-2.015.058-4.048.058-6.074" transform="translate(10611 -13749.137)" fill="#0054a4"/>
      <path id="Path_30404" data-name="Path 30404" d="M75.7,381.34q-17.572,0-35.145,0c-.966,0-2.156.3-2.847-.147-1.114-.724-2.617-1.95-2.625-2.973s1.505-2.2,2.56-3.053c.47-.379,1.453-.147,2.2-.147q36.273-.007,72.547,0c.644,0,1.467-.209,1.9.1,1.033.753,2.642,1.781,2.618,2.658-.032,1.151-1.242,2.473-2.277,3.313-.608.493-1.859.241-2.821.242q-18.056.017-36.112.007" transform="translate(10606.192 -13764.393)" fill="#0054a4"/>
      <path id="Path_30405" data-name="Path 30405" d="M76.009,349.472q-18.354,0-36.71,0c-2.134,0-4.386-.012-4.408-2.9-.021-2.815,2.106-3.047,4.312-3.046q36.709.021,73.419,0c2.158,0,4.387.058,4.409,2.909.021,2.778-2.084,3.054-4.312,3.048q-18.354-.042-36.71-.013" transform="translate(10606.227 -13758.815)" fill="#0054a4"/>
      <path id="Path_30406" data-name="Path 30406" d="M65.676,406.994c8.7,0,17.4.027,26.094-.019,2.283-.012,4.282.408,4.269,3.125-.012,2.551-2.011,3-4.106,3q-26.576.006-53.153-.007c-2.118,0-3.993-.541-3.918-3.159.076-2.6,1.935-2.964,4.076-2.957,8.913.031,17.825.013,26.738.013" transform="translate(10606.232 -13770.078)" fill="#0054a4"/>
      <path id="Path_30407" data-name="Path 30407" d="M61.15,444.977c-7.308,0-14.616-.02-21.924.012-2.216.009-4.29-.234-4.354-3.033s2.045-3.244,4.224-3.247q22.085-.038,44.17-.016c2.273,0,4.279.616,4.206,3.292-.074,2.711-2.143,3.029-4.4,3.013-7.308-.055-14.616-.021-21.924-.021" transform="translate(10606.229 -13775.708)" fill="#0054a4"/>
      <path id="Path_30408" data-name="Path 30408" d="M179.427,448.448A33.722,33.722,0,1,1,145.7,414.726a33.722,33.722,0,0,1,33.722,33.722" transform="translate(10592.543 -13771.454)" fill="#fff"/>
      <path id="Ellipse_321" data-name="Ellipse 321" d="M33.722-3.5A37.222,37.222,0,1,1-3.5,33.722,37.264,37.264,0,0,1,33.722-3.5Zm0,67.445A30.222,30.222,0,1,0,3.5,33.722,30.257,30.257,0,0,0,33.722,63.945Z" transform="translate(10704.525 -13356.729)" fill="#0054a4"/>
      <g id="Group_3017" data-name="Group 3017" transform="translate(10719.33 -13341.924)">
        <path id="Line_128" data-name="Line 128" d="M2.467,33.179A2.467,2.467,0,0,1,0,30.712V2.467a2.467,2.467,0,0,1,4.935,0V30.712A2.467,2.467,0,0,1,2.467,33.179Z" transform="translate(5.515 9.004) rotate(-45)" fill="#0054a4"/>
        <path id="Ellipse_322" data-name="Ellipse 322" d="M16.417-2.5A18.912,18.912,0,0,1,29.794,29.794,18.917,18.917,0,1,1,9.053-1.013,18.8,18.8,0,0,1,16.417-2.5Zm0,33.722a14.8,14.8,0,1,0-14.8-14.8A14.822,14.822,0,0,0,16.417,31.222Z" transform="translate(2.5 2.5)" fill="#0054a4"/>
      </g>
    </g>
  </g>
</svg>
