<svg xmlns="http://www.w3.org/2000/svg" width="38.13" height="38.154" viewBox="0 0 38.13 38.154">
  <path id="Path_6555" data-name="Path 6555" d="M343.939,299.624c-.323,0-.568.005-.814,0a2.362,2.362,0,0,1-2.347-2.291q-.048-2.481,0-4.963a2.336,2.336,0,0,1,2.406-2.273c2.167-.012,4.334,0,6.5,0h.477l.017-.079c-.507-.255-1.024-.494-1.52-.769a9.935,9.935,0,0,1-4.023-3.727c-1.158-2.043-.853-4.14.791-5.4a5.473,5.473,0,0,1,2.748-1.047c4.5-.532,7.737,1.423,10.013,5.17.638,1.051,1.115,2.2,1.674,3.321.219-.519.436-1.077.687-1.62a12.09,12.09,0,0,1,4.895-5.763,9.019,9.019,0,0,1,7-.906c3.081.836,4.135,3.566,2.519,6.33a10.406,10.406,0,0,1-4.542,3.942,5.051,5.051,0,0,0-.941.546h.435q3.176,0,6.352,0a2.4,2.4,0,0,1,2.616,2.624q0,2.109,0,4.219a2.418,2.418,0,0,1-2.657,2.689c-.146,0-.292,0-.515,0v.613q0,7.1,0,14.195a2.411,2.411,0,0,1-2.636,2.659q-13.25,0-26.5,0a2.41,2.41,0,0,1-2.635-2.66q0-7.072,0-14.145ZM359,315.5V299.673H345.532v.525q0,7.092,0,14.184c0,.877.238,1.116,1.116,1.116H359Zm1.636,0h12.335c.913,0,1.143-.23,1.143-1.14q0-7.067,0-14.134v-.55H360.638Zm-1.621-23.79c-.162-.011-.274-.026-.387-.026q-7.664,0-15.328,0c-.653,0-.936.285-.939.942-.007,1.422,0,2.844,0,4.267,0,.915.229,1.144,1.139,1.144h15.517ZM360.632,298a2.219,2.219,0,0,0,.235.029q7.763,0,15.526,0c.606,0,.889-.308.892-.94q.01-2.232,0-4.465c0-.675-.289-.945-.986-.945q-7.589,0-15.178,0c-.158,0-.316.015-.488.024Zm-1.876-7.823.117-.189c-.236-.753-.445-1.516-.715-2.256a11.746,11.746,0,0,0-3.57-5.384,7.626,7.626,0,0,0-7.273-1.436,2.279,2.279,0,0,0-1.481,3.417,7.176,7.176,0,0,0,1.464,1.967,13.509,13.509,0,0,0,6.722,3.179C355.58,289.8,357.177,289.948,358.757,290.176Zm2-.065c.9-.082,1.676-.138,2.445-.225a18.662,18.662,0,0,0,7.166-2.151,7.7,7.7,0,0,0,3.433-3.327,2.355,2.355,0,0,0-1.534-3.527,7.3,7.3,0,0,0-5.637.49C363.137,283.18,361.8,286.475,360.76,290.112Z" transform="translate(-340.753 -278.939)" fill="#0054a4"/>
</svg>
