<svg xmlns="http://www.w3.org/2000/svg" width="18.693" height="18.695" viewBox="0 0 18.693 18.695">
  <path id="Path_6557" data-name="Path 6557" d="M273.51,446.413c-.325.223-.65.445-.973.67q-2.44,1.694-4.883,3.384a.456.456,0,0,1-.352.044q-2.957-.974-5.908-1.967c-.131-.044-.264-.08-.392-.132a1.1,1.1,0,0,1,.061-2.08c1.543-.5,3.088-.993,4.631-1.489l7.085-2.281c1.551-.5,3.1-1.005,4.654-1.5a1.084,1.084,0,0,1,1.538.826,1.625,1.625,0,0,1-.089.712Q277,448.485,275.1,454.365q-.727,2.258-1.456,4.514a1.1,1.1,0,0,1-2.13-.026c-.4-1.2-.8-2.4-1.2-3.6-.282-.846-.562-1.693-.853-2.536a.5.5,0,0,1,.073-.513q1.958-2.776,3.9-5.565c.041-.059.08-.12.12-.181Z" transform="translate(-260.29 -440.983)" fill="#0054a4"/>
</svg>
