<svg xmlns="http://www.w3.org/2000/svg" width="30.968" height="23.864" viewBox="0 0 30.968 23.864">
  <g id="Group_872" data-name="Group 872" transform="translate(-346.454 -331.296)">
    <path id="Path_113" data-name="Path 113" d="M366.967,460.816a4.936,4.936,0,0,1-.656-7.3,4.491,4.491,0,0,1,6.561.034,4.917,4.917,0,0,1-.718,7.285c.129.072.237.142.353.2a8.1,8.1,0,0,1,4.91,7.194c0,.054,0,.109,0,.163,0,.39-.135.7-.547.724-.451.026-.6-.286-.61-.7a7.062,7.062,0,0,0-1.585-4.338,6.532,6.532,0,0,0-8.8-1.288c-.127.089-.245.193-.267.21.671,1.216,1.387,2.354,1.945,3.569a9.788,9.788,0,0,1,.807,4.014c0,.434-.094.8-.573.794-.438,0-.549-.349-.574-.758a9.93,9.93,0,0,0-5.867-8.954,9.7,9.7,0,0,0-13.28,6.213,18.733,18.733,0,0,0-.45,2.718c-.055.422-.148.791-.616.778s-.554-.395-.552-.819a11.4,11.4,0,0,1,7.147-10.395c.243-.09.485-.183.8-.3a6.62,6.62,0,0,1-3.293-5.8,6.36,6.36,0,0,1,2.016-4.791,6.157,6.157,0,0,1,9.207.675,6.706,6.706,0,0,1-1.734,9.818l4.12,2.354Zm-9.581-1.385a5.366,5.366,0,1,0-5.148-5.341A5.265,5.265,0,0,0,357.386,459.431Zm12.144.984a3.556,3.556,0,1,0-3.38-3.595A3.463,3.463,0,0,0,369.53,460.415Z" transform="translate(0 -116.209)" fill="#0054a4"/>
  </g>
</svg>
