<svg xmlns="http://www.w3.org/2000/svg" width="22.261" height="17.202" viewBox="0 0 22.261 17.202">
  <g id="Group_872" data-name="Group 872" transform="translate(-346.354 -331.195)">
    <path id="Path_113" data-name="Path 113" d="M361.067,456.987a3.516,3.516,0,0,1-.467-5.2,3.2,3.2,0,0,1,4.674.024,3.5,3.5,0,0,1-.512,5.189c.092.051.169.1.252.139a5.767,5.767,0,0,1,3.5,5.125c0,.038,0,.077,0,.116,0,.278-.1.5-.39.516-.321.019-.426-.2-.435-.5a5.031,5.031,0,0,0-1.129-3.09,4.654,4.654,0,0,0-6.267-.918c-.091.064-.174.137-.19.149.478.867.988,1.677,1.385,2.543a6.973,6.973,0,0,1,.575,2.86c0,.309-.067.568-.408.565-.312,0-.391-.249-.409-.54a7.074,7.074,0,0,0-4.18-6.378,6.909,6.909,0,0,0-9.46,4.426,13.345,13.345,0,0,0-.321,1.936c-.039.3-.105.564-.439.554s-.395-.281-.394-.583a8.118,8.118,0,0,1,5.091-7.4c.173-.064.345-.13.572-.216a4.716,4.716,0,0,1-2.346-4.13,4.531,4.531,0,0,1,1.436-3.413,4.386,4.386,0,0,1,6.559.481,4.777,4.777,0,0,1-1.235,6.994l2.935,1.677ZM354.242,456a3.823,3.823,0,1,0-3.667-3.8A3.751,3.751,0,0,0,354.242,456Zm8.651.7a2.533,2.533,0,1,0-2.408-2.561A2.467,2.467,0,0,0,362.893,456.7Z" transform="translate(0 -116.209)" fill="#0054a4" stroke="#0054a4" stroke-width="0.2"/>
  </g>
</svg>
