<svg xmlns="http://www.w3.org/2000/svg" xmlns:xlink="http://www.w3.org/1999/xlink" width="17.95" height="28.384" viewBox="0 0 17.95 28.384">
  <defs>
    <clipPath id="clip-path">
      <rect id="Rectangle_240" data-name="Rectangle 240" width="17.95" height="28.384" transform="translate(0 2)" fill="#e72323"/>
    </clipPath>
  </defs>
  <g id="Absent" transform="translate(0 -2)">
    <g id="Group_11562" data-name="Group 11562" clip-path="url(#clip-path)">
      <path id="Path_31501" data-name="Path 31501" d="M13.514,137.574c1.1,0,2.192,0,3.283,0,.2,0,.454-.048.586.053a1.393,1.393,0,0,1,.555.7c.073.371-.206.642-.6.717a5.445,5.445,0,0,1-.606.044v.654q0,4.128,0,8.256c0,.926-.2,1.121-1.126,1.123-1.039,0-2.078.005-3.117,0-.6,0-.953-.293-.951-.746s.352-.736.957-.741c.89-.008,1.78,0,2.7,0V139.1H2.738v8.53H5.484c.415,0,.769.107.879.566a.7.7,0,0,1-.682.91q-1.858.042-3.718,0c-.518-.011-.738-.327-.739-.946q0-4.21,0-8.421V139.1c-.147-.017-.266-.036-.385-.044-.569-.039-.832-.265-.839-.726-.008-.481.275-.745.868-.754.966-.014,1.932,0,2.9,0h.75c0-1.1,0-2.138,0-3.172,0-.856.21-1.072,1.059-1.073q3.417,0,6.835,0c.8,0,1.01.21,1.02,1,.012,1.02.012,2.041.019,3.061a.908.908,0,0,0,.065.181m-1.586-2.729H6.047v2.693h5.881Z" transform="translate(0 -118.741)" fill="#e72323"/>
      <path id="Path_31502" data-name="Path 31502" d="M50.47,5.179c0,.464.007.924,0,1.383s-.259.749-.636.746-.624-.289-.632-.755c-.011-.568-.006-1.136,0-1.7,0-.63.162-.8.8-.9a1.338,1.338,0,0,0,1.021-2,1.355,1.355,0,0,0-2.463.224,1.865,1.865,0,0,0-.093.45.572.572,0,0,1-.667.592c-.41-.034-.558-.311-.557-.706a2.605,2.605,0,0,1,2.786-2.5,2.614,2.614,0,0,1,.761,5.041l-.314.129" transform="translate(-40.603 2.904)" fill="#e72323"/>
      <path id="Path_31503" data-name="Path 31503" d="M76.775,264.9a.733.733,0,0,1-.692.757.733.733,0,1,1-.05-1.465.73.73,0,0,1,.742.708" transform="translate(-67.067 -235.289)" fill="#e72323"/>
      <path id="Path_31504" data-name="Path 31504" d="M68.61,88.833a.629.629,0,1,1,.606.636.661.661,0,0,1-.606-.636" transform="translate(-60.006 -77.179)" fill="#e72323"/>
    </g>
  </g>
</svg>
