<svg id="Apply_WFH" data-name="Apply WFH" xmlns="http://www.w3.org/2000/svg" xmlns:xlink="http://www.w3.org/1999/xlink" width="39.09" height="39.213" viewBox="0 0 39.09 39.213">
  <defs>
    <clipPath id="clip-path">
      <rect id="Rectangle_217" data-name="Rectangle 217" width="39.09" height="39.213" fill="#fff"/>
    </clipPath>
  </defs>
  <g id="Group_11515" data-name="Group 11515" clip-path="url(#clip-path)">
    <path id="Path_31471" data-name="Path 31471" d="M1.866,15.187l2.072,2.631C4.97,17,5.985,16.2,7,15.392q5.89-4.688,11.779-9.377c.677-.539.868-.533,1.572.027L34.83,17.569c.087.07.18.133.326.239l2.085-2.639L33.4,12.113c-.472-.376-.951-.745-1.414-1.132A.769.769,0,1,1,32.952,9.8q2.864,2.265,5.714,4.545a.8.8,0,0,1,.144,1.313c-.8,1.028-1.632,2.029-2.408,3.074a1.829,1.829,0,0,0-.358,1.009c-.021,6.1-.015,12.2-.016,18.293,0,.987-.2,1.181-1.194,1.181H4.252c-1,0-1.192-.193-1.193-1.182,0-6.1.006-12.2-.016-18.293a1.832,1.832,0,0,0-.358-1.009C1.922,17.7,1.1,16.71.313,15.7c-.457-.586-.421-.933.154-1.39q8.5-6.77,17.009-13.53A3.136,3.136,0,0,1,21.589.759c1.916,1.5,3.814,3.024,5.716,4.543.491.392.589.835.291,1.21s-.747.384-1.243-.01Q23.56,4.284,20.773,2.06a1.694,1.694,0,0,0-2.408-.032Q10.277,8.455,2.2,14.89c-.1.08-.193.172-.331.3m15.4,10.763a8.831,8.831,0,0,1-1-2.417,28.292,28.292,0,0,1-.041-5.3,4.747,4.747,0,0,1,4.407-4.159,4.823,4.823,0,0,1,5.057,3.448c.529,1.876.223,3.823.183,5.741a2.129,2.129,0,0,1-.2.819c-.278.606-.6,1.193-.957,1.9h9.765a1.016,1.016,0,0,0,.029-.218c0-2.039.015-4.078-.015-6.116a1.038,1.038,0,0,0-.388-.672q-5.763-4.618-11.549-9.208L19.565,7.386c-.108.07-.176.1-.234.151Q12.112,13.281,4.9,19.038a1.019,1.019,0,0,0-.318.706Q4.56,28.437,4.574,37.13c0,.163.022.326.035.5H9.235a12,12,0,0,1-.463-2.514,9.15,9.15,0,0,1,4.516-7.831,9.334,9.334,0,0,1,3.977-1.337m17.2,11.69a2.673,2.673,0,0,0,.051-.357c0-2.848.01-5.7,0-8.544,0-.849-.481-1.278-1.38-1.278q-6.111-.006-12.223,0c-1,0-1.4.411-1.4,1.414q0,4.1,0,8.2v.561ZM18.025,27.485a1.711,1.711,0,0,0-.255-.016,7.871,7.871,0,0,0-7.483,7.573,2.321,2.321,0,0,0,2.482,2.628c1.358.01,2.716,0,4.074,0H17.93V35.7c-1.422,0-2.813,0-4.2,0-.691,0-1.028-.257-1.033-.767s.338-.787,1.014-.79c1.207-.006,2.414,0,3.621,0,.2,0,.4-.021.7-.037Zm-.323-5.93c-.2,1.672.172,3.048,1.653,3.9a3.177,3.177,0,0,0,3.575-.136A3.573,3.573,0,0,0,24.4,21.731l-2.74-.909c-1.07.961-2.537.674-3.962.734m0-1.572c.369,0,.706-.023,1.039,0a2.425,2.425,0,0,0,2.73-1.329.728.728,0,0,1,1.314.432.61.61,0,0,0,.474.71,10.292,10.292,0,0,0,1.07.227,3.611,3.611,0,0,0-1.353-3.79,3.223,3.223,0,0,0-3.623-.169c-1.477.844-1.859,2.222-1.651,3.915" transform="translate(0 0)" fill="#fff"/>
    <path id="Path_31472" data-name="Path 31472" d="M256.16,67.063a.76.76,0,1,1,.751-.77.808.808,0,0,1-.751.77" transform="translate(-226.445 -58.12)" fill="#fff"/>
    <path id="Path_31473" data-name="Path 31473" d="M225.981,279.912a5.508,5.508,0,0,1-.678,0,.741.741,0,0,1-.734-.781.717.717,0,0,1,.71-.744,9.344,9.344,0,0,1,1.469,0,.714.714,0,0,1,.7.747.723.723,0,0,1-.679.771,5.027,5.027,0,0,1-.791.008v.006" transform="translate(-199.133 -246.826)" fill="#fff"/>
  </g>
</svg>
