<svg id="Apply_Leave" data-name="Apply Leave" xmlns="http://www.w3.org/2000/svg" xmlns:xlink="http://www.w3.org/1999/xlink" width="39.21" height="39.213" viewBox="0 0 39.21 39.213">
  <defs>
    <clipPath id="clip-path">
      <rect id="Rectangle_216" data-name="Rectangle 216" width="39.21" height="39.213" fill="#fff"/>
    </clipPath>
  </defs>
  <g id="Group_11513" data-name="Group 11513" clip-path="url(#clip-path)">
    <path id="Path_31461" data-name="Path 31461" d="M104.071,37.929V1.3H76.292V1.99q0,9.464,0,18.929a3.088,3.088,0,0,1-.019.584.606.606,0,0,1-.7.557.574.574,0,0,1-.549-.637c0-.117,0-.234,0-.352q0-10.021,0-20.042C75.023.153,75.17,0,76.038,0q14.127,0,28.254,0c.887,0,1.07.18,1.07,1.059q0,18.548,0,37.1c0,.876-.185,1.056-1.073,1.057q-14.127,0-28.254,0a1.007,1.007,0,0,1-.959-1.552.64.64,0,0,1,1.109-.062.9.9,0,0,0,.563.336q13.511.024,27.023.013c.078,0,.155-.009.3-.018" transform="translate(-66.152 0)" fill="#fff"/>
    <path id="Path_31462" data-name="Path 31462" d="M139.143,30.668c0-.669-.008-1.27,0-1.87a1.88,1.88,0,0,1,1.905-1.951q1.873-.046,3.748,0a1.913,1.913,0,0,1,1.927,1.948c.022.6,0,1.2,0,1.873.84,0,1.615,0,2.39,0a1.833,1.833,0,0,1,2,2q.009,3.045,0,6.09a1.869,1.869,0,0,1-2.012,2.009q-6.18.011-12.359,0a1.934,1.934,0,0,1-2.059-2.051q-.015-3.016,0-6.032a1.894,1.894,0,0,1,2.015-2.014c.779-.006,1.559,0,2.437,0m5.631,1.3h-3.717v7.49h3.717Zm.692-1.327c0-.643.022-1.244-.007-1.843a.667.667,0,0,0-.728-.678q-1.812-.015-3.624,0c-.367,0-.661.174-.676.579-.024.636-.006,1.273-.006,1.94Zm.641,8.81h1.212v-7.5h-1.212Zm-8.877-7.475c-1.04-.145-1.249.034-1.249,1.013q0,2.717,0,5.433c0,1,.232,1.184,1.249.979Zm11.43,7.48c1.1.058,1.218-.053,1.218-1.09q0-2.725,0-5.45c0-.9-.3-1.125-1.217-.914Zm-10.106-.009H139.7V31.951h-1.143Z" transform="translate(-118.901 -23.681)" fill="#fff"/>
    <path id="Path_31463" data-name="Path 31463" d="M60.763,153.217a9.542,9.542,0,0,1-.466,1.3c-.616,1.174-1.293,2.316-1.906,3.492a2.658,2.658,0,0,0-.294,1.1,13.95,13.95,0,0,1-1.475,6.265,6.46,6.46,0,0,1-2.96,2.9,1.67,1.67,0,0,0-.528.438c-.872,1.027-1.721,2.073-2.6,3.091a1.216,1.216,0,0,1-.669.384.588.588,0,0,1-.485-.319.969.969,0,0,1,.1-.744c.988-1.235,2.012-2.44,3.03-3.651a.822.822,0,0,1,.317-.249,5.326,5.326,0,0,0,3.288-3.926,45.99,45.99,0,0,0,.74-4.543,4.056,4.056,0,0,1,.343-1.208c.622-1.193,1.29-2.363,1.952-3.535a1.468,1.468,0,0,0,.1-1.452.809.809,0,0,0-1.51-.115c-1.227,1.81-2.44,3.629-3.659,5.445-.109.162-.224.32-.328.485-.244.386-.516.734-1.031.433-.381-.222-.371-.615,0-1.17q1.026-1.534,2.055-3.065.9-1.336,1.8-2.671a2.093,2.093,0,0,1,2.4-1.125,2.708,2.708,0,0,1,1.794,2.443" transform="translate(-43.564 -133.033)" fill="#fff"/>
    <path id="Path_31464" data-name="Path 31464" d="M8.31,152.317a4.437,4.437,0,0,1-.414.622c-.6.618-1.206,1.221-1.816,1.824a3.124,3.124,0,0,0-1.006,2.29c0,1.912-.026,3.825.022,5.735a6.048,6.048,0,0,1-1.4,4.274c-.856,1.01-1.61,2.107-2.4,3.172-.275.371-.593.621-1.025.3s-.263-.7.012-1.065c.849-1.118,1.658-2.268,2.54-3.359a4.513,4.513,0,0,0,1.013-3.03c-.026-2.029-.008-4.058-.013-6.087a4.135,4.135,0,0,1,1.208-2.953c.674-.705,1.357-1.4,2.074-2.063a.939.939,0,0,1,.725-.16c.172.034.3.3.485.5" transform="translate(0 -134.013)" fill="#fff"/>
    <path id="Path_31465" data-name="Path 31465" d="M141.756,271.774c-.307.353-.52.633-.769.875a4.02,4.02,0,0,1-.854.7c-.86.456-1.521.045-1.544-.927-.01-.4,0-.808,0-1.359-.338.33-.608.589-.873.853-.428.426-.827.886-1.291,1.268a1.41,1.41,0,0,1-.85.288.7.7,0,0,1-.536-.409.913.913,0,0,1,.253-.7c.418-.42.9-.772,1.349-1.164.423-.372.811-.788,1.253-1.135a1.254,1.254,0,0,1,1.424-.2,1.339,1.339,0,0,1,.6,1.255c.014.213,0,.428,0,.819.241-.275.391-.45.546-.622s.31-.352.479-.512c.7-.657,1.869-.749,2.1.676.038.241.085.48.15.842.4-.351.7-.637,1.026-.9.757-.626,1.14-.519,1.764.231a2.324,2.324,0,0,0,1.169.532,5.92,5.92,0,0,0,1.107.069.619.619,0,0,1,.658.669.6.6,0,0,1-.676.579,4.164,4.164,0,0,1-3.292-.977c-.6.408-1.072,1.086-1.952.976-.989-.124-1.021-.931-1.238-1.724" transform="translate(-119.207 -238.115)" fill="#fff"/>
    <path id="Path_31466" data-name="Path 31466" d="M170,168.433h-6.847c-.175,0-.39.055-.517-.025-.208-.132-.5-.359-.5-.536a1.019,1.019,0,0,1,.456-.637c.149-.1.415-.049.629-.049q6.789,0,13.577,0c.078,0,.156,0,.234,0,.467-.025.864.125.863.639s-.412.618-.873.616c-2.341-.011-4.682,0-7.023,0" transform="translate(-143.137 -147.581)" fill="#fff"/>
    <path id="Path_31467" data-name="Path 31467" d="M210.451,199.773c1.5,0,3.007.008,4.511,0,.452,0,.817.13.818.615,0,.469-.35.657-.8.657H205.84c-.452,0-.8-.2-.791-.667s.383-.607.832-.6c1.523.013,3.046.005,4.569.005" transform="translate(-181.021 -176.359)" fill="#fff"/>
    <path id="Path_31468" data-name="Path 31468" d="M140.287,233.115c-1.485,0-2.97-.006-4.455,0-.465,0-.871-.124-.878-.633s.384-.665.854-.664q4.514.006,9.027,0c.471,0,.86.17.849.669s-.42.63-.884.627c-1.5-.011-3.009,0-4.514,0" transform="translate(-119.14 -204.657)" fill="#fff"/>
    <path id="Path_31469" data-name="Path 31469" d="M246.056,233.129c-.781,0-1.562,0-2.343,0-.449,0-.8-.154-.793-.648s.365-.644.808-.644h4.686c.451,0,.8.192.8.658s-.362.64-.814.635c-.781-.009-1.562,0-2.343,0" transform="translate(-214.455 -204.671)" fill="#fff"/>
    <path id="Path_31470" data-name="Path 31470" d="M148.37,199.817c.6,0,1.207,0,1.811,0,.389,0,.648.174.671.572a.6.6,0,0,1-.638.68q-1.868.033-3.738,0a.6.6,0,0,1-.642-.677c.021-.4.277-.576.667-.576h1.869" transform="translate(-128.744 -176.402)" fill="#fff"/>
  </g>
</svg>
