<svg xmlns="http://www.w3.org/2000/svg" xmlns:xlink="http://www.w3.org/1999/xlink" width="106" height="106" viewBox="0 0 106 106">
  <defs>
    <clipPath id="clip-path">
      <rect id="Rectangle_149" data-name="Rectangle 149" width="32.039" height="41.099" fill="#fff"/>
    </clipPath>
  </defs>
  <g id="Check_in-out" data-name="Check in-out" transform="translate(-273 -180)">
    <circle id="Ellipse_9" data-name="Ellipse 9" cx="53" cy="53" r="53" transform="translate(273 180)" fill="#3f5ea2"/>
    <text id="Check_In" data-name="Check In" transform="translate(304 266)" fill="#fff" font-size="12" font-family="NunitoSans-SemiBold, Nunito Sans" font-weight="600"><tspan x="0" y="0">Check In</tspan></text>
    <g id="Group_2538" data-name="Group 2538" transform="translate(310.707 205.192)">
      <g id="Group_2537" data-name="Group 2537" clip-path="url(#clip-path)">
        <path id="Path_31428" data-name="Path 31428" d="M11.266,85.488c-.009-1.717-.022-3.262-.023-4.807q0-5.61,0-11.219a3.206,3.206,0,0,1,3.026-3.451,3.135,3.135,0,0,1,3.391,2.864c.092,1.286.04,2.582.054,3.873,0,.209.013.419.021.646a3.366,3.366,0,0,1,4.75,2.413,3.237,3.237,0,0,1,2.975,0,3.357,3.357,0,0,1,1.773,2.315,9.1,9.1,0,0,1,1.571-.271,3.221,3.221,0,0,1,3.227,3.329c-.115,3.169-.213,6.342-.466,9.5a9.123,9.123,0,0,1-9.02,8.628,41.465,41.465,0,0,1-5.335-.112,8.161,8.161,0,0,1-5.073-2.467Q6.456,91.079.8,85.393c-1.448-1.457-.861-3.638,1.159-4.433a4.009,4.009,0,0,1,4.116.736c1.667,1.252,3.365,2.462,5.189,3.792M7.932,90.144c1.69,1.69,3.388,3.37,5.066,5.071A7.754,7.754,0,0,0,18.84,97.64c1.038-.013,2.076,0,3.114,0a7.578,7.578,0,0,0,7.972-7.562c.147-2.914.278-5.828.415-8.742a1.627,1.627,0,0,0-1.394-1.793,1.56,1.56,0,0,0-1.671,1.512c-.084.636-.407.977-.9.946s-.794-.412-.8-1.043c-.009-.705.029-1.412-.01-2.115a2.22,2.22,0,0,0-.276-.993,1.444,1.444,0,0,0-1.685-.636,1.525,1.525,0,0,0-1.1,1.439c-.025.8.007,1.6-.013,2.407-.015.6-.332.933-.833.941a.874.874,0,0,1-.852-.928c-.009-.156-.006-.313-.006-.47,0-1.371.008-2.741,0-4.112a1.552,1.552,0,1,0-3.081.022c-.007,1.39,0,2.781,0,4.171a4.032,4.032,0,0,1-.036.643.743.743,0,0,1-.772.667.764.764,0,0,1-.829-.6,2.479,2.479,0,0,1-.053-.639q-.006-4.259-.005-8.517c0-1,0-2,0-3a1.536,1.536,0,0,0-2.495-1.216,1.792,1.792,0,0,0-.59,1.58q.009,8.6.006,17.21c0,.428-.023.839-.457,1.063-.454.234-.812.014-1.179-.256q-3.309-2.431-6.636-4.838A2.019,2.019,0,0,0,2.662,82.5c-.911.356-1.35,1.067-.431,1.958,1.927,1.867,3.8,3.786,5.7,5.683" transform="translate(0 -58.247)" fill="#fff"/>
        <path id="Path_31429" data-name="Path 31429" d="M48.64,3.551A10.761,10.761,0,0,1,51.1,13.98c-.107.371-.61.455-1.052.381-.418-.071-.782-.283-.7-.528a9.26,9.26,0,0,0-12-11.573,9.292,9.292,0,0,0-4.993,13.115,1.423,1.423,0,0,1,.175.927.907.907,0,0,1-.666.541,1.112,1.112,0,0,1-.843-.457,10.545,10.545,0,0,1,.138-11.057A10.818,10.818,0,0,1,44.576.775,11.127,11.127,0,0,1,48.64,3.551" transform="translate(-26.053 -0.001)" fill="#fff"/>
        <path id="Path_31430" data-name="Path 31430" d="M71.573,30.947a7.615,7.615,0,0,1,1.876,7.7,3.325,3.325,0,0,1-.126.328.808.808,0,0,1-1.033.538.8.8,0,0,1-.543-1.073,6.9,6.9,0,0,0,.278-3.128,5.889,5.889,0,1,0-11.438,2.723c.253.883.132,1.3-.425,1.475-.6.183-.954-.112-1.218-1.006a7.6,7.6,0,0,1,11.885-8.223c.264.2.5.443.744.666" transform="translate(-51.737 -25.361)" fill="#fff"/>
      </g>
    </g>
  </g>
</svg>
