<svg id="Check_In_Out" data-name="Check In/Out" xmlns="http://www.w3.org/2000/svg" xmlns:xlink="http://www.w3.org/1999/xlink" width="23.67" height="39.213" viewBox="0 0 23.67 39.213">
  <defs>
    <clipPath id="clip-path">
      <rect id="Rectangle_218" data-name="Rectangle 218" width="23.67" height="39.213" fill="#fff"/>
    </clipPath>
  </defs>
  <g id="Group_11517" data-name="Group 11517" clip-path="url(#clip-path)">
    <path id="Path_31474" data-name="Path 31474" d="M0,142.45a11.728,11.728,0,0,1,11.786-11.7,11.681,11.681,0,1,1,.024,23.358A11.691,11.691,0,0,1,0,142.45m1.519-.032a10.2,10.2,0,0,0,10.259,10.15,10.143,10.143,0,1,0,.1-20.284A10.241,10.241,0,0,0,1.519,142.419" transform="translate(0 -114.896)" fill="#fff"/>
    <path id="Path_31475" data-name="Path 31475" d="M26.125,55.6H8.277a4.452,4.452,0,0,1-.665-.02.708.708,0,0,1-.68-.78.734.734,0,0,1,.73-.742,4.485,4.485,0,0,1,.545-.008H26.118l.117-.188c-.556-.514-1.123-1.016-1.667-1.543-.478-.463-.517-.909-.151-1.254s.771-.295,1.221.151q1.463,1.45,2.909,2.916c.53.538.532.857,0,1.392q-1.446,1.467-2.912,2.914c-.439.435-.882.483-1.223.159-.36-.342-.318-.8.148-1.258.54-.532,1.1-1.046,1.65-1.568l-.09-.17" transform="translate(-6.09 -44.68)" fill="#fff"/>
    <path id="Path_31476" data-name="Path 31476" d="M9.555,3.206H27.47c.908,0,1.267.214,1.282.761s-.384.8-1.3.8H9.474c.144.183.225.308.327.411.425.432.859.855,1.284,1.286.479.486.541.907.194,1.26s-.811.3-1.269-.159c-.717-.711-1.428-1.43-2.142-2.145-.271-.271-.55-.535-.813-.814A.761.761,0,0,1,7.026,3.4Q8.575,1.816,10.157.27A.729.729,0,0,1,11.284.262a.7.7,0,0,1-.044,1.076c-.588.571-1.2,1.119-1.8,1.677l.113.191" transform="translate(-5.919 0)" fill="#fff"/>
    <path id="Path_31477" data-name="Path 31477" d="M83.04,182.581q0-1.332,0-2.663c0-.747.274-1.142.778-1.133s.755.382.756,1.159c0,1.533.016,3.067-.009,4.6a.935.935,0,0,0,.518.973c.7.39,1.374.844,2.051,1.282.522.337.657.745.405,1.158s-.7.469-1.217.15c-.907-.565-1.8-1.15-2.713-1.705a1.066,1.066,0,0,1-.579-1.036c.027-.927.008-1.856.008-2.784" transform="translate(-72.964 -157.105)" fill="#fff"/>
  </g>
</svg>
