<svg xmlns="http://www.w3.org/2000/svg" width="15.349" height="20.294" viewBox="0 0 15.349 20.294">
  <path id="Path_31539" data-name="Path 31539" d="M166.8,20.294a7.816,7.816,0,0,1-5.694-2.753,14.389,14.389,0,0,1-2.038-2.959c-.846-1.525-1.761-3.017-2.52-4.584a8.084,8.084,0,0,1-.723-4.962A6.5,6.5,0,0,1,159.472.122a1.1,1.1,0,0,1,1.084.046,2.919,2.919,0,0,1,.76.608,9,9,0,0,1,1.966,3.8,2,2,0,0,1-.877,2.115c-.253.165-.522.308-.785.459a1.382,1.382,0,0,0-.6,2q1.17,2.1,2.41,4.151a1.411,1.411,0,0,0,2.036.5c.2-.114.4-.23.6-.343a1.991,1.991,0,0,1,2.521.228,8.318,8.318,0,0,1,2.421,4.027,1.334,1.334,0,0,1-.712,1.592,6.661,6.661,0,0,1-3.49.981m-.013-1.057a5.411,5.411,0,0,0,2.81-.746c.413-.245.461-.339.3-.82a8.868,8.868,0,0,0-1.779-2.973,2.175,2.175,0,0,0-.388-.328.873.873,0,0,0-1.052-.038c-.236.147-.485.273-.727.412a2.41,2.41,0,0,1-3.324-.74c-.932-1.473-1.8-2.988-2.623-4.527a2.376,2.376,0,0,1,1-3.2c.283-.138.544-.317.821-.468A.751.751,0,0,0,162.253,5a6.914,6.914,0,0,0-2.019-3.775.52.52,0,0,0-.478-.042,5.576,5.576,0,0,0-2.965,5.42,8.324,8.324,0,0,0,.981,3.548c.827,1.522,1.716,3.009,2.569,4.517a10.664,10.664,0,0,0,2.165,2.765,6.364,6.364,0,0,0,4.285,1.81" transform="translate(-155.712 0)" fill="#3f5ea2"/>
</svg>
