<svg id="Group_11730" data-name="Group 11730" xmlns="http://www.w3.org/2000/svg" width="37.007" height="40" viewBox="0 0 37.007 40">
  <g id="Group_11728" data-name="Group 11728" transform="translate(4.171 5.499)">
    <path id="Path_31483" data-name="Path 31483" d="M257.876,204.1c.254.3.4.648.611.684a1,1,0,0,0,.842-.264,13.211,13.211,0,0,0,1.178-2.03.83.83,0,0,0-.138-.78c-.207-.162-.764-.247-.852-.129-.578.778-1.071,1.619-1.641,2.518" transform="translate(-250.107 -175.807)" fill="#fff"/>
    <path id="Path_31484" data-name="Path 31484" d="M257.624,34.331c.552.909,1.036,1.765,1.6,2.565.084.119.618.074.8-.073a.854.854,0,0,0,.242-.775,14.237,14.237,0,0,0-1.251-2.169,1.02,1.02,0,0,0-.863-.183c-.192.04-.323.372-.53.635" transform="translate(-249.811 -33.674)" fill="#fff"/>
    <path id="Path_31485" data-name="Path 31485" d="M293.214,168.812c0-.722-.469-1.059-1-.8a12.221,12.221,0,0,0-2.093,1.225,1.04,1.04,0,0,0-.085.972.926.926,0,0,0,.868.191,13.451,13.451,0,0,0,1.911-1.087,1.73,1.73,0,0,0,.4-.5" transform="translate(-287.686 -147.351)" fill="#fff"/>
    <path id="Path_31486" data-name="Path 31486" d="M293.341,73.988c-.054-.089-.13-.365-.31-.485a10.853,10.853,0,0,0-1.916-1.1,1.166,1.166,0,0,0-1.025.28c-.355.382-.064.746.335.979.615.359,1.22.739,1.851,1.069.59.309,1.052.037,1.066-.743" transform="translate(-287.809 -66.439)" fill="#fff"/>
    <path id="Path_31488" data-name="Path 31488" d="M303.872,123.514a3.94,3.94,0,0,0-1.14.027,1.124,1.124,0,0,0-.664.64c-.121.427.168.745.629.761.79.026,1.582.028,2.372,0a.591.591,0,0,0,.618-.77,1.129,1.129,0,0,0-.676-.63,3.981,3.981,0,0,0-1.14-.026" transform="translate(-302.041 -109.722)" fill="#fff"/>
  </g>
  <g id="Group_11729" data-name="Group 11729" transform="translate(26.524 5.787)">
    <path id="Path_31483-2" data-name="Path 31483" d="M260.551,204.1c-.254.3-.4.648-.611.684a1,1,0,0,1-.842-.264,13.209,13.209,0,0,1-1.178-2.03.83.83,0,0,1,.138-.78c.207-.162.764-.247.852-.129.578.778,1.071,1.619,1.641,2.518" transform="translate(-257.838 -175.807)" fill="#fff"/>
    <path id="Path_31484-2" data-name="Path 31484" d="M260.294,34.331c-.552.909-1.036,1.765-1.6,2.565-.084.119-.618.074-.8-.073a.854.854,0,0,1-.242-.775,14.237,14.237,0,0,1,1.251-2.169,1.02,1.02,0,0,1,.863-.183c.192.04.323.372.53.635" transform="translate(-257.624 -33.674)" fill="#fff"/>
    <path id="Path_31485-2" data-name="Path 31485" d="M289.953,168.812c0-.722.469-1.059,1-.8a12.221,12.221,0,0,1,2.093,1.225,1.04,1.04,0,0,1,.085.972.926.926,0,0,1-.868.191,13.451,13.451,0,0,1-1.911-1.087,1.729,1.729,0,0,1-.4-.5" transform="translate(-284.999 -147.351)" fill="#fff"/>
    <path id="Path_31486-2" data-name="Path 31486" d="M289.929,73.988c.054-.089.13-.365.31-.485a10.854,10.854,0,0,1,1.916-1.1,1.166,1.166,0,0,1,1.025.28c.355.382.064.746-.335.979-.615.359-1.22.739-1.851,1.069-.59.309-1.051.037-1.066-.743" transform="translate(-284.979 -66.439)" fill="#fff"/>
    <path id="Path_31488-2" data-name="Path 31488" d="M303.886,123.514a3.94,3.94,0,0,1,1.14.027,1.124,1.124,0,0,1,.664.64c.121.427-.168.745-.629.761-.79.026-1.582.028-2.372,0a.591.591,0,0,1-.618-.77,1.129,1.129,0,0,1,.676-.63,3.981,3.981,0,0,1,1.14-.026" transform="translate(-295.235 -109.722)" fill="#fff"/>
  </g>
  <path id="Path_31555" data-name="Path 31555" d="M35.3,1.717c.171,13.09-.02,18.166-.022,18.217l0,.049v.049c0,.041.077,4.1.008,18.248A18.354,18.354,0,0,1,23.941,7.023,18.216,18.216,0,0,1,35.3,1.717M36.919,0a20,20,0,1,0,0,40c.085-15.756,0-20,0-20S37.134,14.585,36.919,0Z" transform="translate(-16.919)" fill="#fff"/>
</svg>
