<svg xmlns="http://www.w3.org/2000/svg" xmlns:xlink="http://www.w3.org/1999/xlink" width="28.076" height="27.544" viewBox="0 0 28.076 27.544">
  <defs>
    <clipPath id="clip-path">
      <rect id="Rectangle_241" data-name="Rectangle 241" width="28.076" height="27.543" transform="translate(0 0)" fill="#f08d00"/>
    </clipPath>
  </defs>
  <g id="Late" transform="translate(-48.253 50.578)">
    <g id="Group_11566" data-name="Group 11566" transform="translate(48.253 -50.578)" clip-path="url(#clip-path)">
      <path id="Path_31505" data-name="Path 31505" d="M11.225,49.145c-.289.618-.569,1.142-.772,1.695a.746.746,0,0,0,.142.62c.66.763,1.363,1.489,2.036,2.241a2.049,2.049,0,0,1,.4.632q.787,2.125,1.537,4.264a1.433,1.433,0,0,1-.543,1.8,1.37,1.37,0,0,1-1.752-.2,2.4,2.4,0,0,1-.428-.765c-.365-.97-.7-1.951-1.058-2.925a1.052,1.052,0,0,0-.241-.413c-.635-.58-1.284-1.144-1.978-1.757-.09.146-.172.259-.234.382-.32.636-.64,1.271-.95,1.912a.89.89,0,0,1-.876.558c-1.708-.008-3.416,0-5.124-.007a1.313,1.313,0,1,1,.041-2.62c1.04-.006,2.079.009,3.118-.013a.551.551,0,0,0,.423-.254c.879-2.36,1.736-4.729,2.6-7.1a.269.269,0,0,0,0-.087c-.532-.2-.69-.152-.961.309-.489.831-.968,1.668-1.467,2.492a1.375,1.375,0,0,1-1.477.68A1.3,1.3,0,0,1,2.55,49.413a1.763,1.763,0,0,1,.216-.964c.527-.962,1.105-1.9,1.666-2.839a2.056,2.056,0,0,1,1.876-1.07H9.332a2.361,2.361,0,0,1-.15-2.655,2.273,2.273,0,0,1,4.068.386c.466,1.222-.111,2.366-1.574,3.046.876.8,1.733,1.582,2.6,2.353a.506.506,0,0,0,.366.028c.553-.107,1.1-.233,1.654-.345a.833.833,0,0,1,1.1.821A1.522,1.522,0,0,1,16.265,49.9c-1.033.265-2.08.48-3.125.694a1.072,1.072,0,0,1-1.021-.429c-.287-.316-.562-.643-.895-1.024m5.3-.932c-.65.134-1.278.232-1.886.4a.867.867,0,0,1-.919-.24c-.978-.911-1.97-1.807-2.966-2.7a.868.868,0,0,0-.489-.251c-1.351-.018-2.7-.012-4.055,0a1.1,1.1,0,0,0-.962.555c-.594.976-1.185,1.955-1.739,2.954a.721.721,0,0,0,.06.63c.221.313.621.214.861-.188q.832-1.395,1.644-2.8a.785.785,0,0,1,.757-.443c.431.01.862-.005,1.292,0,.517.011.678.264.5.761-.1.265-.2.527-.293.791-.878,2.409-1.76,4.817-2.628,7.23a.715.715,0,0,1-.8.532c-1.129-.024-2.258-.007-3.387-.009-.3,0-.6.022-.618.406-.017.416.3.457.615.457,1.575,0,3.149,0,4.724.005A.449.449,0,0,0,6.7,56c.3-.644.623-1.281.954-1.911a.976.976,0,0,1,1.625-.3c.583.506,1.181,1,1.729,1.54a2.823,2.823,0,0,1,.625.944c.381.965.7,1.953,1.056,2.928.165.455.421.616.749.5s.422-.431.273-.851c-.471-1.327-.937-2.657-1.426-3.977a2.318,2.318,0,0,0-.436-.7c-.638-.724-1.3-1.431-1.951-2.14a1.327,1.327,0,0,1-.267-1.56c.275-.608.552-1.216.851-1.813a.737.737,0,0,1,1.3-.189c.319.331.6.7.927,1.023a.616.616,0,0,0,.439.205q1.438-.286,2.863-.638c.394-.1.549-.4.508-.845m-5.375-6.519a1.377,1.377,0,0,0-1.425,1.384,1.393,1.393,0,0,0,2.787.016,1.368,1.368,0,0,0-1.361-1.4" transform="translate(0 -34.096)" fill="#f08d00"/>
      <path id="Path_31506" data-name="Path 31506" d="M178.448,6.077a6.084,6.084,0,1,1,6.077,6.112,6.11,6.11,0,0,1-6.077-6.112m.886-.043a5.2,5.2,0,1,0,10.4.14,5.2,5.2,0,1,0-10.4-.14" transform="translate(-162.539 1.019)" fill="#f08d00"/>
      <path id="Path_31507" data-name="Path 31507" d="M225.165,40.781c0-.575.005-1.09,0-1.606,0-.309.1-.543.436-.546s.447.252.45.544c.008.637.006,1.275,0,1.913,0,.353-.166.557-.54.555-.489,0-.979,0-1.468,0-.283,0-.512-.094-.516-.419,0-.353.242-.439.541-.44.352,0,.7,0,1.1,0" transform="translate(-203.599 -34.167)" fill="#f08d00"/>
      <path id="Path_31508" data-name="Path 31508" d="M241.885,15.756c-.017-.323.024-.628.435-.621.4.007.45.313.449.63s-.078.588-.438.6c-.4.013-.466-.283-.446-.609" transform="translate(-220.318 -12.767)" fill="#f08d00"/>
      <path id="Path_31509" data-name="Path 31509" d="M195.091,63.185c-.34.023-.644-.027-.641-.43s.318-.442.632-.444.595.072.6.431c.011.393-.278.474-.6.443" transform="translate(-177.115 -55.737)" fill="#f08d00"/>
      <path id="Path_31510" data-name="Path 31510" d="M285.778,63.254c-.309.021-.591-.034-.595-.412,0-.4.3-.456.619-.457s.624.06.616.459-.327.427-.64.41" transform="translate(-259.76 -55.805)" fill="#f08d00"/>
      <path id="Path_31511" data-name="Path 31511" d="M241.892,106.493c-.023-.32.047-.6.42-.6.39,0,.466.288.467.614s-.083.623-.466.617-.448-.314-.421-.632" transform="translate(-220.322 -95.436)" fill="#f08d00"/>
    </g>
  </g>
</svg>
