<svg id="Leave_History" data-name="Leave History" xmlns="http://www.w3.org/2000/svg" xmlns:xlink="http://www.w3.org/1999/xlink" width="39.019" height="39.213" viewBox="0 0 39.019 39.213">
  <defs>
    <clipPath id="clip-path">
      <rect id="Rectangle_224" data-name="Rectangle 224" width="39.019" height="39.213" fill="#fff"/>
    </clipPath>
  </defs>
  <g id="Group_11527" data-name="Group 11527" clip-path="url(#clip-path)">
    <path id="Path_31490" data-name="Path 31490" d="M28.305,36.986c-.348,1.661-1.029,2.208-2.744,2.208-7.659,0-15.318-.02-22.976.019A2.407,2.407,0,0,1,0,36.635Q.056,19.6,0,2.559A2.393,2.393,0,0,1,2.547,0c5.432.043,10.865.025,16.3.011a2.653,2.653,0,0,1,2.012.844Q24.114,4.16,27.41,7.427a2.711,2.711,0,0,1,.856,2.064c-.02,4.151-.009,8.3-.009,12.453V22.6c4.061-1.226,7.43-.312,9.635,3.385a7.126,7.126,0,0,1-.436,8.3c-2.317,3.156-5.5,3.842-9.149,2.7M18.949,1.557H2.659c-1,0-1.136.138-1.136,1.149q0,16.89,0,33.78c0,1.036.132,1.168,1.175,1.168H25.609a1.51,1.51,0,0,0,.559-.032,1,1,0,0,0,.494-.4,1.33,1.33,0,0,0-.357-1.5,7.721,7.721,0,0,1,.041-11.886.984.984,0,0,0,.4-.858q-.014-6.479-.007-12.958c0-.2-.017-.4-.027-.639h-.681c-1.754,0-3.507.011-5.261,0a1.665,1.665,0,0,1-1.816-1.836c-.006-1.773,0-3.546,0-5.319V1.557M37.411,29.8a6.17,6.17,0,1,0-6.2,6.191,6.221,6.221,0,0,0,6.2-6.191M25.465,7.845,20.442,2.858c0,1.517-.008,3.092.018,4.667,0,.109.258.3.4.306,1.542.022,3.085.014,4.606.014" transform="translate(-0.001 0)" fill="#fff"/>
    <path id="Path_31491" data-name="Path 31491" d="M50.666,176.789c-2.847,0-5.695.013-8.541-.019a1.347,1.347,0,0,1-.879-.441.766.766,0,0,1,.07-.75,1.293,1.293,0,0,1,.843-.319c2.3-.025,4.6-.014,6.9-.014h9.956a2.432,2.432,0,0,1,.563.025.757.757,0,0,1-.033,1.494,3.319,3.319,0,0,1-.564.022H50.666" transform="translate(-36.517 -155.412)" fill="#fff"/>
    <path id="Path_31492" data-name="Path 31492" d="M47.764,135.131h6.507a2.352,2.352,0,0,1,.452.013.721.721,0,0,1,.654.732.7.7,0,0,1-.6.769,3.2,3.2,0,0,1-.618.043q-6.394,0-12.788,0c-.094,0-.189,0-.283,0-.608-.026-.966-.334-.948-.815.018-.462.362-.741.949-.742q3.338-.006,6.677,0" transform="translate(-35.595 -119.835)" fill="#fff"/>
    <path id="Path_31493" data-name="Path 31493" d="M48.128,256.23c2.167,0,4.335,0,6.5,0a.809.809,0,0,1,.892.751.818.818,0,0,1-.854.8c-.169.013-.339.005-.509.005H43.417c-.565,0-1.131.007-1.7,0-.63-.01-.991-.291-1.005-.763-.015-.49.366-.792,1.023-.792q3.195,0,6.389,0" transform="translate(-36.108 -227.234)" fill="#fff"/>
    <path id="Path_31494" data-name="Path 31494" d="M48.251,217.383H41.979c-.169,0-.395.054-.5-.033-.237-.2-.537-.453-.585-.724a.643.643,0,0,1,.617-.737,4.2,4.2,0,0,1,.564-.022H54.624c.683.009,1.047.269,1.051.752s-.358.764-1.038.765q-3.193,0-6.385,0" transform="translate(-36.261 -191.438)" fill="#fff"/>
    <path id="Path_31495" data-name="Path 31495" d="M46.869,95.861h-4.8c-.169,0-.339,0-.508-.011a.719.719,0,0,1-.73-.776.693.693,0,0,1,.715-.731q5.34-.019,10.68,0a.681.681,0,0,1,.718.773.718.718,0,0,1-.817.741c-1.752.005-3.5,0-5.255,0Z" transform="translate(-36.208 -83.658)" fill="#fff"/>
    <path id="Path_31496" data-name="Path 31496" d="M196.608,135.989a.8.8,0,0,1-.775.742.768.768,0,1,1,.05-1.535.811.811,0,0,1,.725.793" transform="translate(-173.008 -119.896)" fill="#fff"/>
    <path id="Path_31497" data-name="Path 31497" d="M270.789,227.154c.754,0,1.427-.009,2.1,0,.617.01.931.265.945.734.014.485-.338.78-.955.783-.9.005-1.806.009-2.709,0-.624-.007-.89-.272-.895-.9q-.014-1.75,0-3.5c0-.573.308-.923.768-.915s.74.349.744.94c.007.921,0,1.841,0,2.854" transform="translate(-238.799 -198.084)" fill="#fff"/>
  </g>
</svg>
