<svg xmlns="http://www.w3.org/2000/svg" xmlns:xlink="http://www.w3.org/1999/xlink" width="20.1" height="16.156" viewBox="0 0 20.1 16.156">
  <defs>
    <clipPath id="clip-path">
      <rect id="Rectangle_3440" data-name="Rectangle 3440" width="20.1" height="16.156" fill="#3f5ea2"/>
    </clipPath>
  </defs>
  <g id="Group_11649" data-name="Group 11649" transform="translate(0 0)">
    <g id="Group_11641" data-name="Group 11641" transform="translate(0 0)" clip-path="url(#clip-path)">
      <path id="Path_31532" data-name="Path 31532" d="M10.053,16.152c-1.793,0-3.586.006-5.378,0A4.562,4.562,0,0,1,.246,13.012a3.853,3.853,0,0,1-.226-1.226C0,9.312-.011,6.837.016,4.363A4.534,4.534,0,0,1,3.56.132,6.345,6.345,0,0,1,4.774.009q5.363-.014,10.725,0a4.6,4.6,0,0,1,4.552,3.94,5.474,5.474,0,0,1,.038.753c0,2.254-.025,4.509.009,6.762a4.6,4.6,0,0,1-3.246,4.474,5.626,5.626,0,0,1-1.484.209c-1.772.025-3.544.01-5.315.01M1.763,2.912A2.986,2.986,0,0,0,1.28,4.548c-.01,2.359-.024,4.717,0,7.076a3.253,3.253,0,0,0,3.239,3.223q5.519.029,11.038,0a3.238,3.238,0,0,0,3.249-3.178c.041-2.389.017-4.78,0-7.17a2.788,2.788,0,0,0-.487-1.586c-.1.118-.161.215-.242.3Q15.64,5.655,13.194,8.1a4.235,4.235,0,0,1-6.283.01Q4.831,6.031,2.755,3.95c-.331-.333-.649-.679-.993-1.039m15.752-.935a3.471,3.471,0,0,0-2.163-.682c-3.532.01-7.063,0-10.595.005a5.153,5.153,0,0,0-.534.016,3.209,3.209,0,0,0-1.675.693,2.761,2.761,0,0,1,.3.225q2.5,2.5,5,5a2.958,2.958,0,0,0,4.385.009q1.59-1.588,3.177-3.179c.689-.687,1.381-1.371,2.1-2.087" transform="translate(0.001 0)" fill="#3f5ea2"/>
    </g>
  </g>
</svg>
