<svg id="Group_11472" data-name="Group 11472" xmlns="http://www.w3.org/2000/svg" xmlns:xlink="http://www.w3.org/1999/xlink" width="40.53" height="24.081" viewBox="0 0 40.53 24.081">
  <defs>
    <clipPath id="clip-path">
      <rect id="Rectangle_3482" data-name="Rectangle 3482" width="40.53" height="24.081" fill="#fff"/>
    </clipPath>
  </defs>
  <g id="Group_11471" data-name="Group 11471" clip-path="url(#clip-path)">
    <path id="Path_8161" data-name="Path 8161" d="M121.788,0a6.756,6.756,0,1,1-6.771,6.727A6.758,6.758,0,0,1,121.788,0m.015,2.7a4.061,4.061,0,0,0-4.086,3.97,4.056,4.056,0,1,0,8.112.12A4.06,4.06,0,0,0,121.8,2.7" transform="translate(-101.509 0)" fill="#fff"/>
    <path id="Path_8162" data-name="Path 8162" d="M16.749,45.109a5.385,5.385,0,0,1-5.4-5.4,5.415,5.415,0,0,1,10.83.037,5.379,5.379,0,0,1-5.432,5.363m0-2.709a2.608,2.608,0,0,0,2.686-2.644,2.687,2.687,0,0,0-2.693-2.73,2.74,2.74,0,0,0-2.683,2.7,2.67,2.67,0,0,0,2.69,2.67" transform="translate(-10.018 -30.286)" fill="#fff"/>
    <path id="Path_8163" data-name="Path 8163" d="M246.979,45.119a5.379,5.379,0,0,1-5.447-5.349,5.415,5.415,0,1,1,10.83,0,5.381,5.381,0,0,1-5.383,5.353m-.018-2.709a2.664,2.664,0,0,0,2.685-2.672,2.746,2.746,0,0,0-2.688-2.7,2.679,2.679,0,0,0-2.686,2.732,2.608,2.608,0,0,0,2.69,2.641" transform="translate(-213.166 -30.295)" fill="#fff"/>
    <path id="Path_8164" data-name="Path 8164" d="M111.161,142.588a1.358,1.358,0,0,1-1.161,1.4,1.378,1.378,0,0,1-1.505-1.188,4.756,4.756,0,0,0-5.069-4.325c-1.249.06-2.5,0-3.756.012a4.709,4.709,0,0,0-4.7,4,1.338,1.338,0,0,1-1.615,1.275,1.383,1.383,0,0,1-1.014-1.8,7.27,7.27,0,0,1,5.976-5.991,4.435,4.435,0,0,1,.93-.086c1.643-.008,3.287-.026,4.93,0a7.366,7.366,0,0,1,6.988,6.474c.008.077,0,.156,0,.234" transform="translate(-81.45 -119.91)" fill="#fff"/>
    <path id="Path_8165" data-name="Path 8165" d="M256.022,142.2a8.875,8.875,0,0,1,3.84.722,5.307,5.307,0,0,1,2.866,4.1,1.369,1.369,0,0,1-1.167,1.616,1.4,1.4,0,0,1-1.518-1.231,2.62,2.62,0,0,0-2.852-2.419c-.8,0-1.6-.021-2.4.008a5.53,5.53,0,0,0-1.2.185,1.376,1.376,0,0,1-1.736-.879,1.285,1.285,0,0,1,.942-1.681c1.065-.208,2.154-.29,3.233-.425" transform="translate(-222.215 -125.498)" fill="#fff"/>
    <path id="Path_8166" data-name="Path 8166" d="M0,147.6a5.3,5.3,0,0,1,4.156-4.726,15.286,15.286,0,0,1,5.54.08,1.36,1.36,0,0,1,1.194,1.738A1.411,1.411,0,0,1,9,145.547a7.841,7.841,0,0,0-1.623-.145c-.645-.023-1.291-.01-1.937,0A2.6,2.6,0,0,0,2.7,147.75a1.359,1.359,0,0,1-1.913,1.173A1.318,1.318,0,0,1,0,147.6" transform="translate(0 -125.905)" fill="#fff"/>
  </g>
</svg>
