<svg xmlns="http://www.w3.org/2000/svg" width="24" height="24.368" viewBox="0 0 24 24.368">
  <g id="Noitfication" transform="translate(-370.999 -88.151)">
    <g id="Group_2520" data-name="Group 2520" transform="translate(370.999 89.791)">
      <rect id="Icon_20_Grey_Notification_background" data-name="Icon / 20 / Grey / Notification background" width="21.644" height="21.645" transform="translate(0 0.541)" fill="rgba(0,0,0,0)"/>
      <path id="Shape" d="M18.506,19.521H.514a1.022,1.022,0,0,1-.876-.493.972.972,0,0,1,.013-1.02l1.626-2.581A6.858,6.858,0,0,0,2.34,11.772V9.511A6.589,6.589,0,0,1,3.8,5.372a7.242,7.242,0,0,1,3.275-2.3V1.845a2.437,2.437,0,0,1,4.87,0V3.067a7.242,7.242,0,0,1,3.275,2.3,6.589,6.589,0,0,1,1.46,4.139v2.261a6.852,6.852,0,0,0,1.064,3.656l1.626,2.581a.972.972,0,0,1,.012,1.021A1.024,1.024,0,0,1,18.506,19.521ZM.658,18.439h17.7L16.828,16A7.933,7.933,0,0,1,15.6,11.772V9.511a5.858,5.858,0,0,0-4.342-5.526l-.393-.112V1.845a1.356,1.356,0,0,0-2.706,0V3.872l-.393.112A5.858,5.858,0,0,0,3.422,9.511v2.261A7.939,7.939,0,0,1,2.192,16Z" transform="translate(1.071 0.5)" fill="#707070"/>
      <path id="Shape-2" data-name="Shape" d="M-.811-.5H6.908L6.514.284a3.842,3.842,0,0,1-3.465,2.1A3.842,3.842,0,0,1-.417.284ZM4.944.582H1.153a2.852,2.852,0,0,0,1.9.721A2.852,2.852,0,0,0,4.944.582Z" transform="translate(7.532 20.341)" fill="#707070"/>
    </g>
    <circle id="Ellipse_3" data-name="Ellipse 3" cx="6.423" cy="6.423" r="6.423" transform="translate(382.153 88.151)" fill="#ec1f1f"/>
  </g>
</svg>
