<svg xmlns="http://www.w3.org/2000/svg" xmlns:xlink="http://www.w3.org/1999/xlink" width="59" height="47.385" viewBox="0 0 59 47.385">
  <defs>
    <clipPath id="clip-path">
      <rect id="Rectangle_209" data-name="Rectangle 209" width="59" height="47.385" transform="translate(0 -1)" fill="#3f5ea2"/>
    </clipPath>
  </defs>
  <g id="On_behalf_of" data-name="On behalf of" transform="translate(-2495.506 -1187.184)">
    <g id="Group_11500" data-name="Group 11500" transform="translate(2495.506 1188.184)">
      <g id="Group_11499" data-name="Group 11499" clip-path="url(#clip-path)">
        <path id="Path_31456" data-name="Path 31456" d="M182.832,69.7a8.268,8.268,0,0,1,9.157,6.434,38.326,38.326,0,0,1,.908,9.308c0,1.2-.728,1.853-2.03,1.863-2.781.021-5.562.008-8.342.008q-7.394,0-14.789,0c-1.948,0-2.556-.62-2.482-2.581.12-3.187.175-6.39,1.208-9.454a8.213,8.213,0,0,1,8.841-5.6,4.578,4.578,0,0,0-.614-1.411,8.2,8.2,0,0,1-2.445-5.78,26.89,26.89,0,0,0-.25-3.67c-.7-3.949,1.283-6.04,4.319-7.362a9.124,9.124,0,0,1,6.367-.609,4.262,4.262,0,0,1,1.662,1.132c.586.589.994,1.352,1.563,1.961a3.829,3.829,0,0,1,.71,4.846,4.68,4.68,0,0,0-.592,2.524c.118,2.844-.569,5.377-2.865,7.3-.229.192-.211.678-.327,1.1M167.047,85.434H170.7c0-.669,0-1.293,0-1.916,0-1.422-.049-2.847.038-4.264a1.362,1.362,0,0,1,.777-.947c.525-.186.891.208.951.766a11.816,11.816,0,0,1,.034,1.23c0,1.7,0,3.39,0,5.125h13.185V84.362c0-1.707-.041-3.415.039-5.118a1.329,1.329,0,0,1,.781-.937c.6-.188.909.3.978.863a9.4,9.4,0,0,1,.024,1.136c0,1.694,0,3.389,0,5.092h3.641c-.168-3.233-.16-6.4-1.118-9.452a6.327,6.327,0,0,0-4.063-4.2,2.712,2.712,0,0,0-3,.357c-.972.843-2.128,1.47-3.171,2.235a1.239,1.239,0,0,1-1.7-.036c-.844-.663-1.81-1.19-2.578-1.926-1.4-1.338-2.8-.984-4.238-.214a6.03,6.03,0,0,0-2.923,3.232c-1.209,3.223-1.173,6.6-1.312,10.042m17.131-23.367c0-.5,0-.847,0-1.194-.018-1.043-.485-1.375-1.5-1.052a9.438,9.438,0,0,1-6.838-.141c-.557-.241-1.766.478-1.75,1.063a16.058,16.058,0,0,0,.262,3.47,4.875,4.875,0,0,0,3.959,3.872,4.556,4.556,0,0,0,4.8-2.13,5.949,5.949,0,0,0,1.06-3.888m.565-3.746a2.232,2.232,0,0,0-.308-3.28c-.56-.573-.98-1.281-1.507-1.889a1.749,1.749,0,0,0-.87-.632,8.3,8.3,0,0,0-7.35,2.135,3.559,3.559,0,0,0-.849,3.744,3.455,3.455,0,0,1,.825-.623c.38-.123.908-.29,1.192-.126a7.081,7.081,0,0,0,6.468.322c.906-.358,1.73-.7,2.4.351M181.03,69.863h-4.036c-.411.647-.333,1.2.486,1.745,1.538,1.024,1.476,1.019,3.018.05.841-.529,1.066-1.052.531-1.8" transform="translate(-133.897 -40.928)" fill="#3f5ea2"/>
        <path id="Path_31457" data-name="Path 31457" d="M17.521,69.83a8.087,8.087,0,0,1,9.138,6.438,82.334,82.334,0,0,1,.961,9.116,1.773,1.773,0,0,1-1.975,2.025q-11.851.025-23.7,0A1.714,1.714,0,0,1,0,85.761c-.025-3.637.044-7.28,1.3-10.754a8.056,8.056,0,0,1,8.453-5.222,1.187,1.187,0,0,0-.384-1.491,7.481,7.481,0,0,1-2.381-5.3C6.9,61.2,6.775,59.41,6.6,57.623A5.008,5.008,0,0,1,8.655,52.98a9.8,9.8,0,0,1,8.707-2.028,4.22,4.22,0,0,1,1.724,1.2c.568.562.956,1.3,1.5,1.886a3.868,3.868,0,0,1,.721,4.851,5.345,5.345,0,0,0-.629,2.994,8.03,8.03,0,0,1-2.741,6.773c-.253.222-.266.718-.421,1.179m2.852,15.721c0-.444,0-.788,0-1.133,0-1.611,0-3.223,0-4.835,0-.6.09-1.19.878-1.2.844-.01.924.589.921,1.241-.007,1.485,0,2.97,0,4.456,0,.488,0,.976,0,1.453H25.82c-.1-3.366-.11-6.685-1.226-9.855a6.132,6.132,0,0,0-3.766-3.763,2.816,2.816,0,0,0-3.171.311c-.976.84-2.128,1.471-3.175,2.233a1.2,1.2,0,0,1-1.625-.011c-.977-.749-2.055-1.38-2.963-2.2A2.584,2.584,0,0,0,7,71.83a4.225,4.225,0,0,0-1.511.759A9.656,9.656,0,0,0,3.24,75.2C1.748,78.461,1.945,82.01,1.726,85.524H5.366c0-.446,0-.822,0-1.2,0-1.611-.01-3.223.009-4.835.008-.624.216-1.151.983-1.109.714.04.835.545.832,1.139-.007,1.453,0,2.907,0,4.361,0,.553,0,1.106,0,1.669ZM18.892,61.969c0-.221,0-.442,0-.663,0-1.462-.372-1.747-1.755-1.313a9.217,9.217,0,0,1-6.565-.189c-.609-.258-1.837.464-1.808,1.1a17,17,0,0,0,.358,3.649,4.8,4.8,0,0,0,6.7,3.26c2.36-1.217,3.1-3.343,3.074-5.846m.553-3.51c.84-1.388.761-2.1-.133-3.13-.609-.7-1.136-1.471-1.729-2.185a1.625,1.625,0,0,0-.675-.476c-2.42-.854-6.655.624-8.044,2.789A3.3,3.3,0,0,0,8.6,58.468c.3-.233.5-.485.752-.554.411-.114.962-.3,1.267-.124a7.167,7.167,0,0,0,6.559.245c.878-.356,1.616-.566,2.265.423M15.767,69.974H11.672c-.428.728-.235,1.257.547,1.776,1.495.991,1.464,1.038,2.918.03.331-.229.658-.464,1-.7l-.367-1.1" transform="translate(0 -41.039)" fill="#3f5ea2"/>
        <path id="Union_4" data-name="Union 4" d="M.005,7.209C.014,5.883.031,2.558,0,1.234-.019.332.4-.014,1.266,0,2.56.023,26.74.008,28.033.005h.157c1.282,0,2.564,0,3.845,0,.77,0,1.171.338,1.162,1.142-.014,1.42-.005,3.839,0,5.26,0,.574-.192,1.006-.837,1.039-.7.035-.942-.414-.949-1.026-.013-1.158,0-3.317,0-4.586H27.986c-1.064,0-25.014,0-26.183,0,0,1.212.005,4.307,0,5.4,0,.6-.082,1.19-.87,1.2H.9C.087,8.441,0,7.856.005,7.209Z" transform="translate(12.89 -1)" fill="#3f5ea2" stroke="rgba(0,0,0,0)" stroke-miterlimit="10" stroke-width="1"/>
      </g>
    </g>
    <path id="Path_31460" data-name="Path 31460" d="M2587.309,1199.529l-3.382-3.015a.7.7,0,0,1,.933-1.046l2.392,2.133,2.1-2.1a.7.7,0,0,1,.992.989Z" transform="translate(-46.53 -3.32)" fill="#3f5ea2"/>
  </g>
</svg>
