<svg id="Present" xmlns="http://www.w3.org/2000/svg" xmlns:xlink="http://www.w3.org/1999/xlink" width="19.424" height="23.918" viewBox="0 0 19.424 23.918">
  <defs>
    <clipPath id="clip-path">
      <rect id="Rectangle_239" data-name="Rectangle 239" width="19.424" height="23.918" fill="#3f5ea2"/>
    </clipPath>
  </defs>
  <g id="Group_11560" data-name="Group 11560" clip-path="url(#clip-path)">
    <path id="Path_31500" data-name="Path 31500" d="M18.1,13.061v.7q0,4.523,0,9.046c0,.842-.255,1.106-1.085,1.106q-7.3,0-14.6,0c-.836,0-1.084-.255-1.085-1.108q-.006-4.494,0-8.987v-.739l-.491-.046c-.518-.047-.86-.362-.834-.809a.779.779,0,0,1,.855-.788c.768-.017,1.537-.007,2.306-.008h.789A4.867,4.867,0,0,1,6.935,6.224C5.652,4.018,5.792,2.211,7.327.887A3.683,3.683,0,0,1,12.056.832c1.567,1.276,1.725,3.034.464,5.391a4.907,4.907,0,0,1,2.974,5.208c.872,0,1.692,0,2.511,0a5.324,5.324,0,0,1,.708.022.726.726,0,0,1,.711.789.746.746,0,0,1-.777.79c-.156.014-.313.017-.544.029M2.99,22.277H16.452V13.066H2.99Zm2.6-10.884H13.8A3.149,3.149,0,0,0,10.674,7.5c-.552-.013-1.1-.005-1.655,0a3.213,3.213,0,0,0-3.427,3.893m2.06-7.716A2.1,2.1,0,0,0,9.715,5.811a2.157,2.157,0,0,0,2.1-2.119A2.112,2.112,0,0,0,9.759,1.6,2.061,2.061,0,0,0,7.651,3.677" transform="translate(0 0)" fill="#3f5ea2"/>
  </g>
</svg>
