<svg id="Punch" xmlns="http://www.w3.org/2000/svg" xmlns:xlink="http://www.w3.org/1999/xlink" width="44.936" height="39.213" viewBox="0 0 44.936 39.213">
  <defs>
    <clipPath id="clip-path">
      <rect id="Rectangle_219" data-name="Rectangle 219" width="44.936" height="39.213" fill="#fff"/>
    </clipPath>
  </defs>
  <g id="Group_11519" data-name="Group 11519" clip-path="url(#clip-path)">
    <path id="Path_31478" data-name="Path 31478" d="M25.711,33.18c0,1.478,0,2.9,0,4.331,0,1.634.182,1.706-1.712,1.7q-11.425-.021-22.851-.006C.129,39.208,0,39.078,0,38.04c0-1.931.014-3.863,0-5.794a6.943,6.943,0,0,1,7.118-7.1c.388.019.778,0,1.214,0,.168-.715.346-1.4.48-2.1.026-.134-.107-.308-.187-.453-.645-1.173-1.309-2.335-1.939-3.516a6.864,6.864,0,0,1-.725-1.655,5.351,5.351,0,0,1,.077-1.5c.018-.244.061-.488.06-.732A29.433,29.433,0,0,1,6.08,12.23,2.782,2.782,0,0,1,7.845,9.84c.165-.072.375-.279.383-.433C8.339,7.25,10.076,5.989,12.5,5.9a12.738,12.738,0,0,1,2.327.172.915.915,0,0,0,.956-.325A16.514,16.514,0,0,1,25.238.3a16.646,16.646,0,1,1,1.18,32.928c-.21-.022-.421-.027-.707-.044M12.649,31.639c-.28.673-.574,1.34-.83,2.021a.8.8,0,0,0-.021.622,11.139,11.139,0,0,0,1,1.084c.222-.539.586-.99.531-1.382a14.822,14.822,0,0,0-.7-2.332,3.328,3.328,0,0,0-1.081-2.34,16.077,16.077,0,0,1-1.993-1.957A2.831,2.831,0,0,0,7.072,26.33a5.655,5.655,0,0,0-5.783,5.287c-.141,2.029-.04,4.076-.043,6.115,0,.054.055.108.086.162H3.4V36.9q0-3.157,0-6.314c0-.439.149-.785.667-.767.481.016.6.356.608.763,0,.152,0,.3,0,.456q0,3.092,0,6.184v.659H21.089v-.75c0-2.17,0-4.34,0-6.51,0-.47.094-.845.67-.8.507.041.525.424.525.814q0,3.287,0,6.575v.677h2.181c0-2.138.084-4.242-.026-6.336a5.465,5.465,0,0,0-2.41-4.2,6.413,6.413,0,0,0-4.347-.983,1.365,1.365,0,0,0-.789.324c-1.008.922-1.972,1.892-2.977,2.817a.763.763,0,0,0-.236.908c.329,1.053.658,2.108.92,3.178a1.9,1.9,0,0,1-.057,1.173,13.136,13.136,0,0,1-1.118,1.751.656.656,0,0,1-1.134.1c-.63-.628-1.235-1.28-1.852-1.92a.67.67,0,0,1-.1-.926c.371-.61.684-1.255,1.028-1.882.412-.75.583-.782,1.285-.253m13.088.218A15.394,15.394,0,1,0,16.82,6.476c.138.069.276.131.407.207a4.237,4.237,0,0,1,2.447,4.042c-.058,1.279-.162,2.555-.218,3.834a2.1,2.1,0,0,0,.121,1.122,2,2,0,0,1,.158,1.984,19.637,19.637,0,0,1-2.621,4.914.869.869,0,0,0-.165.632c.113.634.288,1.258.456,1.955a7.565,7.565,0,0,1,5.721,1.45,7.213,7.213,0,0,1,2.612,5.24m-7.1-15.309c-.516,0-.967.012-1.417,0a3.871,3.871,0,0,1-3.7-2.067,3.116,3.116,0,0,0-.416-.58,1.109,1.109,0,0,0-1.657-.275,18.121,18.121,0,0,0-1.776,1.413A5.036,5.036,0,0,1,7.053,16.6a3.77,3.77,0,0,0,.152.665A28.025,28.025,0,0,0,8.456,19.97,14.569,14.569,0,0,0,10.171,22.4a3.313,3.313,0,0,0,4.235.819,5.293,5.293,0,0,0,1.833-1.6c.886-1.423,1.585-2.963,2.342-4.464a1.82,1.82,0,0,0,.054-.6m-11.2-1.275,1.4-1.1a24.408,24.408,0,0,1,2.15-1.673,2.16,2.16,0,0,1,3.052.578c.242.3.389.678.625.984s.5.757.834.858a12.331,12.331,0,0,0,2.344.378c.1.01.334-.3.347-.475.1-1.384.159-2.77.221-4.157A2.823,2.823,0,0,0,16.424,7.7a8.573,8.573,0,0,0-4.849-.452A2.33,2.33,0,0,0,9.507,9.819c0,.573-.241.814-.755,1.039A2.509,2.509,0,0,0,7.5,11.877a4.438,4.438,0,0,0-.063,3.4M12.821,28.82c1.09-1.039,2.143-2.037,3.185-3.047a.516.516,0,0,0,.16-.387c-.1-.495-.245-.981-.389-1.527a4.791,4.791,0,0,1-5.845.039c-.133.5-.267.912-.346,1.335a.671.671,0,0,0,.106.521c1.022,1.027,2.066,2.031,3.129,3.066" transform="translate(0 -0.001)" fill="#fff"/>
    <path id="Path_31479" data-name="Path 31479" d="M91.044,242.911a14.832,14.832,0,0,1,.7,2.332c.055.392-.309.842-.531,1.382a11.135,11.135,0,0,1-1-1.084.8.8,0,0,1,.021-.622c.256-.681.551-1.349.831-2.022l-.016.014" transform="translate(-78.411 -211.259)" fill="#fff"/>
    <path id="Path_31480" data-name="Path 31480" d="M200.734,66.271V61.186c0-.173,0-.347,0-.521-.009-.437.015-.878.592-.892s.617.417.616.861c-.005,1.5.019,2.995-.011,4.491a1.485,1.485,0,0,0,.776,1.607c1.332.767,1.413,2.217.37,3.748.46.79.926,1.594,1.394,2.4.229.393.341.8-.134,1.069-.455.258-.709-.042-.913-.429-.212-.4-.479-.776-.684-1.181-.378-.747-.737-1.333-1.8-1.265-.948.061-1.857-.986-2.007-1.928a2.441,2.441,0,0,1,1.311-2.66c.155-.074.314-.137.493-.215m.575,1.229a1.2,1.2,0,0,0-1.207,1.182,1.227,1.227,0,1,0,2.451-.04,1.21,1.21,0,0,0-1.244-1.142" transform="translate(-172.988 -51.988)" fill="#fff"/>
    <path id="Path_31481" data-name="Path 31481" d="M211.9,20.641a2.479,2.479,0,0,1,.023-.9c.111-.267.409-.455.625-.678.208.208.566.4.6.628a7.588,7.588,0,0,1,0,1.94.832.832,0,0,1-.615.54c-.212,0-.513-.322-.6-.566a2.963,2.963,0,0,1-.025-.965" transform="translate(-184.274 -16.581)" fill="#fff"/>
    <path id="Path_31482" data-name="Path 31482" d="M213.2,214.421a2.847,2.847,0,0,1-.025.96c-.094.248-.4.575-.614.573a.852.852,0,0,1-.6-.578,8.478,8.478,0,0,1,0-2c.024-.206.393-.538.575-.52a.938.938,0,0,1,.638.538,3.159,3.159,0,0,1,.027,1.024" transform="translate(-184.303 -185.134)" fill="#fff"/>
    <path id="Path_31483" data-name="Path 31483" d="M260.15,203.716c-.216.257-.344.551-.519.582a.853.853,0,0,1-.716-.224,11.227,11.227,0,0,1-1-1.725.705.705,0,0,1,.117-.663c.176-.138.65-.21.724-.11.492.661.91,1.376,1.4,2.141" transform="translate(-224.288 -175.279)" fill="#fff"/>
    <path id="Path_31484" data-name="Path 31484" d="M259.893,34.233c-.47.773-.881,1.5-1.359,2.18-.071.1-.525.063-.682-.062a.726.726,0,0,1-.205-.659,12.1,12.1,0,0,1,1.063-1.844.867.867,0,0,1,.733-.156c.163.034.275.316.451.54" transform="translate(-224.068 -29.288)" fill="#fff"/>
    <path id="Path_31485" data-name="Path 31485" d="M289.953,168.679c0-.614.4-.9.854-.684a10.388,10.388,0,0,1,1.779,1.041.884.884,0,0,1,.072.826.787.787,0,0,1-.737.162,11.434,11.434,0,0,1-1.625-.924,1.471,1.471,0,0,1-.343-.422" transform="translate(-252.186 -146.051)" fill="#fff"/>
    <path id="Path_31486" data-name="Path 31486" d="M289.929,73.745c.046-.076.111-.31.264-.412a9.225,9.225,0,0,1,1.629-.935.991.991,0,0,1,.871.238c.3.325.054.634-.285.832-.523.306-1.037.628-1.573.909-.5.263-.894.032-.906-.631" transform="translate(-252.166 -62.942)" fill="#fff"/>
    <path id="Path_31487" data-name="Path 31487" d="M163.2,35.806c-.234.261-.373.553-.558.586a.84.84,0,0,1-.7-.248,10.094,10.094,0,0,1-.974-1.682.8.8,0,0,1,.147-.716c.128-.134.6-.184.67-.088.493.667.922,1.381,1.415,2.148" transform="translate(-139.975 -29.23)" fill="#fff"/>
    <path id="Path_31488" data-name="Path 31488" d="M303.609,123.509a3.348,3.348,0,0,1,.969.023.956.956,0,0,1,.564.544c.1.363-.142.634-.534.646-.672.022-1.345.024-2.016,0a.5.5,0,0,1-.526-.655.96.96,0,0,1,.574-.535,3.384,3.384,0,0,1,.969-.022" transform="translate(-262.7 -107.4)" fill="#fff"/>
  </g>
</svg>
