<svg xmlns="http://www.w3.org/2000/svg" width="28.957" height="38.542" viewBox="0 0 28.957 38.542">
  <path id="Self" d="M183.663,70.6a8.659,8.659,0,0,1,9.59,6.738,40.137,40.137,0,0,1,.951,9.748c0,1.258-.763,1.941-2.126,1.951-2.912.022-5.825.008-8.737.008q-7.744,0-15.488,0c-2.04,0-2.676-.649-2.6-2.7.125-3.337.184-6.692,1.266-9.9a8.6,8.6,0,0,1,9.259-5.867,4.8,4.8,0,0,0-.643-1.478,8.588,8.588,0,0,1-2.561-6.053,28.162,28.162,0,0,0-.262-3.843c-.736-4.135,1.344-6.325,4.523-7.71a9.556,9.556,0,0,1,6.668-.638,4.464,4.464,0,0,1,1.741,1.186c.614.616,1.041,1.416,1.636,2.054a4.01,4.01,0,0,1,.744,5.076,4.9,4.9,0,0,0-.62,2.644c.124,2.979-.6,5.632-3,7.642-.24.2-.221.71-.343,1.147M167.132,87.086h3.829c0-.7,0-1.354,0-2.006,0-1.489-.052-2.982.04-4.466a1.427,1.427,0,0,1,.814-.991c.55-.2.933.218,1,.8a12.376,12.376,0,0,1,.036,1.288c0,1.775,0,3.55,0,5.367h13.808V85.963c0-1.787-.043-3.576.041-5.36a1.392,1.392,0,0,1,.818-.981c.632-.2.952.314,1.024.9a9.851,9.851,0,0,1,.025,1.19c0,1.774,0,3.549,0,5.333h3.813c-.176-3.386-.168-6.706-1.17-9.9a6.626,6.626,0,0,0-4.255-4.4,2.84,2.84,0,0,0-3.142.374c-1.017.883-2.228,1.54-3.321,2.34a1.3,1.3,0,0,1-1.784-.038c-.884-.694-1.9-1.246-2.7-2.017-1.461-1.4-2.929-1.03-4.438-.224a6.315,6.315,0,0,0-3.061,3.385c-1.267,3.375-1.228,6.917-1.374,10.517m17.941-24.472c0-.523.005-.887,0-1.25-.019-1.093-.508-1.44-1.568-1.1a9.884,9.884,0,0,1-7.161-.148c-.584-.252-1.85.5-1.833,1.113a16.813,16.813,0,0,0,.275,3.634,5.106,5.106,0,0,0,4.146,4.055,4.771,4.771,0,0,0,5.032-2.231,6.23,6.23,0,0,0,1.11-4.072m.591-3.923a2.337,2.337,0,0,0-.323-3.436c-.587-.6-1.026-1.342-1.578-1.979a1.831,1.831,0,0,0-.912-.662,8.69,8.69,0,0,0-7.7,2.236,3.727,3.727,0,0,0-.89,3.921,3.618,3.618,0,0,1,.864-.653c.4-.129.951-.3,1.249-.132a7.416,7.416,0,0,0,6.774.337c.949-.375,1.811-.737,2.514.367m-3.887,12.087h-4.227c-.431.677-.349,1.257.509,1.828,1.611,1.073,1.546,1.068,3.161.052.881-.554,1.116-1.1.557-1.88" transform="translate(-165.248 -50.511)" fill="#3f5ea2"/>
</svg>
